<?xml version="1.0" encoding="utf-8" standalone="no"?>
<!DOCTYPE svg PUBLIC "-//W3C//DTD SVG 1.1//EN"
  "http://www.w3.org/Graphics/SVG/1.1/DTD/svg11.dtd">
<svg xmlns:xlink="http://www.w3.org/1999/xlink" width="648pt" height="792pt" viewBox="0 0 648 792" xmlns="http://www.w3.org/2000/svg" version="1.1">
 <metadata>
  <rdf:RDF xmlns:dc="http://purl.org/dc/elements/1.1/" xmlns:cc="http://creativecommons.org/ns#" xmlns:rdf="http://www.w3.org/1999/02/22-rdf-syntax-ns#">
   <cc:Work>
    <dc:type rdf:resource="http://purl.org/dc/dcmitype/StillImage"/>
    <dc:date>2023-10-27T22:49:50.814441</dc:date>
    <dc:format>image/svg+xml</dc:format>
    <dc:creator>
     <cc:Agent>
      <dc:title>Matplotlib v3.7.3, https://matplotlib.org/</dc:title>
     </cc:Agent>
    </dc:creator>
   </cc:Work>
  </rdf:RDF>
 </metadata>
 <defs>
  <style type="text/css">*{stroke-linejoin: round; stroke-linecap: butt}</style>
 </defs>
 <g id="figure_1">
  <g id="patch_1">
   <path d="M 0 792 
L 648 792 
L 648 0 
L 0 0 
z
" style="fill: #ffffff"/>
  </g>
  <g id="axes_1">
   <g id="patch_2">
    <path d="M 81 372.24 
L 583.2 372.24 
L 583.2 95.04 
L 81 95.04 
z
" style="fill: #ffffff"/>
   </g>
   <g id="matplotlib.axis_1">
    <g id="xtick_1">
     <g id="line2d_1">
      <path d="M 103.827273 372.24 
L 103.827273 95.04 
" clip-path="url(#p58457c78da)" style="fill: none; stroke: #b0b0b0; stroke-width: 0.8; stroke-linecap: square"/>
     </g>
     <g id="line2d_2">
      <defs>
       <path id="m680157fd59" d="M 0 0 
L 0 3.5 
" style="stroke: #000000; stroke-width: 0.8"/>
      </defs>
      <g>
       <use xlink:href="#m680157fd59" x="103.827273" y="372.24" style="stroke: #000000; stroke-width: 0.8"/>
      </g>
     </g>
    </g>
    <g id="xtick_2">
     <g id="line2d_3">
      <path d="M 161.182229 372.24 
L 161.182229 95.04 
" clip-path="url(#p58457c78da)" style="fill: none; stroke: #b0b0b0; stroke-width: 0.8; stroke-linecap: square"/>
     </g>
     <g id="line2d_4">
      <g>
       <use xlink:href="#m680157fd59" x="161.182229" y="372.24" style="stroke: #000000; stroke-width: 0.8"/>
      </g>
     </g>
    </g>
    <g id="xtick_3">
     <g id="line2d_5">
      <path d="M 218.537186 372.24 
L 218.537186 95.04 
" clip-path="url(#p58457c78da)" style="fill: none; stroke: #b0b0b0; stroke-width: 0.8; stroke-linecap: square"/>
     </g>
     <g id="line2d_6">
      <g>
       <use xlink:href="#m680157fd59" x="218.537186" y="372.24" style="stroke: #000000; stroke-width: 0.8"/>
      </g>
     </g>
    </g>
    <g id="xtick_4">
     <g id="line2d_7">
      <path d="M 275.892143 372.24 
L 275.892143 95.04 
" clip-path="url(#p58457c78da)" style="fill: none; stroke: #b0b0b0; stroke-width: 0.8; stroke-linecap: square"/>
     </g>
     <g id="line2d_8">
      <g>
       <use xlink:href="#m680157fd59" x="275.892143" y="372.24" style="stroke: #000000; stroke-width: 0.8"/>
      </g>
     </g>
    </g>
    <g id="xtick_5">
     <g id="line2d_9">
      <path d="M 333.247099 372.24 
L 333.247099 95.04 
" clip-path="url(#p58457c78da)" style="fill: none; stroke: #b0b0b0; stroke-width: 0.8; stroke-linecap: square"/>
     </g>
     <g id="line2d_10">
      <g>
       <use xlink:href="#m680157fd59" x="333.247099" y="372.24" style="stroke: #000000; stroke-width: 0.8"/>
      </g>
     </g>
    </g>
    <g id="xtick_6">
     <g id="line2d_11">
      <path d="M 390.602056 372.24 
L 390.602056 95.04 
" clip-path="url(#p58457c78da)" style="fill: none; stroke: #b0b0b0; stroke-width: 0.8; stroke-linecap: square"/>
     </g>
     <g id="line2d_12">
      <g>
       <use xlink:href="#m680157fd59" x="390.602056" y="372.24" style="stroke: #000000; stroke-width: 0.8"/>
      </g>
     </g>
    </g>
    <g id="xtick_7">
     <g id="line2d_13">
      <path d="M 447.957012 372.24 
L 447.957012 95.04 
" clip-path="url(#p58457c78da)" style="fill: none; stroke: #b0b0b0; stroke-width: 0.8; stroke-linecap: square"/>
     </g>
     <g id="line2d_14">
      <g>
       <use xlink:href="#m680157fd59" x="447.957012" y="372.24" style="stroke: #000000; stroke-width: 0.8"/>
      </g>
     </g>
    </g>
    <g id="xtick_8">
     <g id="line2d_15">
      <path d="M 505.311969 372.24 
L 505.311969 95.04 
" clip-path="url(#p58457c78da)" style="fill: none; stroke: #b0b0b0; stroke-width: 0.8; stroke-linecap: square"/>
     </g>
     <g id="line2d_16">
      <g>
       <use xlink:href="#m680157fd59" x="505.311969" y="372.24" style="stroke: #000000; stroke-width: 0.8"/>
      </g>
     </g>
    </g>
    <g id="xtick_9">
     <g id="line2d_17">
      <path d="M 562.666926 372.24 
L 562.666926 95.04 
" clip-path="url(#p58457c78da)" style="fill: none; stroke: #b0b0b0; stroke-width: 0.8; stroke-linecap: square"/>
     </g>
     <g id="line2d_18">
      <g>
       <use xlink:href="#m680157fd59" x="562.666926" y="372.24" style="stroke: #000000; stroke-width: 0.8"/>
      </g>
     </g>
    </g>
    <g id="text_1">
     <!-- Energy of Photon [eV] -->
     <g transform="translate(222.254688 394.936875) scale(0.2 -0.2)">
      <defs>
       <path id="DejaVuSans-45" d="M 628 4666 
L 3578 4666 
L 3578 4134 
L 1259 4134 
L 1259 2753 
L 3481 2753 
L 3481 2222 
L 1259 2222 
L 1259 531 
L 3634 531 
L 3634 0 
L 628 0 
L 628 4666 
z
" transform="scale(0.015625)"/>
       <path id="DejaVuSans-6e" d="M 3513 2113 
L 3513 0 
L 2938 0 
L 2938 2094 
Q 2938 2591 2744 2837 
Q 2550 3084 2163 3084 
Q 1697 3084 1428 2787 
Q 1159 2491 1159 1978 
L 1159 0 
L 581 0 
L 581 3500 
L 1159 3500 
L 1159 2956 
Q 1366 3272 1645 3428 
Q 1925 3584 2291 3584 
Q 2894 3584 3203 3211 
Q 3513 2838 3513 2113 
z
" transform="scale(0.015625)"/>
       <path id="DejaVuSans-65" d="M 3597 1894 
L 3597 1613 
L 953 1613 
Q 991 1019 1311 708 
Q 1631 397 2203 397 
Q 2534 397 2845 478 
Q 3156 559 3463 722 
L 3463 178 
Q 3153 47 2828 -22 
Q 2503 -91 2169 -91 
Q 1331 -91 842 396 
Q 353 884 353 1716 
Q 353 2575 817 3079 
Q 1281 3584 2069 3584 
Q 2775 3584 3186 3129 
Q 3597 2675 3597 1894 
z
M 3022 2063 
Q 3016 2534 2758 2815 
Q 2500 3097 2075 3097 
Q 1594 3097 1305 2825 
Q 1016 2553 972 2059 
L 3022 2063 
z
" transform="scale(0.015625)"/>
       <path id="DejaVuSans-72" d="M 2631 2963 
Q 2534 3019 2420 3045 
Q 2306 3072 2169 3072 
Q 1681 3072 1420 2755 
Q 1159 2438 1159 1844 
L 1159 0 
L 581 0 
L 581 3500 
L 1159 3500 
L 1159 2956 
Q 1341 3275 1631 3429 
Q 1922 3584 2338 3584 
Q 2397 3584 2469 3576 
Q 2541 3569 2628 3553 
L 2631 2963 
z
" transform="scale(0.015625)"/>
       <path id="DejaVuSans-67" d="M 2906 1791 
Q 2906 2416 2648 2759 
Q 2391 3103 1925 3103 
Q 1463 3103 1205 2759 
Q 947 2416 947 1791 
Q 947 1169 1205 825 
Q 1463 481 1925 481 
Q 2391 481 2648 825 
Q 2906 1169 2906 1791 
z
M 3481 434 
Q 3481 -459 3084 -895 
Q 2688 -1331 1869 -1331 
Q 1566 -1331 1297 -1286 
Q 1028 -1241 775 -1147 
L 775 -588 
Q 1028 -725 1275 -790 
Q 1522 -856 1778 -856 
Q 2344 -856 2625 -561 
Q 2906 -266 2906 331 
L 2906 616 
Q 2728 306 2450 153 
Q 2172 0 1784 0 
Q 1141 0 747 490 
Q 353 981 353 1791 
Q 353 2603 747 3093 
Q 1141 3584 1784 3584 
Q 2172 3584 2450 3431 
Q 2728 3278 2906 2969 
L 2906 3500 
L 3481 3500 
L 3481 434 
z
" transform="scale(0.015625)"/>
       <path id="DejaVuSans-79" d="M 2059 -325 
Q 1816 -950 1584 -1140 
Q 1353 -1331 966 -1331 
L 506 -1331 
L 506 -850 
L 844 -850 
Q 1081 -850 1212 -737 
Q 1344 -625 1503 -206 
L 1606 56 
L 191 3500 
L 800 3500 
L 1894 763 
L 2988 3500 
L 3597 3500 
L 2059 -325 
z
" transform="scale(0.015625)"/>
       <path id="DejaVuSans-20" transform="scale(0.015625)"/>
       <path id="DejaVuSans-6f" d="M 1959 3097 
Q 1497 3097 1228 2736 
Q 959 2375 959 1747 
Q 959 1119 1226 758 
Q 1494 397 1959 397 
Q 2419 397 2687 759 
Q 2956 1122 2956 1747 
Q 2956 2369 2687 2733 
Q 2419 3097 1959 3097 
z
M 1959 3584 
Q 2709 3584 3137 3096 
Q 3566 2609 3566 1747 
Q 3566 888 3137 398 
Q 2709 -91 1959 -91 
Q 1206 -91 779 398 
Q 353 888 353 1747 
Q 353 2609 779 3096 
Q 1206 3584 1959 3584 
z
" transform="scale(0.015625)"/>
       <path id="DejaVuSans-66" d="M 2375 4863 
L 2375 4384 
L 1825 4384 
Q 1516 4384 1395 4259 
Q 1275 4134 1275 3809 
L 1275 3500 
L 2222 3500 
L 2222 3053 
L 1275 3053 
L 1275 0 
L 697 0 
L 697 3053 
L 147 3053 
L 147 3500 
L 697 3500 
L 697 3744 
Q 697 4328 969 4595 
Q 1241 4863 1831 4863 
L 2375 4863 
z
" transform="scale(0.015625)"/>
       <path id="DejaVuSans-50" d="M 1259 4147 
L 1259 2394 
L 2053 2394 
Q 2494 2394 2734 2622 
Q 2975 2850 2975 3272 
Q 2975 3691 2734 3919 
Q 2494 4147 2053 4147 
L 1259 4147 
z
M 628 4666 
L 2053 4666 
Q 2838 4666 3239 4311 
Q 3641 3956 3641 3272 
Q 3641 2581 3239 2228 
Q 2838 1875 2053 1875 
L 1259 1875 
L 1259 0 
L 628 0 
L 628 4666 
z
" transform="scale(0.015625)"/>
       <path id="DejaVuSans-68" d="M 3513 2113 
L 3513 0 
L 2938 0 
L 2938 2094 
Q 2938 2591 2744 2837 
Q 2550 3084 2163 3084 
Q 1697 3084 1428 2787 
Q 1159 2491 1159 1978 
L 1159 0 
L 581 0 
L 581 4863 
L 1159 4863 
L 1159 2956 
Q 1366 3272 1645 3428 
Q 1925 3584 2291 3584 
Q 2894 3584 3203 3211 
Q 3513 2838 3513 2113 
z
" transform="scale(0.015625)"/>
       <path id="DejaVuSans-74" d="M 1172 4494 
L 1172 3500 
L 2356 3500 
L 2356 3053 
L 1172 3053 
L 1172 1153 
Q 1172 725 1289 603 
Q 1406 481 1766 481 
L 2356 481 
L 2356 0 
L 1766 0 
Q 1100 0 847 248 
Q 594 497 594 1153 
L 594 3053 
L 172 3053 
L 172 3500 
L 594 3500 
L 594 4494 
L 1172 4494 
z
" transform="scale(0.015625)"/>
       <path id="DejaVuSans-5b" d="M 550 4863 
L 1875 4863 
L 1875 4416 
L 1125 4416 
L 1125 -397 
L 1875 -397 
L 1875 -844 
L 550 -844 
L 550 4863 
z
" transform="scale(0.015625)"/>
       <path id="DejaVuSans-56" d="M 1831 0 
L 50 4666 
L 709 4666 
L 2188 738 
L 3669 4666 
L 4325 4666 
L 2547 0 
L 1831 0 
z
" transform="scale(0.015625)"/>
       <path id="DejaVuSans-5d" d="M 1947 4863 
L 1947 -844 
L 622 -844 
L 622 -397 
L 1369 -397 
L 1369 4416 
L 622 4416 
L 622 4863 
L 1947 4863 
z
" transform="scale(0.015625)"/>
      </defs>
      <use xlink:href="#DejaVuSans-45"/>
      <use xlink:href="#DejaVuSans-6e" x="63.183594"/>
      <use xlink:href="#DejaVuSans-65" x="126.5625"/>
      <use xlink:href="#DejaVuSans-72" x="188.085938"/>
      <use xlink:href="#DejaVuSans-67" x="227.449219"/>
      <use xlink:href="#DejaVuSans-79" x="290.925781"/>
      <use xlink:href="#DejaVuSans-20" x="350.105469"/>
      <use xlink:href="#DejaVuSans-6f" x="381.892578"/>
      <use xlink:href="#DejaVuSans-66" x="443.074219"/>
      <use xlink:href="#DejaVuSans-20" x="478.279297"/>
      <use xlink:href="#DejaVuSans-50" x="510.066406"/>
      <use xlink:href="#DejaVuSans-68" x="570.369141"/>
      <use xlink:href="#DejaVuSans-6f" x="633.748047"/>
      <use xlink:href="#DejaVuSans-74" x="694.929688"/>
      <use xlink:href="#DejaVuSans-6f" x="734.138672"/>
      <use xlink:href="#DejaVuSans-6e" x="795.320312"/>
      <use xlink:href="#DejaVuSans-20" x="858.699219"/>
      <use xlink:href="#DejaVuSans-5b" x="890.486328"/>
      <use xlink:href="#DejaVuSans-65" x="929.5"/>
      <use xlink:href="#DejaVuSans-56" x="991.023438"/>
      <use xlink:href="#DejaVuSans-5d" x="1059.431641"/>
     </g>
    </g>
   </g>
   <g id="matplotlib.axis_2">
    <g id="ytick_1">
     <g id="line2d_19">
      <path d="M 81 356.789156 
L 583.2 356.789156 
" clip-path="url(#p58457c78da)" style="fill: none; stroke: #b0b0b0; stroke-width: 0.8; stroke-linecap: square"/>
     </g>
     <g id="line2d_20">
      <defs>
       <path id="mcc34f3e55f" d="M 0 0 
L -3.5 0 
" style="stroke: #000000; stroke-width: 0.8"/>
      </defs>
      <g>
       <use xlink:href="#mcc34f3e55f" x="81" y="356.789156" style="stroke: #000000; stroke-width: 0.8"/>
      </g>
     </g>
     <g id="text_2">
      <!-- −40 -->
      <g transform="translate(52.895313 360.588375) scale(0.1 -0.1)">
       <defs>
        <path id="DejaVuSans-2212" d="M 678 2272 
L 4684 2272 
L 4684 1741 
L 678 1741 
L 678 2272 
z
" transform="scale(0.015625)"/>
        <path id="DejaVuSans-34" d="M 2419 4116 
L 825 1625 
L 2419 1625 
L 2419 4116 
z
M 2253 4666 
L 3047 4666 
L 3047 1625 
L 3713 1625 
L 3713 1100 
L 3047 1100 
L 3047 0 
L 2419 0 
L 2419 1100 
L 313 1100 
L 313 1709 
L 2253 4666 
z
" transform="scale(0.015625)"/>
        <path id="DejaVuSans-30" d="M 2034 4250 
Q 1547 4250 1301 3770 
Q 1056 3291 1056 2328 
Q 1056 1369 1301 889 
Q 1547 409 2034 409 
Q 2525 409 2770 889 
Q 3016 1369 3016 2328 
Q 3016 3291 2770 3770 
Q 2525 4250 2034 4250 
z
M 2034 4750 
Q 2819 4750 3233 4129 
Q 3647 3509 3647 2328 
Q 3647 1150 3233 529 
Q 2819 -91 2034 -91 
Q 1250 -91 836 529 
Q 422 1150 422 2328 
Q 422 3509 836 4129 
Q 1250 4750 2034 4750 
z
" transform="scale(0.015625)"/>
       </defs>
       <use xlink:href="#DejaVuSans-2212"/>
       <use xlink:href="#DejaVuSans-34" x="83.789062"/>
       <use xlink:href="#DejaVuSans-30" x="147.412109"/>
      </g>
     </g>
    </g>
    <g id="ytick_2">
     <g id="line2d_21">
      <path d="M 81 320.837959 
L 583.2 320.837959 
" clip-path="url(#p58457c78da)" style="fill: none; stroke: #b0b0b0; stroke-width: 0.8; stroke-linecap: square"/>
     </g>
     <g id="line2d_22">
      <g>
       <use xlink:href="#mcc34f3e55f" x="81" y="320.837959" style="stroke: #000000; stroke-width: 0.8"/>
      </g>
     </g>
     <g id="text_3">
      <!-- −20 -->
      <g transform="translate(52.895313 324.637178) scale(0.1 -0.1)">
       <defs>
        <path id="DejaVuSans-32" d="M 1228 531 
L 3431 531 
L 3431 0 
L 469 0 
L 469 531 
Q 828 903 1448 1529 
Q 2069 2156 2228 2338 
Q 2531 2678 2651 2914 
Q 2772 3150 2772 3378 
Q 2772 3750 2511 3984 
Q 2250 4219 1831 4219 
Q 1534 4219 1204 4116 
Q 875 4013 500 3803 
L 500 4441 
Q 881 4594 1212 4672 
Q 1544 4750 1819 4750 
Q 2544 4750 2975 4387 
Q 3406 4025 3406 3419 
Q 3406 3131 3298 2873 
Q 3191 2616 2906 2266 
Q 2828 2175 2409 1742 
Q 1991 1309 1228 531 
z
" transform="scale(0.015625)"/>
       </defs>
       <use xlink:href="#DejaVuSans-2212"/>
       <use xlink:href="#DejaVuSans-32" x="83.789062"/>
       <use xlink:href="#DejaVuSans-30" x="147.412109"/>
      </g>
     </g>
    </g>
    <g id="ytick_3">
     <g id="line2d_23">
      <path d="M 81 284.886761 
L 583.2 284.886761 
" clip-path="url(#p58457c78da)" style="fill: none; stroke: #b0b0b0; stroke-width: 0.8; stroke-linecap: square"/>
     </g>
     <g id="line2d_24">
      <g>
       <use xlink:href="#mcc34f3e55f" x="81" y="284.886761" style="stroke: #000000; stroke-width: 0.8"/>
      </g>
     </g>
     <g id="text_4">
      <!-- 0 -->
      <g transform="translate(67.6375 288.68598) scale(0.1 -0.1)">
       <use xlink:href="#DejaVuSans-30"/>
      </g>
     </g>
    </g>
    <g id="ytick_4">
     <g id="line2d_25">
      <path d="M 81 248.935564 
L 583.2 248.935564 
" clip-path="url(#p58457c78da)" style="fill: none; stroke: #b0b0b0; stroke-width: 0.8; stroke-linecap: square"/>
     </g>
     <g id="line2d_26">
      <g>
       <use xlink:href="#mcc34f3e55f" x="81" y="248.935564" style="stroke: #000000; stroke-width: 0.8"/>
      </g>
     </g>
     <g id="text_5">
      <!-- 20 -->
      <g transform="translate(61.275 252.734783) scale(0.1 -0.1)">
       <use xlink:href="#DejaVuSans-32"/>
       <use xlink:href="#DejaVuSans-30" x="63.623047"/>
      </g>
     </g>
    </g>
    <g id="ytick_5">
     <g id="line2d_27">
      <path d="M 81 212.984367 
L 583.2 212.984367 
" clip-path="url(#p58457c78da)" style="fill: none; stroke: #b0b0b0; stroke-width: 0.8; stroke-linecap: square"/>
     </g>
     <g id="line2d_28">
      <g>
       <use xlink:href="#mcc34f3e55f" x="81" y="212.984367" style="stroke: #000000; stroke-width: 0.8"/>
      </g>
     </g>
     <g id="text_6">
      <!-- 40 -->
      <g transform="translate(61.275 216.783585) scale(0.1 -0.1)">
       <use xlink:href="#DejaVuSans-34"/>
       <use xlink:href="#DejaVuSans-30" x="63.623047"/>
      </g>
     </g>
    </g>
    <g id="ytick_6">
     <g id="line2d_29">
      <path d="M 81 177.033169 
L 583.2 177.033169 
" clip-path="url(#p58457c78da)" style="fill: none; stroke: #b0b0b0; stroke-width: 0.8; stroke-linecap: square"/>
     </g>
     <g id="line2d_30">
      <g>
       <use xlink:href="#mcc34f3e55f" x="81" y="177.033169" style="stroke: #000000; stroke-width: 0.8"/>
      </g>
     </g>
     <g id="text_7">
      <!-- 60 -->
      <g transform="translate(61.275 180.832388) scale(0.1 -0.1)">
       <defs>
        <path id="DejaVuSans-36" d="M 2113 2584 
Q 1688 2584 1439 2293 
Q 1191 2003 1191 1497 
Q 1191 994 1439 701 
Q 1688 409 2113 409 
Q 2538 409 2786 701 
Q 3034 994 3034 1497 
Q 3034 2003 2786 2293 
Q 2538 2584 2113 2584 
z
M 3366 4563 
L 3366 3988 
Q 3128 4100 2886 4159 
Q 2644 4219 2406 4219 
Q 1781 4219 1451 3797 
Q 1122 3375 1075 2522 
Q 1259 2794 1537 2939 
Q 1816 3084 2150 3084 
Q 2853 3084 3261 2657 
Q 3669 2231 3669 1497 
Q 3669 778 3244 343 
Q 2819 -91 2113 -91 
Q 1303 -91 875 529 
Q 447 1150 447 2328 
Q 447 3434 972 4092 
Q 1497 4750 2381 4750 
Q 2619 4750 2861 4703 
Q 3103 4656 3366 4563 
z
" transform="scale(0.015625)"/>
       </defs>
       <use xlink:href="#DejaVuSans-36"/>
       <use xlink:href="#DejaVuSans-30" x="63.623047"/>
      </g>
     </g>
    </g>
    <g id="ytick_7">
     <g id="line2d_31">
      <path d="M 81 141.081972 
L 583.2 141.081972 
" clip-path="url(#p58457c78da)" style="fill: none; stroke: #b0b0b0; stroke-width: 0.8; stroke-linecap: square"/>
     </g>
     <g id="line2d_32">
      <g>
       <use xlink:href="#mcc34f3e55f" x="81" y="141.081972" style="stroke: #000000; stroke-width: 0.8"/>
      </g>
     </g>
     <g id="text_8">
      <!-- 80 -->
      <g transform="translate(61.275 144.881191) scale(0.1 -0.1)">
       <defs>
        <path id="DejaVuSans-38" d="M 2034 2216 
Q 1584 2216 1326 1975 
Q 1069 1734 1069 1313 
Q 1069 891 1326 650 
Q 1584 409 2034 409 
Q 2484 409 2743 651 
Q 3003 894 3003 1313 
Q 3003 1734 2745 1975 
Q 2488 2216 2034 2216 
z
M 1403 2484 
Q 997 2584 770 2862 
Q 544 3141 544 3541 
Q 544 4100 942 4425 
Q 1341 4750 2034 4750 
Q 2731 4750 3128 4425 
Q 3525 4100 3525 3541 
Q 3525 3141 3298 2862 
Q 3072 2584 2669 2484 
Q 3125 2378 3379 2068 
Q 3634 1759 3634 1313 
Q 3634 634 3220 271 
Q 2806 -91 2034 -91 
Q 1263 -91 848 271 
Q 434 634 434 1313 
Q 434 1759 690 2068 
Q 947 2378 1403 2484 
z
M 1172 3481 
Q 1172 3119 1398 2916 
Q 1625 2713 2034 2713 
Q 2441 2713 2670 2916 
Q 2900 3119 2900 3481 
Q 2900 3844 2670 4047 
Q 2441 4250 2034 4250 
Q 1625 4250 1398 4047 
Q 1172 3844 1172 3481 
z
" transform="scale(0.015625)"/>
       </defs>
       <use xlink:href="#DejaVuSans-38"/>
       <use xlink:href="#DejaVuSans-30" x="63.623047"/>
      </g>
     </g>
    </g>
    <g id="ytick_8">
     <g id="line2d_33">
      <path d="M 81 105.130774 
L 583.2 105.130774 
" clip-path="url(#p58457c78da)" style="fill: none; stroke: #b0b0b0; stroke-width: 0.8; stroke-linecap: square"/>
     </g>
     <g id="line2d_34">
      <g>
       <use xlink:href="#mcc34f3e55f" x="81" y="105.130774" style="stroke: #000000; stroke-width: 0.8"/>
      </g>
     </g>
     <g id="text_9">
      <!-- 100 -->
      <g transform="translate(54.9125 108.929993) scale(0.1 -0.1)">
       <defs>
        <path id="DejaVuSans-31" d="M 794 531 
L 1825 531 
L 1825 4091 
L 703 3866 
L 703 4441 
L 1819 4666 
L 2450 4666 
L 2450 531 
L 3481 531 
L 3481 0 
L 794 0 
L 794 531 
z
" transform="scale(0.015625)"/>
       </defs>
       <use xlink:href="#DejaVuSans-31"/>
       <use xlink:href="#DejaVuSans-30" x="63.623047"/>
       <use xlink:href="#DejaVuSans-30" x="127.246094"/>
      </g>
     </g>
    </g>
    <g id="text_10">
     <!-- $Re\{\sigma^{(2)}_{yxx}\} \: 10^{17} [m. A/(Vs)^2]$  -->
     <g transform="translate(43.065712 323.7212) rotate(-90) scale(0.1388 -0.1388)">
      <defs>
       <path id="DejaVuSans-Oblique-52" d="M 1613 4147 
L 1294 2491 
L 2106 2491 
Q 2584 2491 2879 2755 
Q 3175 3019 3175 3444 
Q 3175 3784 2976 3965 
Q 2778 4147 2406 4147 
L 1613 4147 
z
M 2772 2241 
Q 2972 2194 3105 2009 
Q 3238 1825 3413 1275 
L 3809 0 
L 3144 0 
L 2778 1197 
Q 2638 1659 2453 1815 
Q 2269 1972 1888 1972 
L 1191 1972 
L 806 0 
L 172 0 
L 1081 4666 
L 2503 4666 
Q 3150 4666 3495 4373 
Q 3841 4081 3841 3531 
Q 3841 3044 3547 2687 
Q 3253 2331 2772 2241 
z
" transform="scale(0.015625)"/>
       <path id="DejaVuSans-Oblique-65" d="M 3078 2063 
Q 3088 2113 3092 2166 
Q 3097 2219 3097 2272 
Q 3097 2653 2873 2875 
Q 2650 3097 2266 3097 
Q 1838 3097 1509 2826 
Q 1181 2556 1013 2059 
L 3078 2063 
z
M 3578 1613 
L 903 1613 
Q 884 1494 878 1425 
Q 872 1356 872 1306 
Q 872 872 1139 634 
Q 1406 397 1894 397 
Q 2269 397 2603 481 
Q 2938 566 3225 728 
L 3116 159 
Q 2806 34 2476 -28 
Q 2147 -91 1806 -91 
Q 1078 -91 686 257 
Q 294 606 294 1247 
Q 294 1794 489 2264 
Q 684 2734 1063 3103 
Q 1306 3334 1642 3459 
Q 1978 3584 2356 3584 
Q 2950 3584 3301 3228 
Q 3653 2872 3653 2272 
Q 3653 2128 3634 1964 
Q 3616 1800 3578 1613 
z
" transform="scale(0.015625)"/>
       <path id="DejaVuSans-7b" d="M 3272 -594 
L 3272 -1044 
L 3078 -1044 
Q 2300 -1044 2036 -812 
Q 1772 -581 1772 109 
L 1772 856 
Q 1772 1328 1603 1509 
Q 1434 1691 991 1691 
L 800 1691 
L 800 2138 
L 991 2138 
Q 1438 2138 1605 2317 
Q 1772 2497 1772 2963 
L 1772 3713 
Q 1772 4403 2036 4633 
Q 2300 4863 3078 4863 
L 3272 4863 
L 3272 4416 
L 3059 4416 
Q 2619 4416 2484 4278 
Q 2350 4141 2350 3700 
L 2350 2925 
Q 2350 2434 2208 2212 
Q 2066 1991 1722 1913 
Q 2069 1828 2209 1606 
Q 2350 1384 2350 897 
L 2350 122 
Q 2350 -319 2484 -456 
Q 2619 -594 3059 -594 
L 3272 -594 
z
" transform="scale(0.015625)"/>
       <path id="DejaVuSans-Oblique-3c3" d="M 2219 3044 
Q 1744 3044 1422 2700 
Q 1081 2341 969 1747 
Q 844 1119 1044 756 
Q 1241 397 1706 397 
Q 2166 397 2503 759 
Q 2844 1122 2966 1747 
Q 3075 2319 2881 2700 
Q 2700 3044 2219 3044 
z
M 2309 3503 
L 4219 3500 
L 4106 2925 
L 3463 2925 
Q 3706 2438 3575 1747 
Q 3406 888 2884 400 
Q 2359 -91 1609 -91 
Q 856 -91 525 400 
Q 194 888 363 1747 
Q 528 2609 1050 3097 
Q 1484 3503 2309 3503 
z
" transform="scale(0.015625)"/>
       <path id="DejaVuSans-28" d="M 1984 4856 
Q 1566 4138 1362 3434 
Q 1159 2731 1159 2009 
Q 1159 1288 1364 580 
Q 1569 -128 1984 -844 
L 1484 -844 
Q 1016 -109 783 600 
Q 550 1309 550 2009 
Q 550 2706 781 3412 
Q 1013 4119 1484 4856 
L 1984 4856 
z
" transform="scale(0.015625)"/>
       <path id="DejaVuSans-29" d="M 513 4856 
L 1013 4856 
Q 1481 4119 1714 3412 
Q 1947 2706 1947 2009 
Q 1947 1309 1714 600 
Q 1481 -109 1013 -844 
L 513 -844 
Q 928 -128 1133 580 
Q 1338 1288 1338 2009 
Q 1338 2731 1133 3434 
Q 928 4138 513 4856 
z
" transform="scale(0.015625)"/>
       <path id="DejaVuSans-Oblique-79" d="M 1588 -325 
Q 1188 -997 936 -1164 
Q 684 -1331 294 -1331 
L -159 -1331 
L -63 -850 
L 269 -850 
Q 509 -850 678 -719 
Q 847 -588 1056 -206 
L 1234 128 
L 459 3500 
L 1069 3500 
L 1650 819 
L 3256 3500 
L 3859 3500 
L 1588 -325 
z
" transform="scale(0.015625)"/>
       <path id="DejaVuSans-Oblique-78" d="M 3841 3500 
L 2234 1784 
L 3219 0 
L 2559 0 
L 1819 1388 
L 531 0 
L -166 0 
L 1556 1844 
L 641 3500 
L 1300 3500 
L 1972 2234 
L 3144 3500 
L 3841 3500 
z
" transform="scale(0.015625)"/>
       <path id="DejaVuSans-7d" d="M 800 -594 
L 1019 -594 
Q 1456 -594 1589 -459 
Q 1722 -325 1722 122 
L 1722 897 
Q 1722 1384 1862 1606 
Q 2003 1828 2350 1913 
Q 2003 1991 1862 2212 
Q 1722 2434 1722 2925 
L 1722 3700 
Q 1722 4144 1589 4280 
Q 1456 4416 1019 4416 
L 800 4416 
L 800 4863 
L 997 4863 
Q 1775 4863 2036 4633 
Q 2297 4403 2297 3713 
L 2297 2963 
Q 2297 2497 2465 2317 
Q 2634 2138 3078 2138 
L 3272 2138 
L 3272 1691 
L 3078 1691 
Q 2634 1691 2465 1509 
Q 2297 1328 2297 856 
L 2297 109 
Q 2297 -581 2036 -812 
Q 1775 -1044 997 -1044 
L 800 -1044 
L 800 -594 
z
" transform="scale(0.015625)"/>
       <path id="DejaVuSans-37" d="M 525 4666 
L 3525 4666 
L 3525 4397 
L 1831 0 
L 1172 0 
L 2766 4134 
L 525 4134 
L 525 4666 
z
" transform="scale(0.015625)"/>
       <path id="DejaVuSans-Oblique-6d" d="M 5747 2113 
L 5338 0 
L 4763 0 
L 5166 2094 
Q 5191 2228 5203 2325 
Q 5216 2422 5216 2491 
Q 5216 2772 5059 2928 
Q 4903 3084 4622 3084 
Q 4203 3084 3875 2770 
Q 3547 2456 3450 1953 
L 3066 0 
L 2491 0 
L 2900 2094 
Q 2925 2209 2937 2307 
Q 2950 2406 2950 2484 
Q 2950 2769 2794 2926 
Q 2638 3084 2363 3084 
Q 1938 3084 1609 2770 
Q 1281 2456 1184 1953 
L 800 0 
L 225 0 
L 909 3500 
L 1484 3500 
L 1375 2956 
Q 1609 3263 1923 3423 
Q 2238 3584 2597 3584 
Q 2978 3584 3223 3384 
Q 3469 3184 3519 2828 
Q 3781 3197 4126 3390 
Q 4472 3584 4856 3584 
Q 5306 3584 5551 3325 
Q 5797 3066 5797 2591 
Q 5797 2488 5784 2364 
Q 5772 2241 5747 2113 
z
" transform="scale(0.015625)"/>
       <path id="DejaVuSans-2e" d="M 684 794 
L 1344 794 
L 1344 0 
L 684 0 
L 684 794 
z
" transform="scale(0.015625)"/>
       <path id="DejaVuSans-Oblique-41" d="M 2356 4666 
L 3072 4666 
L 3938 0 
L 3278 0 
L 3084 1197 
L 984 1197 
L 325 0 
L -341 0 
L 2356 4666 
z
M 2584 4044 
L 1275 1722 
L 2988 1722 
L 2584 4044 
z
" transform="scale(0.015625)"/>
       <path id="DejaVuSans-2f" d="M 1625 4666 
L 2156 4666 
L 531 -594 
L 0 -594 
L 1625 4666 
z
" transform="scale(0.015625)"/>
       <path id="DejaVuSans-Oblique-56" d="M 1319 0 
L 500 4666 
L 1119 4666 
L 1797 653 
L 4063 4666 
L 4750 4666 
L 2053 0 
L 1319 0 
z
" transform="scale(0.015625)"/>
       <path id="DejaVuSans-Oblique-73" d="M 3200 3397 
L 3091 2853 
Q 2863 2978 2609 3040 
Q 2356 3103 2088 3103 
Q 1634 3103 1373 2948 
Q 1113 2794 1113 2528 
Q 1113 2219 1719 2053 
Q 1766 2041 1788 2034 
L 1972 1978 
Q 2547 1819 2739 1644 
Q 2931 1469 2931 1166 
Q 2931 609 2489 259 
Q 2047 -91 1331 -91 
Q 1053 -91 747 -37 
Q 441 16 72 128 
L 184 722 
Q 500 559 806 475 
Q 1113 391 1394 391 
Q 1816 391 2080 572 
Q 2344 753 2344 1031 
Q 2344 1331 1650 1516 
L 1591 1531 
L 1394 1581 
Q 956 1697 753 1886 
Q 550 2075 550 2369 
Q 550 2928 970 3256 
Q 1391 3584 2113 3584 
Q 2397 3584 2667 3537 
Q 2938 3491 3200 3397 
z
" transform="scale(0.015625)"/>
      </defs>
      <use xlink:href="#DejaVuSans-Oblique-52" transform="translate(0 0.60625)"/>
      <use xlink:href="#DejaVuSans-Oblique-65" transform="translate(69.482422 0.60625)"/>
      <use xlink:href="#DejaVuSans-7b" transform="translate(131.005859 0.60625)"/>
      <use xlink:href="#DejaVuSans-Oblique-3c3" transform="translate(194.628906 0.60625)"/>
      <use xlink:href="#DejaVuSans-28" transform="translate(262.480521 38.8875) scale(0.7)"/>
      <use xlink:href="#DejaVuSans-32" transform="translate(289.790091 38.8875) scale(0.7)"/>
      <use xlink:href="#DejaVuSans-29" transform="translate(334.326224 38.8875) scale(0.7)"/>
      <use xlink:href="#DejaVuSans-Oblique-79" transform="translate(258.007812 -26.7375) scale(0.7)"/>
      <use xlink:href="#DejaVuSans-Oblique-78" transform="translate(299.433594 -26.7375) scale(0.7)"/>
      <use xlink:href="#DejaVuSans-Oblique-78" transform="translate(340.859375 -26.7375) scale(0.7)"/>
      <use xlink:href="#DejaVuSans-7d" transform="translate(385.019531 0.60625)"/>
      <use xlink:href="#DejaVuSans-31" transform="translate(470.289497 0.60625)"/>
      <use xlink:href="#DejaVuSans-30" transform="translate(533.912544 0.60625)"/>
      <use xlink:href="#DejaVuSans-31" transform="translate(598.492622 38.8875) scale(0.7)"/>
      <use xlink:href="#DejaVuSans-37" transform="translate(643.028755 38.8875) scale(0.7)"/>
      <use xlink:href="#DejaVuSans-5b" transform="translate(690.299263 0.60625)"/>
      <use xlink:href="#DejaVuSans-Oblique-6d" transform="translate(729.312935 0.60625)"/>
      <use xlink:href="#DejaVuSans-2e" transform="translate(826.725044 0.60625)"/>
      <use xlink:href="#DejaVuSans-Oblique-41" transform="translate(877.994575 0.60625)"/>
      <use xlink:href="#DejaVuSans-2f" transform="translate(946.402778 0.60625)"/>
      <use xlink:href="#DejaVuSans-28" transform="translate(980.094185 0.60625)"/>
      <use xlink:href="#DejaVuSans-Oblique-56" transform="translate(1019.107856 0.60625)"/>
      <use xlink:href="#DejaVuSans-Oblique-73" transform="translate(1087.51606 0.60625)"/>
      <use xlink:href="#DejaVuSans-29" transform="translate(1139.615669 0.60625)"/>
      <use xlink:href="#DejaVuSans-32" transform="translate(1179.586372 38.8875) scale(0.7)"/>
      <use xlink:href="#DejaVuSans-5d" transform="translate(1226.85688 0.60625)"/>
      <use xlink:href="#DejaVuSans-20" transform="translate(1265.870552 0.60625)"/>
     </g>
    </g>
   </g>
   <g id="line2d_35">
    <path d="M 103.827273 284.83822 
L 213.948789 284.935404 
L 239.18497 285.143241 
L 252.95016 285.448162 
L 262.126953 285.875433 
L 266.715349 286.240569 
L 271.303746 286.805666 
L 273.597944 287.211961 
L 275.892143 287.745971 
L 278.186341 288.460571 
L 280.480539 289.423531 
L 282.774737 290.69255 
L 291.95153 296.79654 
L 296.539927 299.299442 
L 298.834125 300.698937 
L 305.71672 305.346972 
L 308.010918 306.42253 
L 310.305116 307.140747 
L 312.599315 307.573645 
L 314.893513 307.794306 
L 317.187711 307.856229 
L 321.776108 307.641389 
L 326.364504 307.098721 
L 330.952901 306.300656 
L 335.541297 305.273253 
L 340.129694 304.01652 
L 344.71809 302.511829 
L 349.306487 300.723013 
L 353.894884 298.592756 
L 358.48328 296.033772 
L 360.777478 294.552349 
L 363.071677 292.911419 
L 365.365875 291.074079 
L 367.660073 289.009246 
L 369.954271 286.657362 
L 372.24847 283.957914 
L 374.542668 280.806483 
L 376.836866 277.07808 
L 379.131064 272.5692 
L 381.425263 267.003047 
L 383.719461 259.942891 
L 386.013659 250.760055 
L 388.307857 238.565003 
L 390.602056 222.369874 
L 392.896254 201.750609 
L 397.484651 154.515444 
L 399.778849 135.845361 
L 402.073047 126.780068 
L 404.367245 129.746174 
L 406.661444 142.707376 
L 408.955642 161.400025 
L 413.544038 202.590165 
L 415.838237 221.290149 
L 418.132435 237.177462 
L 420.426633 249.089636 
L 422.720831 256.282051 
L 425.01503 258.850752 
L 427.309228 256.295872 
L 429.603426 246.634707 
L 431.897624 228.928742 
L 436.486021 182.889113 
L 438.780219 165.29266 
L 441.074418 156.619987 
L 443.368616 158.435519 
L 445.662814 169.509109 
L 447.957012 186.411342 
L 452.545409 226.369909 
L 459.428004 287.526349 
L 461.722202 306.877956 
L 464.0164 323.307152 
L 466.310598 334.983601 
L 468.604797 340.807445 
L 470.898995 340.657849 
L 473.193193 335.599157 
L 475.487392 327.974812 
L 477.78159 321.511971 
L 480.075788 319.516672 
L 482.369986 321.003177 
L 484.664185 321.499155 
L 486.958383 318.179271 
L 489.252581 311.695471 
L 491.546779 304.523912 
L 493.840978 298.814136 
L 496.135176 295.18917 
L 498.429374 293.160954 
L 500.723572 292.067127 
L 503.017771 291.472542 
L 507.606167 290.896138 
L 512.194564 290.352045 
L 514.488762 289.907325 
L 516.78296 289.297222 
L 523.665555 287.020346 
L 525.959753 286.476862 
L 530.54815 285.810405 
L 535.136546 285.439682 
L 542.019141 285.129371 
L 553.490132 284.891291 
L 560.372727 284.822773 
L 560.372727 284.822773 
" clip-path="url(#p58457c78da)" style="fill: none; stroke: #1f77b4; stroke-width: 1.5; stroke-linecap: square"/>
   </g>
   <g id="line2d_36">
    <path d="M 103.827273 284.900255 
L 223.125582 285.025985 
L 248.361763 285.225145 
L 262.126953 285.54319 
L 269.009548 285.891265 
L 273.597944 286.300746 
L 278.186341 287.013838 
L 280.480539 287.571658 
L 282.774737 288.326375 
L 285.068936 289.29284 
L 289.657332 291.411479 
L 291.95153 292.22886 
L 294.245729 292.810741 
L 296.539927 293.200764 
L 301.128323 293.604446 
L 305.71672 293.725224 
L 314.893513 293.64947 
L 321.776108 293.664449 
L 324.070306 293.772015 
L 326.364504 293.992208 
L 328.658703 294.357129 
L 330.952901 294.957411 
L 333.247099 295.797195 
L 337.835496 297.699941 
L 340.129694 298.313716 
L 342.423892 298.612967 
L 344.71809 298.650644 
L 347.012289 298.432629 
L 349.306487 298.089714 
L 351.600685 297.60543 
L 356.189082 296.319213 
L 360.777478 294.658362 
L 363.071677 293.732514 
L 367.660073 291.546999 
L 369.954271 290.338249 
L 374.542668 287.49352 
L 376.836866 285.867107 
L 379.131064 284.018106 
L 381.425263 281.975458 
L 383.719461 279.611981 
L 386.013659 276.849343 
L 388.307857 273.587874 
L 390.602056 269.55444 
L 392.896254 264.496603 
L 395.190452 257.94253 
L 397.484651 249.323534 
L 399.778849 238.32622 
L 402.073047 225.524954 
L 404.367245 213.363847 
L 406.661444 205.22893 
L 408.955642 203.343471 
L 411.24984 206.966998 
L 413.544038 213.61083 
L 418.132435 228.557613 
L 420.426633 235.227635 
L 422.720831 240.950929 
L 425.01503 245.551539 
L 427.309228 248.868549 
L 429.603426 250.772707 
L 431.897624 251.378906 
L 434.191823 251.285284 
L 436.486021 251.455534 
L 438.780219 252.66359 
L 441.074418 255.489979 
L 443.368616 260.751521 
L 445.662814 268.791911 
L 447.957012 278.043601 
L 450.251211 285.6244 
L 452.545409 289.805576 
L 454.839607 290.96008 
L 457.133805 290.285016 
L 459.428004 288.396642 
L 461.722202 285.50656 
L 464.0164 282.136159 
L 466.310598 279.471494 
L 468.604797 279.4349 
L 470.898995 283.825023 
L 473.193193 292.428224 
L 475.487392 302.733276 
L 477.78159 312.338629 
L 480.075788 320.39304 
L 482.369986 327.013999 
L 484.664185 332.555677 
L 486.958383 337.321351 
L 489.252581 341.509833 
L 491.546779 345.229826 
L 493.840978 348.511863 
L 496.135176 351.315027 
L 498.429374 353.517725 
L 500.723572 354.895765 
L 503.017771 355.104888 
L 505.311969 353.696409 
L 507.606167 350.237416 
L 509.900365 344.560855 
L 512.194564 336.977309 
L 514.488762 328.140039 
L 516.78296 318.554206 
L 523.665555 288.29835 
L 525.959753 280.020648 
L 528.253952 273.754236 
L 530.54815 269.383836 
L 532.842348 266.421186 
L 535.136546 264.704106 
L 537.430745 264.544304 
L 539.724943 265.934395 
L 542.019141 268.27983 
L 546.607538 273.86371 
L 555.784331 285.272586 
L 558.078529 287.54313 
L 560.372727 289.100042 
L 560.372727 289.100042 
" clip-path="url(#p58457c78da)" style="fill: none; stroke: #ff7f0e; stroke-width: 1.5; stroke-linecap: square"/>
   </g>
   <g id="line2d_37">
    <path d="M 103.827273 284.676638 
L 202.477798 284.680002 
L 220.831384 284.864068 
L 232.302376 285.190935 
L 239.18497 285.609569 
L 243.773367 286.103475 
L 246.067565 286.467965 
L 248.361763 286.955127 
L 250.655962 287.615622 
L 252.95016 288.509015 
L 255.244358 289.668245 
L 259.832755 292.377934 
L 262.126953 293.558123 
L 264.421151 294.530096 
L 271.303746 296.98442 
L 273.597944 297.977814 
L 275.892143 299.186367 
L 280.480539 301.863887 
L 282.774737 302.899014 
L 285.068936 303.588347 
L 287.363134 303.974726 
L 289.657332 304.126593 
L 291.95153 304.099771 
L 294.245729 303.933426 
L 298.834125 303.272514 
L 303.422522 302.249445 
L 308.010918 300.892391 
L 312.599315 299.184009 
L 317.187711 297.065696 
L 319.48191 295.820163 
L 321.776108 294.425575 
L 324.070306 292.857618 
L 326.364504 291.09114 
L 328.658703 289.103983 
L 330.952901 286.878608 
L 333.247099 284.402827 
L 335.541297 281.662551 
L 337.835496 278.640412 
L 340.129694 275.33881 
L 344.71809 268.210703 
L 351.600685 257.395487 
L 353.894884 254.28973 
L 356.189082 251.930296 
L 358.48328 250.595442 
L 360.777478 250.473908 
L 363.071677 251.50818 
L 365.365875 253.289425 
L 367.660073 254.651017 
L 369.954271 253.244007 
L 372.24847 246.890295 
L 374.542668 235.443561 
L 376.836866 220.219664 
L 379.131064 202.639864 
L 383.719461 164.611339 
L 386.013659 147.634252 
L 388.307857 136.419793 
L 390.602056 133.508511 
L 392.896254 137.746569 
L 395.190452 145.761084 
L 399.778849 163.581794 
L 402.073047 171.436556 
L 404.367245 178.117746 
L 406.661444 183.379138 
L 408.955642 187.14906 
L 411.24984 189.970547 
L 413.544038 193.457699 
L 415.838237 200.18395 
L 418.132435 211.252557 
L 420.426633 224.321579 
L 422.720831 235.463906 
L 425.01503 241.441429 
L 427.309228 240.971084 
L 429.603426 235.037661 
L 431.897624 225.970945 
L 434.191823 215.720543 
L 436.486021 204.925717 
L 438.780219 193.51487 
L 441.074418 181.328308 
L 443.368616 168.200701 
L 447.957012 139.749332 
L 450.251211 127.879821 
L 452.545409 123.548044 
L 454.839607 130.43307 
L 457.133805 145.989374 
L 459.428004 164.177782 
L 461.722202 181.064412 
L 464.0164 195.536678 
L 466.310598 207.760241 
L 468.604797 218.200091 
L 470.898995 227.264957 
L 473.193193 235.226926 
L 475.487392 242.256291 
L 477.78159 248.463188 
L 480.075788 253.914923 
L 482.369986 258.650308 
L 484.664185 262.696739 
L 486.958383 266.08638 
L 489.252581 268.86822 
L 491.546779 271.112612 
L 493.840978 272.907553 
L 496.135176 274.346205 
L 498.429374 275.51222 
L 500.723572 276.471722 
L 503.017771 277.273488 
L 507.606167 278.535356 
L 512.194564 279.481302 
L 516.78296 280.214776 
L 523.665555 281.047207 
L 530.54815 281.663996 
L 539.724943 282.269883 
L 551.195934 282.806084 
L 560.372727 283.12106 
L 560.372727 283.12106 
" clip-path="url(#p58457c78da)" style="fill: none; stroke: #2ca02c; stroke-width: 1.5; stroke-linecap: square"/>
   </g>
   <g id="line2d_38">
    <path d="M 103.827273 284.716642 
L 216.242988 284.708171 
L 230.008177 284.904587 
L 236.890772 285.160214 
L 241.479169 285.483868 
L 246.067565 286.074499 
L 248.361763 286.547576 
L 250.655962 287.192595 
L 259.832755 290.411605 
L 262.126953 290.848237 
L 264.421151 291.117522 
L 269.009548 291.322195 
L 273.597944 291.260521 
L 280.480539 290.904315 
L 294.245729 289.965273 
L 298.834125 289.953083 
L 301.128323 290.154104 
L 303.422522 290.543563 
L 308.010918 291.747732 
L 310.305116 292.185069 
L 312.599315 292.30244 
L 314.893513 292.095337 
L 317.187711 291.633528 
L 319.48191 290.94339 
L 321.776108 290.086178 
L 324.070306 289.065585 
L 326.364504 287.899787 
L 328.658703 286.599906 
L 330.952901 285.148316 
L 333.247099 283.563757 
L 335.541297 281.81482 
L 337.835496 279.911891 
L 340.129694 277.827297 
L 342.423892 275.554753 
L 344.71809 273.073086 
L 347.012289 270.362525 
L 349.306487 267.403161 
L 351.600685 264.168966 
L 353.894884 260.637841 
L 356.189082 256.784944 
L 358.48328 252.589846 
L 360.777478 248.038339 
L 363.071677 243.125095 
L 365.365875 237.865221 
L 372.24847 221.141331 
L 374.542668 216.13768 
L 376.836866 211.856804 
L 379.131064 208.713383 
L 381.425263 207.409735 
L 383.719461 207.951398 
L 386.013659 208.141846 
L 388.307857 204.24773 
L 390.602056 194.553149 
L 395.190452 166.983 
L 397.484651 156.05635 
L 399.778849 151.314747 
L 402.073047 154.11107 
L 404.367245 162.760774 
L 406.661444 174.308472 
L 408.955642 187.028439 
L 411.24984 201.024013 
L 418.132435 247.434966 
L 420.426633 259.290202 
L 422.720831 268.653661 
L 425.01503 276.106346 
L 427.309228 282.187935 
L 429.603426 287.316893 
L 431.897624 291.814179 
L 434.191823 295.925282 
L 436.486021 299.752111 
L 438.780219 303.031969 
L 441.074418 304.961129 
L 443.368616 304.594067 
L 445.662814 301.446264 
L 447.957012 295.605176 
L 450.251211 287.788765 
L 454.839607 271.069218 
L 457.133805 263.842956 
L 461.722202 251.085775 
L 468.604797 231.766355 
L 473.193193 218.65412 
L 475.487392 212.266079 
L 477.78159 205.393614 
L 480.075788 197.590201 
L 482.369986 190.285055 
L 484.664185 186.296439 
L 486.958383 187.427333 
L 489.252581 193.186751 
L 491.546779 202.060752 
L 493.840978 212.951332 
L 500.723572 248.807319 
L 503.017771 258.547214 
L 505.311969 266.454984 
L 507.606167 272.856002 
L 509.900365 277.990354 
L 512.194564 281.761231 
L 514.488762 283.836112 
L 516.78296 284.137451 
L 521.371357 282.66673 
L 523.665555 282.350512 
L 525.959753 282.353452 
L 535.136546 282.975276 
L 539.724943 282.930349 
L 546.607538 282.547262 
L 551.195934 282.695701 
L 560.372727 283.203629 
L 560.372727 283.203629 
" clip-path="url(#p58457c78da)" style="fill: none; stroke: #d62728; stroke-width: 1.5; stroke-linecap: square"/>
   </g>
   <g id="line2d_39">
    <path d="M 103.827273 284.245016 
L 138.240247 283.887348 
L 161.182229 283.437096 
L 174.947419 282.979246 
L 184.124212 282.511771 
L 191.006807 281.999781 
L 195.595203 281.523064 
L 200.1836 280.857969 
L 204.771996 279.855406 
L 207.066195 279.140191 
L 209.360393 278.210677 
L 211.654591 277.01811 
L 220.831384 271.309256 
L 225.419781 269.070092 
L 230.008177 266.813843 
L 232.302376 265.495634 
L 234.596574 263.945432 
L 236.890772 262.11349 
L 243.773367 256.038519 
L 246.067565 254.309949 
L 250.655962 251.267229 
L 257.538556 246.901903 
L 262.126953 243.64681 
L 264.421151 241.788513 
L 266.715349 239.689538 
L 269.009548 237.246527 
L 271.303746 234.303174 
L 273.597944 230.625913 
L 275.892143 225.886309 
L 278.186341 219.6965 
L 280.480539 211.816509 
L 282.774737 202.694249 
L 285.068936 194.200189 
L 287.363134 189.556523 
L 289.657332 190.801064 
L 291.95153 195.758154 
L 294.245729 200.245908 
L 296.539927 201.757118 
L 298.834125 199.528925 
L 301.128323 193.525523 
L 303.422522 184.328558 
L 305.71672 173.619024 
L 308.010918 164.413431 
L 310.305116 159.729351 
L 312.599315 159.44485 
L 314.893513 160.240454 
L 317.187711 159.274064 
L 319.48191 155.597842 
L 321.776108 149.351467 
L 324.070306 141.116407 
L 330.952901 113.444757 
L 333.247099 107.64 
L 335.541297 109.429314 
L 337.835496 120.660021 
L 340.129694 137.919309 
L 342.423892 156.695336 
L 344.71809 174.431457 
L 347.012289 190.496746 
L 349.306487 205.055294 
L 351.600685 218.109145 
L 353.894884 229.542054 
L 356.189082 239.44533 
L 358.48328 248.037287 
L 360.777478 255.476359 
L 363.071677 261.78749 
L 365.365875 266.983633 
L 367.660073 271.247142 
L 369.954271 274.851407 
L 372.24847 278.000031 
L 374.542668 280.813644 
L 376.836866 283.371045 
L 381.425263 287.940834 
L 386.013659 292.064522 
L 399.778849 303.960441 
L 413.544038 316.398036 
L 420.426633 321.899162 
L 425.01503 325.860093 
L 438.780219 338.141229 
L 441.074418 339.959337 
L 443.368616 341.611733 
L 445.662814 343.050402 
L 447.957012 344.232831 
L 450.251211 345.112044 
L 452.545409 345.650945 
L 454.839607 345.811695 
L 457.133805 345.56877 
L 459.428004 344.899458 
L 461.722202 343.794223 
L 464.0164 342.249485 
L 466.310598 340.275582 
L 468.604797 337.892106 
L 470.898995 335.134289 
L 473.193193 332.049794 
L 477.78159 325.172749 
L 484.664185 314.41548 
L 486.958383 311.093113 
L 489.252581 308.036472 
L 491.546779 305.295324 
L 493.840978 302.89361 
L 496.135176 300.830842 
L 498.429374 299.086391 
L 500.723572 297.625915 
L 503.017771 296.407577 
L 505.311969 295.387339 
L 509.900365 293.777169 
L 514.488762 292.516843 
L 521.371357 290.901513 
L 530.54815 288.943953 
L 537.430745 287.665369 
L 542.019141 286.984529 
L 546.607538 286.485478 
L 553.490132 286.023432 
L 560.372727 285.749883 
L 560.372727 285.749883 
" clip-path="url(#p58457c78da)" style="fill: none; stroke: #9467bd; stroke-width: 1.5; stroke-linecap: square"/>
   </g>
   <g id="line2d_40">
    <path d="M 103.827273 284.787693 
L 163.476428 284.902839 
L 179.535815 285.141943 
L 186.41841 285.426458 
L 191.006807 285.804474 
L 195.595203 286.5033 
L 204.771996 288.393068 
L 209.360393 288.811772 
L 213.948789 288.964499 
L 220.831384 288.952076 
L 234.596574 288.603871 
L 241.479169 288.502234 
L 246.067565 288.65446 
L 248.361763 288.881365 
L 250.655962 289.236368 
L 255.244358 290.168184 
L 257.538556 290.496065 
L 259.832755 290.627431 
L 262.126953 290.575965 
L 264.421151 290.381901 
L 269.009548 289.660771 
L 273.597944 288.612316 
L 278.186341 287.317405 
L 287.363134 284.493594 
L 289.657332 283.970536 
L 291.95153 283.661632 
L 296.539927 283.470189 
L 298.834125 282.45881 
L 301.128323 279.190154 
L 303.422522 272.869716 
L 308.010918 255.307964 
L 310.305116 249.118202 
L 312.599315 248.201438 
L 314.893513 253.709311 
L 317.187711 264.974529 
L 321.776108 293.058325 
L 324.070306 304.87387 
L 326.364504 314.76762 
L 328.658703 323.442362 
L 335.541297 347.455003 
L 337.835496 354.690001 
L 340.129694 359.64 
L 342.423892 359.592708 
L 344.71809 352.890689 
L 347.012289 341.416237 
L 349.306487 329.177504 
L 351.600685 318.788997 
L 353.894884 310.693939 
L 356.189082 303.813904 
L 358.48328 296.148365 
L 360.777478 285.99063 
L 363.071677 272.528116 
L 367.660073 240.463154 
L 369.954271 227.779454 
L 372.24847 218.556183 
L 374.542668 209.937082 
L 376.836866 198.54784 
L 381.425263 167.539037 
L 383.719461 156.909772 
L 386.013659 155.929353 
L 388.307857 164.916871 
L 390.602056 180.066982 
L 392.896254 196.638852 
L 395.190452 211.540053 
L 397.484651 223.781564 
L 399.778849 233.636664 
L 402.073047 241.514321 
L 404.367245 247.538894 
L 406.661444 251.749987 
L 408.955642 254.354764 
L 411.24984 255.692762 
L 413.544038 256.095353 
L 415.838237 255.830252 
L 418.132435 255.078944 
L 420.426633 253.971671 
L 422.720831 252.5895 
L 425.01503 250.993491 
L 427.309228 249.218964 
L 431.897624 245.234108 
L 436.486021 240.749118 
L 441.074418 235.81825 
L 445.662814 230.50101 
L 459.428004 213.935197 
L 461.722202 211.546732 
L 464.0164 209.469023 
L 466.310598 207.828127 
L 468.604797 206.775085 
L 470.898995 206.486474 
L 473.193193 207.141417 
L 475.487392 208.885733 
L 477.78159 211.770392 
L 480.075788 215.671173 
L 482.369986 220.251426 
L 486.958383 229.884265 
L 489.252581 234.447115 
L 491.546779 238.702874 
L 493.840978 242.624817 
L 496.135176 246.215567 
L 498.429374 249.493092 
L 500.723572 252.481132 
L 503.017771 255.206047 
L 505.311969 257.693389 
L 507.606167 259.966179 
L 509.900365 262.046364 
L 512.194564 263.952702 
L 514.488762 265.702754 
L 519.077159 268.797565 
L 523.665555 271.439026 
L 528.253952 273.703624 
L 532.842348 275.643361 
L 537.430745 277.295078 
L 542.019141 278.686736 
L 546.607538 279.842025 
L 551.195934 280.783231 
L 555.784331 281.532967 
L 560.372727 282.115075 
L 560.372727 282.115075 
" clip-path="url(#p58457c78da)" style="fill: none; stroke: #8c564b; stroke-width: 1.5; stroke-linecap: square"/>
   </g>
   <g id="patch_3">
    <path d="M 81 372.24 
L 81 95.04 
" style="fill: none; stroke: #000000; stroke-width: 0.8; stroke-linejoin: miter; stroke-linecap: square"/>
   </g>
   <g id="patch_4">
    <path d="M 583.2 372.24 
L 583.2 95.04 
" style="fill: none; stroke: #000000; stroke-width: 0.8; stroke-linejoin: miter; stroke-linecap: square"/>
   </g>
   <g id="patch_5">
    <path d="M 81 372.24 
L 583.2 372.24 
" style="fill: none; stroke: #000000; stroke-width: 0.8; stroke-linejoin: miter; stroke-linecap: square"/>
   </g>
   <g id="patch_6">
    <path d="M 81 95.04 
L 583.2 95.04 
" style="fill: none; stroke: #000000; stroke-width: 0.8; stroke-linejoin: miter; stroke-linecap: square"/>
   </g>
   <g id="text_11">
    <!-- (a) -->
    <g transform="translate(81 89.04) scale(0.2 -0.2)">
     <defs>
      <path id="DejaVuSans-61" d="M 2194 1759 
Q 1497 1759 1228 1600 
Q 959 1441 959 1056 
Q 959 750 1161 570 
Q 1363 391 1709 391 
Q 2188 391 2477 730 
Q 2766 1069 2766 1631 
L 2766 1759 
L 2194 1759 
z
M 3341 1997 
L 3341 0 
L 2766 0 
L 2766 531 
Q 2569 213 2275 61 
Q 1981 -91 1556 -91 
Q 1019 -91 701 211 
Q 384 513 384 1019 
Q 384 1609 779 1909 
Q 1175 2209 1959 2209 
L 2766 2209 
L 2766 2266 
Q 2766 2663 2505 2880 
Q 2244 3097 1772 3097 
Q 1472 3097 1187 3025 
Q 903 2953 641 2809 
L 641 3341 
Q 956 3463 1253 3523 
Q 1550 3584 1831 3584 
Q 2591 3584 2966 3190 
Q 3341 2797 3341 1997 
z
" transform="scale(0.015625)"/>
     </defs>
     <use xlink:href="#DejaVuSans-28"/>
     <use xlink:href="#DejaVuSans-61" x="39.013672"/>
     <use xlink:href="#DejaVuSans-29" x="100.292969"/>
    </g>
   </g>
   <g id="legend_1">
    <g id="patch_7">
     <path d="M 90.716 228.383425 
L 181.783981 228.383425 
Q 184.559981 228.383425 184.559981 225.607425 
L 184.559981 104.756 
Q 184.559981 101.98 181.783981 101.98 
L 90.716 101.98 
Q 87.94 101.98 87.94 104.756 
L 87.94 225.607425 
Q 87.94 228.383425 90.716 228.383425 
z
" style="fill: #ffffff; opacity: 0.8; stroke: #cccccc; stroke-linejoin: miter"/>
    </g>
    <g id="line2d_41">
     <path d="M 93.492 113.220631 
L 107.372 113.220631 
L 121.252 113.220631 
" style="fill: none; stroke: #1f77b4; stroke-width: 1.5; stroke-linecap: square"/>
    </g>
    <g id="text_12">
     <!-- MoS2 -->
     <g transform="translate(132.356 118.078631) scale(0.1388 -0.1388)">
      <defs>
       <path id="DejaVuSans-4d" d="M 628 4666 
L 1569 4666 
L 2759 1491 
L 3956 4666 
L 4897 4666 
L 4897 0 
L 4281 0 
L 4281 4097 
L 3078 897 
L 2444 897 
L 1241 4097 
L 1241 0 
L 628 0 
L 628 4666 
z
" transform="scale(0.015625)"/>
       <path id="DejaVuSans-53" d="M 3425 4513 
L 3425 3897 
Q 3066 4069 2747 4153 
Q 2428 4238 2131 4238 
Q 1616 4238 1336 4038 
Q 1056 3838 1056 3469 
Q 1056 3159 1242 3001 
Q 1428 2844 1947 2747 
L 2328 2669 
Q 3034 2534 3370 2195 
Q 3706 1856 3706 1288 
Q 3706 609 3251 259 
Q 2797 -91 1919 -91 
Q 1588 -91 1214 -16 
Q 841 59 441 206 
L 441 856 
Q 825 641 1194 531 
Q 1563 422 1919 422 
Q 2459 422 2753 634 
Q 3047 847 3047 1241 
Q 3047 1584 2836 1778 
Q 2625 1972 2144 2069 
L 1759 2144 
Q 1053 2284 737 2584 
Q 422 2884 422 3419 
Q 422 4038 858 4394 
Q 1294 4750 2059 4750 
Q 2388 4750 2728 4690 
Q 3069 4631 3425 4513 
z
" transform="scale(0.015625)"/>
      </defs>
      <use xlink:href="#DejaVuSans-4d"/>
      <use xlink:href="#DejaVuSans-6f" x="86.279297"/>
      <use xlink:href="#DejaVuSans-53" x="147.460938"/>
      <use xlink:href="#DejaVuSans-32" x="210.9375"/>
     </g>
    </g>
    <g id="line2d_42">
     <path d="M 93.492 133.593869 
L 107.372 133.593869 
L 121.252 133.593869 
" style="fill: none; stroke: #ff7f0e; stroke-width: 1.5; stroke-linecap: square"/>
    </g>
    <g id="text_13">
     <!-- WS2 -->
     <g transform="translate(132.356 138.451869) scale(0.1388 -0.1388)">
      <defs>
       <path id="DejaVuSans-57" d="M 213 4666 
L 850 4666 
L 1831 722 
L 2809 4666 
L 3519 4666 
L 4500 722 
L 5478 4666 
L 6119 4666 
L 4947 0 
L 4153 0 
L 3169 4050 
L 2175 0 
L 1381 0 
L 213 4666 
z
" transform="scale(0.015625)"/>
      </defs>
      <use xlink:href="#DejaVuSans-57"/>
      <use xlink:href="#DejaVuSans-53" x="98.876953"/>
      <use xlink:href="#DejaVuSans-32" x="162.353516"/>
     </g>
    </g>
    <g id="line2d_43">
     <path d="M 93.492 153.967106 
L 107.372 153.967106 
L 121.252 153.967106 
" style="fill: none; stroke: #2ca02c; stroke-width: 1.5; stroke-linecap: square"/>
    </g>
    <g id="text_14">
     <!-- MoSe2 -->
     <g transform="translate(132.356 158.825106) scale(0.1388 -0.1388)">
      <use xlink:href="#DejaVuSans-4d"/>
      <use xlink:href="#DejaVuSans-6f" x="86.279297"/>
      <use xlink:href="#DejaVuSans-53" x="147.460938"/>
      <use xlink:href="#DejaVuSans-65" x="210.9375"/>
      <use xlink:href="#DejaVuSans-32" x="272.460938"/>
     </g>
    </g>
    <g id="line2d_44">
     <path d="M 93.492 174.340344 
L 107.372 174.340344 
L 121.252 174.340344 
" style="fill: none; stroke: #d62728; stroke-width: 1.5; stroke-linecap: square"/>
    </g>
    <g id="text_15">
     <!-- WSe2 -->
     <g transform="translate(132.356 179.198344) scale(0.1388 -0.1388)">
      <use xlink:href="#DejaVuSans-57"/>
      <use xlink:href="#DejaVuSans-53" x="98.876953"/>
      <use xlink:href="#DejaVuSans-65" x="162.353516"/>
      <use xlink:href="#DejaVuSans-32" x="223.876953"/>
     </g>
    </g>
    <g id="line2d_45">
     <path d="M 93.492 194.713581 
L 107.372 194.713581 
L 121.252 194.713581 
" style="fill: none; stroke: #9467bd; stroke-width: 1.5; stroke-linecap: square"/>
    </g>
    <g id="text_16">
     <!-- MoTe2 -->
     <g transform="translate(132.356 199.571581) scale(0.1388 -0.1388)">
      <defs>
       <path id="DejaVuSans-54" d="M -19 4666 
L 3928 4666 
L 3928 4134 
L 2272 4134 
L 2272 0 
L 1638 0 
L 1638 4134 
L -19 4134 
L -19 4666 
z
" transform="scale(0.015625)"/>
      </defs>
      <use xlink:href="#DejaVuSans-4d"/>
      <use xlink:href="#DejaVuSans-6f" x="86.279297"/>
      <use xlink:href="#DejaVuSans-54" x="147.460938"/>
      <use xlink:href="#DejaVuSans-65" x="191.544922"/>
      <use xlink:href="#DejaVuSans-32" x="253.068359"/>
     </g>
    </g>
    <g id="line2d_46">
     <path d="M 93.492 215.086819 
L 107.372 215.086819 
L 121.252 215.086819 
" style="fill: none; stroke: #8c564b; stroke-width: 1.5; stroke-linecap: square"/>
    </g>
    <g id="text_17">
     <!-- WTe2 -->
     <g transform="translate(132.356 219.944819) scale(0.1388 -0.1388)">
      <use xlink:href="#DejaVuSans-57"/>
      <use xlink:href="#DejaVuSans-54" x="98.876953"/>
      <use xlink:href="#DejaVuSans-65" x="142.960938"/>
      <use xlink:href="#DejaVuSans-32" x="204.484375"/>
     </g>
    </g>
   </g>
  </g>
  <g id="axes_2">
   <g id="patch_8">
    <path d="M 81 704.88 
L 583.2 704.88 
L 583.2 427.68 
L 81 427.68 
z
" style="fill: #ffffff"/>
   </g>
   <g id="matplotlib.axis_3">
    <g id="xtick_10">
     <g id="line2d_47">
      <path d="M 103.827273 704.88 
L 103.827273 427.68 
" clip-path="url(#pe6c6379814)" style="fill: none; stroke: #b0b0b0; stroke-width: 0.8; stroke-linecap: square"/>
     </g>
     <g id="line2d_48">
      <g>
       <use xlink:href="#m680157fd59" x="103.827273" y="704.88" style="stroke: #000000; stroke-width: 0.8"/>
      </g>
     </g>
     <g id="text_18">
      <!-- 0.0 -->
      <g transform="translate(95.87571 719.478438) scale(0.1 -0.1)">
       <use xlink:href="#DejaVuSans-30"/>
       <use xlink:href="#DejaVuSans-2e" x="63.623047"/>
       <use xlink:href="#DejaVuSans-30" x="95.410156"/>
      </g>
     </g>
    </g>
    <g id="xtick_11">
     <g id="line2d_49">
      <path d="M 161.182229 704.88 
L 161.182229 427.68 
" clip-path="url(#pe6c6379814)" style="fill: none; stroke: #b0b0b0; stroke-width: 0.8; stroke-linecap: square"/>
     </g>
     <g id="line2d_50">
      <g>
       <use xlink:href="#m680157fd59" x="161.182229" y="704.88" style="stroke: #000000; stroke-width: 0.8"/>
      </g>
     </g>
     <g id="text_19">
      <!-- 0.5 -->
      <g transform="translate(153.230667 719.478438) scale(0.1 -0.1)">
       <defs>
        <path id="DejaVuSans-35" d="M 691 4666 
L 3169 4666 
L 3169 4134 
L 1269 4134 
L 1269 2991 
Q 1406 3038 1543 3061 
Q 1681 3084 1819 3084 
Q 2600 3084 3056 2656 
Q 3513 2228 3513 1497 
Q 3513 744 3044 326 
Q 2575 -91 1722 -91 
Q 1428 -91 1123 -41 
Q 819 9 494 109 
L 494 744 
Q 775 591 1075 516 
Q 1375 441 1709 441 
Q 2250 441 2565 725 
Q 2881 1009 2881 1497 
Q 2881 1984 2565 2268 
Q 2250 2553 1709 2553 
Q 1456 2553 1204 2497 
Q 953 2441 691 2322 
L 691 4666 
z
" transform="scale(0.015625)"/>
       </defs>
       <use xlink:href="#DejaVuSans-30"/>
       <use xlink:href="#DejaVuSans-2e" x="63.623047"/>
       <use xlink:href="#DejaVuSans-35" x="95.410156"/>
      </g>
     </g>
    </g>
    <g id="xtick_12">
     <g id="line2d_51">
      <path d="M 218.537186 704.88 
L 218.537186 427.68 
" clip-path="url(#pe6c6379814)" style="fill: none; stroke: #b0b0b0; stroke-width: 0.8; stroke-linecap: square"/>
     </g>
     <g id="line2d_52">
      <g>
       <use xlink:href="#m680157fd59" x="218.537186" y="704.88" style="stroke: #000000; stroke-width: 0.8"/>
      </g>
     </g>
     <g id="text_20">
      <!-- 1.0 -->
      <g transform="translate(210.585623 719.478438) scale(0.1 -0.1)">
       <use xlink:href="#DejaVuSans-31"/>
       <use xlink:href="#DejaVuSans-2e" x="63.623047"/>
       <use xlink:href="#DejaVuSans-30" x="95.410156"/>
      </g>
     </g>
    </g>
    <g id="xtick_13">
     <g id="line2d_53">
      <path d="M 275.892143 704.88 
L 275.892143 427.68 
" clip-path="url(#pe6c6379814)" style="fill: none; stroke: #b0b0b0; stroke-width: 0.8; stroke-linecap: square"/>
     </g>
     <g id="line2d_54">
      <g>
       <use xlink:href="#m680157fd59" x="275.892143" y="704.88" style="stroke: #000000; stroke-width: 0.8"/>
      </g>
     </g>
     <g id="text_21">
      <!-- 1.5 -->
      <g transform="translate(267.94058 719.478438) scale(0.1 -0.1)">
       <use xlink:href="#DejaVuSans-31"/>
       <use xlink:href="#DejaVuSans-2e" x="63.623047"/>
       <use xlink:href="#DejaVuSans-35" x="95.410156"/>
      </g>
     </g>
    </g>
    <g id="xtick_14">
     <g id="line2d_55">
      <path d="M 333.247099 704.88 
L 333.247099 427.68 
" clip-path="url(#pe6c6379814)" style="fill: none; stroke: #b0b0b0; stroke-width: 0.8; stroke-linecap: square"/>
     </g>
     <g id="line2d_56">
      <g>
       <use xlink:href="#m680157fd59" x="333.247099" y="704.88" style="stroke: #000000; stroke-width: 0.8"/>
      </g>
     </g>
     <g id="text_22">
      <!-- 2.0 -->
      <g transform="translate(325.295537 719.478438) scale(0.1 -0.1)">
       <use xlink:href="#DejaVuSans-32"/>
       <use xlink:href="#DejaVuSans-2e" x="63.623047"/>
       <use xlink:href="#DejaVuSans-30" x="95.410156"/>
      </g>
     </g>
    </g>
    <g id="xtick_15">
     <g id="line2d_57">
      <path d="M 390.602056 704.88 
L 390.602056 427.68 
" clip-path="url(#pe6c6379814)" style="fill: none; stroke: #b0b0b0; stroke-width: 0.8; stroke-linecap: square"/>
     </g>
     <g id="line2d_58">
      <g>
       <use xlink:href="#m680157fd59" x="390.602056" y="704.88" style="stroke: #000000; stroke-width: 0.8"/>
      </g>
     </g>
     <g id="text_23">
      <!-- 2.5 -->
      <g transform="translate(382.650493 719.478438) scale(0.1 -0.1)">
       <use xlink:href="#DejaVuSans-32"/>
       <use xlink:href="#DejaVuSans-2e" x="63.623047"/>
       <use xlink:href="#DejaVuSans-35" x="95.410156"/>
      </g>
     </g>
    </g>
    <g id="xtick_16">
     <g id="line2d_59">
      <path d="M 447.957012 704.88 
L 447.957012 427.68 
" clip-path="url(#pe6c6379814)" style="fill: none; stroke: #b0b0b0; stroke-width: 0.8; stroke-linecap: square"/>
     </g>
     <g id="line2d_60">
      <g>
       <use xlink:href="#m680157fd59" x="447.957012" y="704.88" style="stroke: #000000; stroke-width: 0.8"/>
      </g>
     </g>
     <g id="text_24">
      <!-- 3.0 -->
      <g transform="translate(440.00545 719.478438) scale(0.1 -0.1)">
       <defs>
        <path id="DejaVuSans-33" d="M 2597 2516 
Q 3050 2419 3304 2112 
Q 3559 1806 3559 1356 
Q 3559 666 3084 287 
Q 2609 -91 1734 -91 
Q 1441 -91 1130 -33 
Q 819 25 488 141 
L 488 750 
Q 750 597 1062 519 
Q 1375 441 1716 441 
Q 2309 441 2620 675 
Q 2931 909 2931 1356 
Q 2931 1769 2642 2001 
Q 2353 2234 1838 2234 
L 1294 2234 
L 1294 2753 
L 1863 2753 
Q 2328 2753 2575 2939 
Q 2822 3125 2822 3475 
Q 2822 3834 2567 4026 
Q 2313 4219 1838 4219 
Q 1578 4219 1281 4162 
Q 984 4106 628 3988 
L 628 4550 
Q 988 4650 1302 4700 
Q 1616 4750 1894 4750 
Q 2613 4750 3031 4423 
Q 3450 4097 3450 3541 
Q 3450 3153 3228 2886 
Q 3006 2619 2597 2516 
z
" transform="scale(0.015625)"/>
       </defs>
       <use xlink:href="#DejaVuSans-33"/>
       <use xlink:href="#DejaVuSans-2e" x="63.623047"/>
       <use xlink:href="#DejaVuSans-30" x="95.410156"/>
      </g>
     </g>
    </g>
    <g id="xtick_17">
     <g id="line2d_61">
      <path d="M 505.311969 704.88 
L 505.311969 427.68 
" clip-path="url(#pe6c6379814)" style="fill: none; stroke: #b0b0b0; stroke-width: 0.8; stroke-linecap: square"/>
     </g>
     <g id="line2d_62">
      <g>
       <use xlink:href="#m680157fd59" x="505.311969" y="704.88" style="stroke: #000000; stroke-width: 0.8"/>
      </g>
     </g>
     <g id="text_25">
      <!-- 3.5 -->
      <g transform="translate(497.360406 719.478438) scale(0.1 -0.1)">
       <use xlink:href="#DejaVuSans-33"/>
       <use xlink:href="#DejaVuSans-2e" x="63.623047"/>
       <use xlink:href="#DejaVuSans-35" x="95.410156"/>
      </g>
     </g>
    </g>
    <g id="xtick_18">
     <g id="line2d_63">
      <path d="M 562.666926 704.88 
L 562.666926 427.68 
" clip-path="url(#pe6c6379814)" style="fill: none; stroke: #b0b0b0; stroke-width: 0.8; stroke-linecap: square"/>
     </g>
     <g id="line2d_64">
      <g>
       <use xlink:href="#m680157fd59" x="562.666926" y="704.88" style="stroke: #000000; stroke-width: 0.8"/>
      </g>
     </g>
     <g id="text_26">
      <!-- 4.0 -->
      <g transform="translate(554.715363 719.478438) scale(0.1 -0.1)">
       <use xlink:href="#DejaVuSans-34"/>
       <use xlink:href="#DejaVuSans-2e" x="63.623047"/>
       <use xlink:href="#DejaVuSans-30" x="95.410156"/>
      </g>
     </g>
    </g>
    <g id="text_27">
     <!-- Energy of Photon [eV] -->
     <g transform="translate(222.254688 740.755) scale(0.2 -0.2)">
      <use xlink:href="#DejaVuSans-45"/>
      <use xlink:href="#DejaVuSans-6e" x="63.183594"/>
      <use xlink:href="#DejaVuSans-65" x="126.5625"/>
      <use xlink:href="#DejaVuSans-72" x="188.085938"/>
      <use xlink:href="#DejaVuSans-67" x="227.449219"/>
      <use xlink:href="#DejaVuSans-79" x="290.925781"/>
      <use xlink:href="#DejaVuSans-20" x="350.105469"/>
      <use xlink:href="#DejaVuSans-6f" x="381.892578"/>
      <use xlink:href="#DejaVuSans-66" x="443.074219"/>
      <use xlink:href="#DejaVuSans-20" x="478.279297"/>
      <use xlink:href="#DejaVuSans-50" x="510.066406"/>
      <use xlink:href="#DejaVuSans-68" x="570.369141"/>
      <use xlink:href="#DejaVuSans-6f" x="633.748047"/>
      <use xlink:href="#DejaVuSans-74" x="694.929688"/>
      <use xlink:href="#DejaVuSans-6f" x="734.138672"/>
      <use xlink:href="#DejaVuSans-6e" x="795.320312"/>
      <use xlink:href="#DejaVuSans-20" x="858.699219"/>
      <use xlink:href="#DejaVuSans-5b" x="890.486328"/>
      <use xlink:href="#DejaVuSans-65" x="929.5"/>
      <use xlink:href="#DejaVuSans-56" x="991.023438"/>
      <use xlink:href="#DejaVuSans-5d" x="1059.431641"/>
     </g>
    </g>
   </g>
   <g id="matplotlib.axis_4">
    <g id="ytick_9">
     <g id="line2d_65">
      <path d="M 81 678.896112 
L 583.2 678.896112 
" clip-path="url(#pe6c6379814)" style="fill: none; stroke: #b0b0b0; stroke-width: 0.8; stroke-linecap: square"/>
     </g>
     <g id="line2d_66">
      <g>
       <use xlink:href="#mcc34f3e55f" x="81" y="678.896112" style="stroke: #000000; stroke-width: 0.8"/>
      </g>
     </g>
     <g id="text_28">
      <!-- −60 -->
      <g transform="translate(52.895313 682.695331) scale(0.1 -0.1)">
       <use xlink:href="#DejaVuSans-2212"/>
       <use xlink:href="#DejaVuSans-36" x="83.789062"/>
       <use xlink:href="#DejaVuSans-30" x="147.412109"/>
      </g>
     </g>
    </g>
    <g id="ytick_10">
     <g id="line2d_67">
      <path d="M 81 644.481405 
L 583.2 644.481405 
" clip-path="url(#pe6c6379814)" style="fill: none; stroke: #b0b0b0; stroke-width: 0.8; stroke-linecap: square"/>
     </g>
     <g id="line2d_68">
      <g>
       <use xlink:href="#mcc34f3e55f" x="81" y="644.481405" style="stroke: #000000; stroke-width: 0.8"/>
      </g>
     </g>
     <g id="text_29">
      <!-- −40 -->
      <g transform="translate(52.895313 648.280624) scale(0.1 -0.1)">
       <use xlink:href="#DejaVuSans-2212"/>
       <use xlink:href="#DejaVuSans-34" x="83.789062"/>
       <use xlink:href="#DejaVuSans-30" x="147.412109"/>
      </g>
     </g>
    </g>
    <g id="ytick_11">
     <g id="line2d_69">
      <path d="M 81 610.066698 
L 583.2 610.066698 
" clip-path="url(#pe6c6379814)" style="fill: none; stroke: #b0b0b0; stroke-width: 0.8; stroke-linecap: square"/>
     </g>
     <g id="line2d_70">
      <g>
       <use xlink:href="#mcc34f3e55f" x="81" y="610.066698" style="stroke: #000000; stroke-width: 0.8"/>
      </g>
     </g>
     <g id="text_30">
      <!-- −20 -->
      <g transform="translate(52.895313 613.865917) scale(0.1 -0.1)">
       <use xlink:href="#DejaVuSans-2212"/>
       <use xlink:href="#DejaVuSans-32" x="83.789062"/>
       <use xlink:href="#DejaVuSans-30" x="147.412109"/>
      </g>
     </g>
    </g>
    <g id="ytick_12">
     <g id="line2d_71">
      <path d="M 81 575.651991 
L 583.2 575.651991 
" clip-path="url(#pe6c6379814)" style="fill: none; stroke: #b0b0b0; stroke-width: 0.8; stroke-linecap: square"/>
     </g>
     <g id="line2d_72">
      <g>
       <use xlink:href="#mcc34f3e55f" x="81" y="575.651991" style="stroke: #000000; stroke-width: 0.8"/>
      </g>
     </g>
     <g id="text_31">
      <!-- 0 -->
      <g transform="translate(67.6375 579.45121) scale(0.1 -0.1)">
       <use xlink:href="#DejaVuSans-30"/>
      </g>
     </g>
    </g>
    <g id="ytick_13">
     <g id="line2d_73">
      <path d="M 81 541.237285 
L 583.2 541.237285 
" clip-path="url(#pe6c6379814)" style="fill: none; stroke: #b0b0b0; stroke-width: 0.8; stroke-linecap: square"/>
     </g>
     <g id="line2d_74">
      <g>
       <use xlink:href="#mcc34f3e55f" x="81" y="541.237285" style="stroke: #000000; stroke-width: 0.8"/>
      </g>
     </g>
     <g id="text_32">
      <!-- 20 -->
      <g transform="translate(61.275 545.036503) scale(0.1 -0.1)">
       <use xlink:href="#DejaVuSans-32"/>
       <use xlink:href="#DejaVuSans-30" x="63.623047"/>
      </g>
     </g>
    </g>
    <g id="ytick_14">
     <g id="line2d_75">
      <path d="M 81 506.822578 
L 583.2 506.822578 
" clip-path="url(#pe6c6379814)" style="fill: none; stroke: #b0b0b0; stroke-width: 0.8; stroke-linecap: square"/>
     </g>
     <g id="line2d_76">
      <g>
       <use xlink:href="#mcc34f3e55f" x="81" y="506.822578" style="stroke: #000000; stroke-width: 0.8"/>
      </g>
     </g>
     <g id="text_33">
      <!-- 40 -->
      <g transform="translate(61.275 510.621796) scale(0.1 -0.1)">
       <use xlink:href="#DejaVuSans-34"/>
       <use xlink:href="#DejaVuSans-30" x="63.623047"/>
      </g>
     </g>
    </g>
    <g id="ytick_15">
     <g id="line2d_77">
      <path d="M 81 472.407871 
L 583.2 472.407871 
" clip-path="url(#pe6c6379814)" style="fill: none; stroke: #b0b0b0; stroke-width: 0.8; stroke-linecap: square"/>
     </g>
     <g id="line2d_78">
      <g>
       <use xlink:href="#mcc34f3e55f" x="81" y="472.407871" style="stroke: #000000; stroke-width: 0.8"/>
      </g>
     </g>
     <g id="text_34">
      <!-- 60 -->
      <g transform="translate(61.275 476.207089) scale(0.1 -0.1)">
       <use xlink:href="#DejaVuSans-36"/>
       <use xlink:href="#DejaVuSans-30" x="63.623047"/>
      </g>
     </g>
    </g>
    <g id="ytick_16">
     <g id="line2d_79">
      <path d="M 81 437.993164 
L 583.2 437.993164 
" clip-path="url(#pe6c6379814)" style="fill: none; stroke: #b0b0b0; stroke-width: 0.8; stroke-linecap: square"/>
     </g>
     <g id="line2d_80">
      <g>
       <use xlink:href="#mcc34f3e55f" x="81" y="437.993164" style="stroke: #000000; stroke-width: 0.8"/>
      </g>
     </g>
     <g id="text_35">
      <!-- 80 -->
      <g transform="translate(61.275 441.792382) scale(0.1 -0.1)">
       <use xlink:href="#DejaVuSans-38"/>
       <use xlink:href="#DejaVuSans-30" x="63.623047"/>
      </g>
     </g>
    </g>
    <g id="text_36">
     <!-- $Im\{\sigma^{(2)}_{yxx}\} \: 10^{17} [m. A/(Vs)^2]$  -->
     <g transform="translate(43.065712 656.0836) rotate(-90) scale(0.1388 -0.1388)">
      <defs>
       <path id="DejaVuSans-Oblique-49" d="M 1081 4666 
L 1716 4666 
L 806 0 
L 172 0 
L 1081 4666 
z
" transform="scale(0.015625)"/>
      </defs>
      <use xlink:href="#DejaVuSans-Oblique-49" transform="translate(0 0.60625)"/>
      <use xlink:href="#DejaVuSans-Oblique-6d" transform="translate(29.492188 0.60625)"/>
      <use xlink:href="#DejaVuSans-7b" transform="translate(126.904297 0.60625)"/>
      <use xlink:href="#DejaVuSans-Oblique-3c3" transform="translate(190.527344 0.60625)"/>
      <use xlink:href="#DejaVuSans-28" transform="translate(258.378958 38.8875) scale(0.7)"/>
      <use xlink:href="#DejaVuSans-32" transform="translate(285.688529 38.8875) scale(0.7)"/>
      <use xlink:href="#DejaVuSans-29" transform="translate(330.224661 38.8875) scale(0.7)"/>
      <use xlink:href="#DejaVuSans-Oblique-79" transform="translate(253.90625 -26.7375) scale(0.7)"/>
      <use xlink:href="#DejaVuSans-Oblique-78" transform="translate(295.332031 -26.7375) scale(0.7)"/>
      <use xlink:href="#DejaVuSans-Oblique-78" transform="translate(336.757812 -26.7375) scale(0.7)"/>
      <use xlink:href="#DejaVuSans-7d" transform="translate(380.917969 0.60625)"/>
      <use xlink:href="#DejaVuSans-31" transform="translate(466.187935 0.60625)"/>
      <use xlink:href="#DejaVuSans-30" transform="translate(529.810981 0.60625)"/>
      <use xlink:href="#DejaVuSans-31" transform="translate(594.39106 38.8875) scale(0.7)"/>
      <use xlink:href="#DejaVuSans-37" transform="translate(638.927192 38.8875) scale(0.7)"/>
      <use xlink:href="#DejaVuSans-5b" transform="translate(686.1977 0.60625)"/>
      <use xlink:href="#DejaVuSans-Oblique-6d" transform="translate(725.211372 0.60625)"/>
      <use xlink:href="#DejaVuSans-2e" transform="translate(822.623481 0.60625)"/>
      <use xlink:href="#DejaVuSans-Oblique-41" transform="translate(873.893013 0.60625)"/>
      <use xlink:href="#DejaVuSans-2f" transform="translate(942.301216 0.60625)"/>
      <use xlink:href="#DejaVuSans-28" transform="translate(975.992622 0.60625)"/>
      <use xlink:href="#DejaVuSans-Oblique-56" transform="translate(1015.006294 0.60625)"/>
      <use xlink:href="#DejaVuSans-Oblique-73" transform="translate(1083.414497 0.60625)"/>
      <use xlink:href="#DejaVuSans-29" transform="translate(1135.514106 0.60625)"/>
      <use xlink:href="#DejaVuSans-32" transform="translate(1175.48481 38.8875) scale(0.7)"/>
      <use xlink:href="#DejaVuSans-5d" transform="translate(1222.755317 0.60625)"/>
      <use xlink:href="#DejaVuSans-20" transform="translate(1261.768989 0.60625)"/>
     </g>
    </g>
   </g>
   <g id="line2d_81">
    <path d="M 103.827273 578.462726 
L 197.889402 578.943128 
L 220.831384 578.853072 
L 236.890772 578.574576 
L 248.361763 578.142739 
L 255.244358 577.716133 
L 262.126953 577.08458 
L 266.715349 576.495683 
L 271.303746 575.717953 
L 275.892143 574.705742 
L 282.774737 573.034887 
L 285.068936 572.802548 
L 287.363134 572.9527 
L 289.657332 573.429406 
L 298.834125 576.052269 
L 301.128323 576.971382 
L 303.422522 578.287716 
L 305.71672 580.014879 
L 312.599315 586.08624 
L 317.187711 589.995529 
L 324.070306 595.483624 
L 342.423892 609.668508 
L 347.012289 613.461529 
L 351.600685 617.484465 
L 356.189082 621.821972 
L 360.777478 626.583183 
L 365.365875 631.915748 
L 367.660073 634.858133 
L 369.954271 638.026036 
L 372.24847 641.459781 
L 374.542668 645.205109 
L 376.836866 649.314361 
L 379.131064 653.840901 
L 381.425263 658.828956 
L 383.719461 664.270878 
L 388.307857 675.615576 
L 390.602056 679.837448 
L 392.896254 680.419658 
L 395.190452 674.455957 
L 397.484651 659.876517 
L 399.778849 636.524907 
L 404.367245 576.710649 
L 406.661444 551.357759 
L 408.955642 533.422139 
L 411.24984 522.939331 
L 413.544038 518.955551 
L 415.838237 520.436244 
L 418.132435 526.582633 
L 420.426633 536.451156 
L 422.720831 548.596714 
L 425.01503 561.918663 
L 429.603426 590.104677 
L 431.897624 599.664472 
L 434.191823 600.37972 
L 436.486021 590.326802 
L 438.780219 570.928016 
L 441.074418 545.562501 
L 443.368616 518.697214 
L 445.662814 494.918192 
L 447.957012 476.764982 
L 450.251211 464.335349 
L 452.545409 456.745457 
L 454.839607 453.11153 
L 457.133805 452.907384 
L 459.428004 456.424552 
L 461.722202 464.477947 
L 464.0164 477.09061 
L 466.310598 493.086445 
L 468.604797 510.524252 
L 470.898995 527.051165 
L 473.193193 540.340427 
L 475.487392 548.583643 
L 477.78159 551.528649 
L 480.075788 552.193209 
L 482.369986 555.211306 
L 484.664185 561.828858 
L 486.958383 569.339465 
L 489.252581 574.633808 
L 491.546779 576.488337 
L 493.840978 575.736337 
L 498.429374 572.299284 
L 500.723572 571.051529 
L 503.017771 570.245973 
L 505.311969 569.815317 
L 507.606167 569.689635 
L 509.900365 569.803593 
L 514.488762 570.471795 
L 519.077159 571.121894 
L 521.371357 571.19255 
L 525.959753 570.837196 
L 532.842348 570.224294 
L 539.724943 569.896739 
L 548.901736 569.738024 
L 560.372727 569.771021 
L 560.372727 569.771021 
" clip-path="url(#pe6c6379814)" style="fill: none; stroke: #1f77b4; stroke-width: 1.5; stroke-linecap: square"/>
   </g>
   <g id="line2d_82">
    <path d="M 103.827273 575.344589 
L 177.241617 575.113343 
L 213.948789 574.792071 
L 234.596574 574.415889 
L 248.361763 573.977505 
L 257.538556 573.520562 
L 264.421151 573.026983 
L 271.303746 572.32409 
L 278.186341 571.329288 
L 282.774737 570.631686 
L 285.068936 570.465532 
L 287.363134 570.588618 
L 289.657332 571.036433 
L 294.245729 572.457652 
L 298.834125 573.918957 
L 303.422522 575.181255 
L 308.010918 576.236163 
L 312.599315 577.101549 
L 317.187711 577.783542 
L 321.776108 578.271858 
L 333.247099 579.180556 
L 335.541297 579.871245 
L 337.835496 580.990242 
L 342.423892 583.961548 
L 347.012289 587.093371 
L 353.894884 591.450032 
L 374.542668 603.959757 
L 379.131064 607.17162 
L 381.425263 608.907306 
L 386.013659 612.809895 
L 388.307857 615.008303 
L 395.190452 622.191255 
L 397.484651 623.823042 
L 399.778849 623.548276 
L 402.073047 619.49567 
L 404.367245 610.209478 
L 406.661444 596.31484 
L 408.955642 580.794233 
L 411.24984 567.143964 
L 413.544038 556.937251 
L 415.838237 550.031154 
L 418.132435 545.677821 
L 420.426633 543.211532 
L 422.720831 542.112255 
L 425.01503 541.983139 
L 429.603426 542.89552 
L 431.897624 542.722426 
L 434.191823 541.23439 
L 436.486021 538.257981 
L 438.780219 534.114601 
L 443.368616 524.199048 
L 445.662814 520.895142 
L 447.957012 521.209134 
L 450.251211 525.159888 
L 452.545409 530.716777 
L 454.839607 535.785794 
L 457.133805 539.574292 
L 459.428004 542.03995 
L 461.722202 542.876115 
L 464.0164 541.451492 
L 466.310598 537.208378 
L 468.604797 530.347445 
L 470.898995 522.69224 
L 473.193193 517.211141 
L 475.487392 515.595924 
L 477.78159 517.234136 
L 480.075788 520.731714 
L 482.369986 525.111654 
L 484.664185 529.915366 
L 489.252581 540.315143 
L 491.546779 545.959545 
L 493.840978 552.00879 
L 496.135176 558.570721 
L 498.429374 565.75536 
L 500.723572 573.651475 
L 503.017771 582.270771 
L 509.900365 609.418234 
L 512.194564 616.71911 
L 514.488762 622.246693 
L 516.78296 626.008624 
L 519.077159 627.939831 
L 521.371357 627.702888 
L 523.665555 625.128059 
L 525.959753 620.559977 
L 528.253952 614.805642 
L 537.430745 590.305237 
L 539.724943 584.903187 
L 542.019141 580.654451 
L 544.313339 577.489624 
L 546.607538 575.18338 
L 548.901736 573.577587 
L 551.195934 572.619033 
L 553.490132 572.337194 
L 555.784331 572.790949 
L 558.078529 573.967105 
L 560.372727 575.687074 
L 560.372727 575.687074 
" clip-path="url(#pe6c6379814)" style="fill: none; stroke: #ff7f0e; stroke-width: 1.5; stroke-linecap: square"/>
   </g>
   <g id="line2d_83">
    <path d="M 103.827273 585.454605 
L 147.41704 586.73089 
L 213.948789 588.761979 
L 225.419781 588.849199 
L 232.302376 588.740722 
L 239.18497 588.416922 
L 243.773367 588.01974 
L 248.361763 587.4406 
L 252.95016 586.793573 
L 255.244358 586.627484 
L 257.538556 586.754846 
L 259.832755 587.239827 
L 264.421151 588.819439 
L 269.009548 590.410922 
L 273.597944 591.847089 
L 275.892143 592.707686 
L 278.186341 593.890785 
L 280.480539 595.498511 
L 282.774737 597.442462 
L 296.539927 609.942347 
L 314.893513 625.905889 
L 321.776108 632.270953 
L 333.247099 643.108341 
L 335.541297 645.096866 
L 337.835496 646.930436 
L 340.129694 648.524278 
L 342.423892 649.782965 
L 344.71809 650.673172 
L 347.012289 651.209568 
L 349.306487 651.348052 
L 351.600685 650.986842 
L 353.894884 650.098458 
L 358.48328 647.551084 
L 360.777478 646.739005 
L 363.071677 647.127188 
L 365.365875 649.588787 
L 367.660073 655.112932 
L 369.954271 663.843248 
L 372.24847 673.914739 
L 374.542668 682.58332 
L 376.836866 688.041001 
L 379.131064 689.506567 
L 381.425263 686.503862 
L 383.719461 678.162062 
L 386.013659 663.620375 
L 388.307857 643.726835 
L 390.602056 622.218643 
L 392.896254 603.494048 
L 395.190452 589.447551 
L 397.484651 579.683821 
L 399.778849 573.135437 
L 402.073047 568.873056 
L 404.367245 566.212397 
L 408.955642 562.848075 
L 411.24984 560.150961 
L 413.544038 555.598552 
L 415.838237 550.025432 
L 418.132435 546.742673 
L 420.426633 548.916153 
L 422.720831 557.106815 
L 425.01503 569.438293 
L 427.309228 582.695952 
L 429.603426 593.888898 
L 431.897624 601.607033 
L 434.191823 606.193047 
L 436.486021 608.489159 
L 438.780219 608.860017 
L 441.074418 607.23953 
L 443.368616 603.237318 
L 445.662814 595.941312 
L 447.957012 583.727013 
L 450.251211 564.881547 
L 454.839607 514.925875 
L 457.133805 495.909531 
L 459.428004 484.90487 
L 461.722202 479.834983 
L 464.0164 478.229729 
L 466.310598 478.49433 
L 468.604797 479.790971 
L 470.898995 481.727848 
L 473.193193 484.121038 
L 475.487392 486.86379 
L 477.78159 489.883501 
L 482.369986 496.520375 
L 489.252581 506.921677 
L 491.546779 510.187707 
L 493.840978 513.245594 
L 496.135176 516.068504 
L 498.429374 518.655631 
L 500.723572 521.022158 
L 503.017771 523.189513 
L 505.311969 525.17988 
L 509.900365 528.708756 
L 514.488762 531.743396 
L 519.077159 534.384395 
L 523.665555 536.706833 
L 528.253952 538.767471 
L 532.842348 540.610025 
L 537.430745 542.268772 
L 544.313339 544.470337 
L 551.195934 546.389345 
L 558.078529 548.078549 
L 560.372727 548.597762 
L 560.372727 548.597762 
" clip-path="url(#pe6c6379814)" style="fill: none; stroke: #2ca02c; stroke-width: 1.5; stroke-linecap: square"/>
   </g>
   <g id="line2d_84">
    <path d="M 103.827273 583.051187 
L 145.122841 584.046938 
L 188.712608 585.332983 
L 220.831384 586.247044 
L 232.302376 586.370246 
L 239.18497 586.275491 
L 252.95016 585.897854 
L 255.244358 586.262412 
L 257.538556 586.912693 
L 262.126953 588.659973 
L 269.009548 591.304733 
L 275.892143 593.643275 
L 282.774737 595.722919 
L 289.657332 597.571077 
L 296.539927 599.160468 
L 301.128323 600.143283 
L 303.422522 600.746886 
L 305.71672 601.60012 
L 308.010918 602.841635 
L 310.305116 604.44497 
L 314.893513 608.205229 
L 321.776108 613.907652 
L 328.658703 619.363177 
L 337.835496 626.361802 
L 344.71809 631.389085 
L 349.306487 634.501557 
L 353.894884 637.232047 
L 356.189082 638.363518 
L 358.48328 639.272171 
L 360.777478 639.884723 
L 363.071677 640.113723 
L 365.365875 639.843265 
L 367.660073 638.921473 
L 369.954271 637.174051 
L 372.24847 634.507145 
L 374.542668 631.006793 
L 376.836866 626.797513 
L 381.425263 617.25597 
L 383.719461 614.330438 
L 386.013659 614.954131 
L 388.307857 618.230936 
L 390.602056 620.272913 
L 392.896254 617.328935 
L 395.190452 607.936967 
L 397.484651 592.410986 
L 402.073047 552.560705 
L 404.367245 535.399001 
L 406.661444 522.174174 
L 408.955642 511.942355 
L 411.24984 503.900485 
L 413.544038 498.748526 
L 415.838237 497.720578 
L 418.132435 500.498624 
L 420.426633 505.524469 
L 425.01503 517.645429 
L 434.191823 542.086801 
L 436.486021 548.857431 
L 438.780219 556.684683 
L 441.074418 565.828526 
L 445.662814 585.803536 
L 447.957012 594.589233 
L 450.251211 601.235532 
L 452.545409 605.332925 
L 454.839607 607.275171 
L 457.133805 607.941044 
L 459.428004 608.07969 
L 461.722202 607.943423 
L 464.0164 607.390101 
L 466.310598 606.262338 
L 468.604797 604.467767 
L 470.898995 601.844656 
L 473.193193 598.367995 
L 475.487392 594.23383 
L 477.78159 589.376492 
L 480.075788 582.548586 
L 482.369986 572.103403 
L 484.664185 558.193927 
L 486.958383 543.123697 
L 489.252581 529.415681 
L 491.546779 518.212036 
L 493.840978 509.768807 
L 496.135176 504.332602 
L 498.429374 502.056587 
L 500.723572 502.649503 
L 503.017771 505.321312 
L 505.311969 509.127681 
L 507.606167 513.519379 
L 509.900365 518.385304 
L 514.488762 529.178933 
L 516.78296 534.01794 
L 519.077159 537.475881 
L 521.371357 539.659794 
L 523.665555 541.196517 
L 528.253952 543.759106 
L 535.136546 547.301709 
L 539.724943 549.356174 
L 542.019141 550.196333 
L 544.313339 550.869679 
L 548.901736 551.832333 
L 555.784331 553.2627 
L 560.372727 554.235336 
L 560.372727 554.235336 
" clip-path="url(#pe6c6379814)" style="fill: none; stroke: #d62728; stroke-width: 1.5; stroke-linecap: square"/>
   </g>
   <g id="line2d_85">
    <path d="M 103.827273 589.454242 
L 117.592462 590.665306 
L 131.357652 592.103322 
L 142.828643 593.526468 
L 152.005436 594.854388 
L 161.182229 596.397244 
L 168.064824 597.731772 
L 174.947419 599.257981 
L 181.830014 601.026674 
L 186.41841 602.375592 
L 191.006807 603.894618 
L 195.595203 605.624074 
L 200.1836 607.615865 
L 204.771996 609.921746 
L 211.654591 613.767437 
L 213.948789 614.858153 
L 216.242988 615.671122 
L 220.831384 616.726811 
L 225.419781 617.814824 
L 227.713979 618.515962 
L 232.302376 620.254751 
L 236.890772 622.098231 
L 239.18497 622.739687 
L 241.479169 623.060365 
L 246.067565 623.160972 
L 250.655962 623.345443 
L 252.95016 623.596166 
L 255.244358 623.971467 
L 257.538556 624.479723 
L 259.832755 625.131328 
L 262.126953 625.940476 
L 264.421151 626.926309 
L 266.715349 628.111919 
L 269.009548 629.51937 
L 271.303746 631.156147 
L 275.892143 634.833972 
L 278.186341 636.292606 
L 280.480539 636.489592 
L 282.774737 634.073944 
L 285.068936 627.831802 
L 289.657332 609.178376 
L 291.95153 604.407052 
L 294.245729 604.599242 
L 296.539927 607.896946 
L 298.834125 612.286029 
L 301.128323 616.016019 
L 303.422522 617.298354 
L 305.71672 614.498095 
L 308.010918 607.154409 
L 310.305116 597.461789 
L 312.599315 589.42192 
L 314.893513 584.959666 
L 317.187711 582.995685 
L 319.48191 581.631881 
L 321.776108 579.334967 
L 324.070306 574.966657 
L 326.364504 567.685612 
L 328.658703 556.977603 
L 330.952901 542.163697 
L 333.247099 521.99136 
L 335.541297 497.808906 
L 337.835496 475.161444 
L 340.129694 458.53713 
L 342.423892 448.389527 
L 344.71809 442.995183 
L 347.012289 440.598476 
L 349.306487 440.28 
L 351.600685 441.642586 
L 353.894884 444.219419 
L 356.189082 447.527848 
L 358.48328 451.273215 
L 363.071677 459.58854 
L 365.365875 463.821301 
L 367.660073 467.774799 
L 369.954271 471.351865 
L 372.24847 474.577337 
L 374.542668 477.499115 
L 376.836866 480.156814 
L 379.131064 482.580252 
L 381.425263 484.796413 
L 383.719461 486.828927 
L 388.307857 490.43277 
L 392.896254 493.567258 
L 399.778849 497.794858 
L 404.367245 500.639804 
L 408.955642 503.832634 
L 418.132435 510.708502 
L 422.720831 514.040092 
L 427.309228 517.706535 
L 429.603426 519.742041 
L 431.897624 521.93967 
L 434.191823 524.326763 
L 436.486021 526.914479 
L 438.780219 529.722037 
L 441.074418 532.75168 
L 443.368616 536.008707 
L 445.662814 539.481967 
L 450.251211 547.010981 
L 454.839607 555.107553 
L 464.0164 571.501153 
L 466.310598 575.300987 
L 468.604797 578.853854 
L 470.898995 582.094763 
L 473.193193 584.963392 
L 475.487392 587.405643 
L 477.78159 589.379662 
L 480.075788 590.860155 
L 482.369986 591.843132 
L 484.664185 592.348974 
L 486.958383 592.421999 
L 489.252581 592.127261 
L 491.546779 591.543346 
L 493.840978 590.754055 
L 500.723572 587.90112 
L 505.311969 586.112671 
L 509.900365 584.636937 
L 514.488762 583.480743 
L 519.077159 582.568698 
L 528.253952 581.083229 
L 539.724943 579.207872 
L 551.195934 577.308821 
L 558.078529 576.425965 
L 560.372727 576.175922 
L 560.372727 576.175922 
" clip-path="url(#pe6c6379814)" style="fill: none; stroke: #9467bd; stroke-width: 1.5; stroke-linecap: square"/>
   </g>
   <g id="line2d_86">
    <path d="M 103.827273 581.728901 
L 154.299635 582.26356 
L 172.653221 582.235853 
L 181.830014 582.051494 
L 191.006807 581.641557 
L 195.595203 581.434227 
L 197.889402 581.447726 
L 200.1836 581.618335 
L 204.771996 582.360267 
L 213.948789 584.063594 
L 220.831384 585.11045 
L 227.713979 585.971423 
L 234.596574 586.644021 
L 241.479169 587.088189 
L 250.655962 587.489099 
L 252.95016 587.807142 
L 255.244358 588.359581 
L 259.832755 589.948008 
L 266.715349 592.424182 
L 271.303746 593.842245 
L 275.892143 595.020757 
L 280.480539 595.911077 
L 285.068936 596.453359 
L 291.95153 596.908252 
L 294.245729 597.480179 
L 296.539927 598.859939 
L 298.834125 601.380211 
L 301.128323 604.526078 
L 303.422522 606.572901 
L 305.71672 605.401277 
L 308.010918 599.550585 
L 310.305116 588.996014 
L 314.893513 561.891814 
L 317.187711 551.408518 
L 319.48191 546.271439 
L 321.776108 546.192384 
L 324.070306 549.2267 
L 326.364504 553.759506 
L 328.658703 559.050962 
L 330.952901 565.055844 
L 333.247099 572.123996 
L 335.541297 580.972579 
L 337.835496 592.495834 
L 340.129694 607.412757 
L 344.71809 641.893977 
L 347.012289 654.444069 
L 349.306487 661.821482 
L 351.600685 665.961717 
L 353.894884 669.237612 
L 356.189082 673.482135 
L 358.48328 679.214379 
L 360.777478 685.535488 
L 363.071677 690.652541 
L 365.365875 692.28 
L 367.660073 689.04852 
L 372.24847 676.192748 
L 374.542668 671.84413 
L 376.836866 668.214456 
L 379.131064 661.273629 
L 381.425263 647.179359 
L 383.719461 625.73741 
L 386.013659 600.92736 
L 388.307857 578.712803 
L 390.602056 563.241771 
L 392.896254 555.063933 
L 395.190452 552.365356 
L 397.484651 552.903289 
L 399.778849 555.202805 
L 402.073047 558.643791 
L 404.367245 562.878921 
L 408.955642 572.010867 
L 411.24984 576.172608 
L 413.544038 579.846949 
L 415.838237 583.022322 
L 418.132435 585.734195 
L 420.426633 588.029002 
L 422.720831 589.955021 
L 425.01503 591.55082 
L 427.309228 592.850801 
L 429.603426 593.87918 
L 431.897624 594.654259 
L 434.191823 595.186731 
L 436.486021 595.479504 
L 438.780219 595.530846 
L 441.074418 595.329658 
L 443.368616 594.863493 
L 445.662814 594.109844 
L 447.957012 593.048131 
L 450.251211 591.648247 
L 452.545409 589.884535 
L 454.839607 587.723256 
L 457.133805 585.136839 
L 459.428004 582.091995 
L 461.722202 578.564794 
L 464.0164 574.532726 
L 466.310598 569.994334 
L 468.604797 564.972728 
L 473.193193 553.858357 
L 475.487392 548.152584 
L 477.78159 542.757062 
L 480.075788 538.046972 
L 482.369986 534.303389 
L 484.664185 531.580246 
L 486.958383 529.749996 
L 489.252581 528.633966 
L 491.546779 528.06774 
L 493.840978 527.916389 
L 496.135176 528.074778 
L 498.429374 528.462003 
L 500.723572 529.017193 
L 505.311969 530.461531 
L 512.194564 533.064287 
L 537.430745 543.051648 
L 546.607538 546.402292 
L 553.490132 548.728522 
L 560.372727 550.847586 
L 560.372727 550.847586 
" clip-path="url(#pe6c6379814)" style="fill: none; stroke: #8c564b; stroke-width: 1.5; stroke-linecap: square"/>
   </g>
   <g id="patch_9">
    <path d="M 81 704.88 
L 81 427.68 
" style="fill: none; stroke: #000000; stroke-width: 0.8; stroke-linejoin: miter; stroke-linecap: square"/>
   </g>
   <g id="patch_10">
    <path d="M 583.2 704.88 
L 583.2 427.68 
" style="fill: none; stroke: #000000; stroke-width: 0.8; stroke-linejoin: miter; stroke-linecap: square"/>
   </g>
   <g id="patch_11">
    <path d="M 81 704.88 
L 583.2 704.88 
" style="fill: none; stroke: #000000; stroke-width: 0.8; stroke-linejoin: miter; stroke-linecap: square"/>
   </g>
   <g id="patch_12">
    <path d="M 81 427.68 
L 583.2 427.68 
" style="fill: none; stroke: #000000; stroke-width: 0.8; stroke-linejoin: miter; stroke-linecap: square"/>
   </g>
   <g id="text_37">
    <!-- (b) -->
    <g transform="translate(81 421.68) scale(0.2 -0.2)">
     <defs>
      <path id="DejaVuSans-62" d="M 3116 1747 
Q 3116 2381 2855 2742 
Q 2594 3103 2138 3103 
Q 1681 3103 1420 2742 
Q 1159 2381 1159 1747 
Q 1159 1113 1420 752 
Q 1681 391 2138 391 
Q 2594 391 2855 752 
Q 3116 1113 3116 1747 
z
M 1159 2969 
Q 1341 3281 1617 3432 
Q 1894 3584 2278 3584 
Q 2916 3584 3314 3078 
Q 3713 2572 3713 1747 
Q 3713 922 3314 415 
Q 2916 -91 2278 -91 
Q 1894 -91 1617 61 
Q 1341 213 1159 525 
L 1159 0 
L 581 0 
L 581 4863 
L 1159 4863 
L 1159 2969 
z
" transform="scale(0.015625)"/>
     </defs>
     <use xlink:href="#DejaVuSans-28"/>
     <use xlink:href="#DejaVuSans-62" x="39.013672"/>
     <use xlink:href="#DejaVuSans-29" x="102.490234"/>
    </g>
   </g>
  </g>
 </g>
 <defs>
  <clipPath id="p58457c78da">
   <rect x="81" y="95.04" width="502.2" height="277.2"/>
  </clipPath>
  <clipPath id="pe6c6379814">
   <rect x="81" y="427.68" width="502.2" height="277.2"/>
  </clipPath>
 </defs>
</svg>
