<?xml version="1.0" encoding="utf-8" standalone="no"?>
<!DOCTYPE svg PUBLIC "-//W3C//DTD SVG 1.1//EN"
  "http://www.w3.org/Graphics/SVG/1.1/DTD/svg11.dtd">
<svg xmlns:xlink="http://www.w3.org/1999/xlink" width="648pt" height="792pt" viewBox="0 0 648 792" xmlns="http://www.w3.org/2000/svg" version="1.1">
 <metadata>
  <rdf:RDF xmlns:dc="http://purl.org/dc/elements/1.1/" xmlns:cc="http://creativecommons.org/ns#" xmlns:rdf="http://www.w3.org/1999/02/22-rdf-syntax-ns#">
   <cc:Work>
    <dc:type rdf:resource="http://purl.org/dc/dcmitype/StillImage"/>
    <dc:date>2023-10-28T12:22:01.678073</dc:date>
    <dc:format>image/svg+xml</dc:format>
    <dc:creator>
     <cc:Agent>
      <dc:title>Matplotlib v3.7.3, https://matplotlib.org/</dc:title>
     </cc:Agent>
    </dc:creator>
   </cc:Work>
  </rdf:RDF>
 </metadata>
 <defs>
  <style type="text/css">*{stroke-linejoin: round; stroke-linecap: butt}</style>
 </defs>
 <g id="figure_1">
  <g id="patch_1">
   <path d="M 0 792 
L 648 792 
L 648 0 
L 0 0 
z
" style="fill: #ffffff"/>
  </g>
  <g id="axes_1">
   <g id="patch_2">
    <path d="M 81 372.24 
L 583.2 372.24 
L 583.2 95.04 
L 81 95.04 
z
" style="fill: #ffffff"/>
   </g>
   <g id="matplotlib.axis_1">
    <g id="xtick_1">
     <g id="line2d_1">
      <path d="M 103.827273 372.24 
L 103.827273 95.04 
" clip-path="url(#pd6dbcbb638)" style="fill: none; stroke: #b0b0b0; stroke-width: 0.8; stroke-linecap: square"/>
     </g>
     <g id="line2d_2">
      <defs>
       <path id="m8b6a3638ee" d="M 0 0 
L 0 3.5 
" style="stroke: #000000; stroke-width: 0.8"/>
      </defs>
      <g>
       <use xlink:href="#m8b6a3638ee" x="103.827273" y="372.24" style="stroke: #000000; stroke-width: 0.8"/>
      </g>
     </g>
    </g>
    <g id="xtick_2">
     <g id="line2d_3">
      <path d="M 161.182229 372.24 
L 161.182229 95.04 
" clip-path="url(#pd6dbcbb638)" style="fill: none; stroke: #b0b0b0; stroke-width: 0.8; stroke-linecap: square"/>
     </g>
     <g id="line2d_4">
      <g>
       <use xlink:href="#m8b6a3638ee" x="161.182229" y="372.24" style="stroke: #000000; stroke-width: 0.8"/>
      </g>
     </g>
    </g>
    <g id="xtick_3">
     <g id="line2d_5">
      <path d="M 218.537186 372.24 
L 218.537186 95.04 
" clip-path="url(#pd6dbcbb638)" style="fill: none; stroke: #b0b0b0; stroke-width: 0.8; stroke-linecap: square"/>
     </g>
     <g id="line2d_6">
      <g>
       <use xlink:href="#m8b6a3638ee" x="218.537186" y="372.24" style="stroke: #000000; stroke-width: 0.8"/>
      </g>
     </g>
    </g>
    <g id="xtick_4">
     <g id="line2d_7">
      <path d="M 275.892143 372.24 
L 275.892143 95.04 
" clip-path="url(#pd6dbcbb638)" style="fill: none; stroke: #b0b0b0; stroke-width: 0.8; stroke-linecap: square"/>
     </g>
     <g id="line2d_8">
      <g>
       <use xlink:href="#m8b6a3638ee" x="275.892143" y="372.24" style="stroke: #000000; stroke-width: 0.8"/>
      </g>
     </g>
    </g>
    <g id="xtick_5">
     <g id="line2d_9">
      <path d="M 333.247099 372.24 
L 333.247099 95.04 
" clip-path="url(#pd6dbcbb638)" style="fill: none; stroke: #b0b0b0; stroke-width: 0.8; stroke-linecap: square"/>
     </g>
     <g id="line2d_10">
      <g>
       <use xlink:href="#m8b6a3638ee" x="333.247099" y="372.24" style="stroke: #000000; stroke-width: 0.8"/>
      </g>
     </g>
    </g>
    <g id="xtick_6">
     <g id="line2d_11">
      <path d="M 390.602056 372.24 
L 390.602056 95.04 
" clip-path="url(#pd6dbcbb638)" style="fill: none; stroke: #b0b0b0; stroke-width: 0.8; stroke-linecap: square"/>
     </g>
     <g id="line2d_12">
      <g>
       <use xlink:href="#m8b6a3638ee" x="390.602056" y="372.24" style="stroke: #000000; stroke-width: 0.8"/>
      </g>
     </g>
    </g>
    <g id="xtick_7">
     <g id="line2d_13">
      <path d="M 447.957012 372.24 
L 447.957012 95.04 
" clip-path="url(#pd6dbcbb638)" style="fill: none; stroke: #b0b0b0; stroke-width: 0.8; stroke-linecap: square"/>
     </g>
     <g id="line2d_14">
      <g>
       <use xlink:href="#m8b6a3638ee" x="447.957012" y="372.24" style="stroke: #000000; stroke-width: 0.8"/>
      </g>
     </g>
    </g>
    <g id="xtick_8">
     <g id="line2d_15">
      <path d="M 505.311969 372.24 
L 505.311969 95.04 
" clip-path="url(#pd6dbcbb638)" style="fill: none; stroke: #b0b0b0; stroke-width: 0.8; stroke-linecap: square"/>
     </g>
     <g id="line2d_16">
      <g>
       <use xlink:href="#m8b6a3638ee" x="505.311969" y="372.24" style="stroke: #000000; stroke-width: 0.8"/>
      </g>
     </g>
    </g>
    <g id="xtick_9">
     <g id="line2d_17">
      <path d="M 562.666926 372.24 
L 562.666926 95.04 
" clip-path="url(#pd6dbcbb638)" style="fill: none; stroke: #b0b0b0; stroke-width: 0.8; stroke-linecap: square"/>
     </g>
     <g id="line2d_18">
      <g>
       <use xlink:href="#m8b6a3638ee" x="562.666926" y="372.24" style="stroke: #000000; stroke-width: 0.8"/>
      </g>
     </g>
    </g>
   </g>
   <g id="matplotlib.axis_2">
    <g id="ytick_1">
     <g id="line2d_19">
      <path d="M 81 350.762299 
L 583.2 350.762299 
" clip-path="url(#pd6dbcbb638)" style="fill: none; stroke: #b0b0b0; stroke-width: 0.8; stroke-linecap: square"/>
     </g>
     <g id="line2d_20">
      <defs>
       <path id="m70467af23e" d="M 0 0 
L -3.5 0 
" style="stroke: #000000; stroke-width: 0.8"/>
      </defs>
      <g>
       <use xlink:href="#m70467af23e" x="81" y="350.762299" style="stroke: #000000; stroke-width: 0.8"/>
      </g>
     </g>
     <g id="text_1">
      <!-- −40 -->
      <g transform="translate(52.895313 354.561518) scale(0.1 -0.1)">
       <defs>
        <path id="DejaVuSans-2212" d="M 678 2272 
L 4684 2272 
L 4684 1741 
L 678 1741 
L 678 2272 
z
" transform="scale(0.015625)"/>
        <path id="DejaVuSans-34" d="M 2419 4116 
L 825 1625 
L 2419 1625 
L 2419 4116 
z
M 2253 4666 
L 3047 4666 
L 3047 1625 
L 3713 1625 
L 3713 1100 
L 3047 1100 
L 3047 0 
L 2419 0 
L 2419 1100 
L 313 1100 
L 313 1709 
L 2253 4666 
z
" transform="scale(0.015625)"/>
        <path id="DejaVuSans-30" d="M 2034 4250 
Q 1547 4250 1301 3770 
Q 1056 3291 1056 2328 
Q 1056 1369 1301 889 
Q 1547 409 2034 409 
Q 2525 409 2770 889 
Q 3016 1369 3016 2328 
Q 3016 3291 2770 3770 
Q 2525 4250 2034 4250 
z
M 2034 4750 
Q 2819 4750 3233 4129 
Q 3647 3509 3647 2328 
Q 3647 1150 3233 529 
Q 2819 -91 2034 -91 
Q 1250 -91 836 529 
Q 422 1150 422 2328 
Q 422 3509 836 4129 
Q 1250 4750 2034 4750 
z
" transform="scale(0.015625)"/>
       </defs>
       <use xlink:href="#DejaVuSans-2212"/>
       <use xlink:href="#DejaVuSans-34" x="83.789062"/>
       <use xlink:href="#DejaVuSans-30" x="147.412109"/>
      </g>
     </g>
    </g>
    <g id="ytick_2">
     <g id="line2d_21">
      <path d="M 81 318.003155 
L 583.2 318.003155 
" clip-path="url(#pd6dbcbb638)" style="fill: none; stroke: #b0b0b0; stroke-width: 0.8; stroke-linecap: square"/>
     </g>
     <g id="line2d_22">
      <g>
       <use xlink:href="#m70467af23e" x="81" y="318.003155" style="stroke: #000000; stroke-width: 0.8"/>
      </g>
     </g>
     <g id="text_2">
      <!-- −20 -->
      <g transform="translate(52.895313 321.802374) scale(0.1 -0.1)">
       <defs>
        <path id="DejaVuSans-32" d="M 1228 531 
L 3431 531 
L 3431 0 
L 469 0 
L 469 531 
Q 828 903 1448 1529 
Q 2069 2156 2228 2338 
Q 2531 2678 2651 2914 
Q 2772 3150 2772 3378 
Q 2772 3750 2511 3984 
Q 2250 4219 1831 4219 
Q 1534 4219 1204 4116 
Q 875 4013 500 3803 
L 500 4441 
Q 881 4594 1212 4672 
Q 1544 4750 1819 4750 
Q 2544 4750 2975 4387 
Q 3406 4025 3406 3419 
Q 3406 3131 3298 2873 
Q 3191 2616 2906 2266 
Q 2828 2175 2409 1742 
Q 1991 1309 1228 531 
z
" transform="scale(0.015625)"/>
       </defs>
       <use xlink:href="#DejaVuSans-2212"/>
       <use xlink:href="#DejaVuSans-32" x="83.789062"/>
       <use xlink:href="#DejaVuSans-30" x="147.412109"/>
      </g>
     </g>
    </g>
    <g id="ytick_3">
     <g id="line2d_23">
      <path d="M 81 285.244012 
L 583.2 285.244012 
" clip-path="url(#pd6dbcbb638)" style="fill: none; stroke: #b0b0b0; stroke-width: 0.8; stroke-linecap: square"/>
     </g>
     <g id="line2d_24">
      <g>
       <use xlink:href="#m70467af23e" x="81" y="285.244012" style="stroke: #000000; stroke-width: 0.8"/>
      </g>
     </g>
     <g id="text_3">
      <!-- 0 -->
      <g transform="translate(67.6375 289.043231) scale(0.1 -0.1)">
       <use xlink:href="#DejaVuSans-30"/>
      </g>
     </g>
    </g>
    <g id="ytick_4">
     <g id="line2d_25">
      <path d="M 81 252.484868 
L 583.2 252.484868 
" clip-path="url(#pd6dbcbb638)" style="fill: none; stroke: #b0b0b0; stroke-width: 0.8; stroke-linecap: square"/>
     </g>
     <g id="line2d_26">
      <g>
       <use xlink:href="#m70467af23e" x="81" y="252.484868" style="stroke: #000000; stroke-width: 0.8"/>
      </g>
     </g>
     <g id="text_4">
      <!-- 20 -->
      <g transform="translate(61.275 256.284087) scale(0.1 -0.1)">
       <use xlink:href="#DejaVuSans-32"/>
       <use xlink:href="#DejaVuSans-30" x="63.623047"/>
      </g>
     </g>
    </g>
    <g id="ytick_5">
     <g id="line2d_27">
      <path d="M 81 219.725725 
L 583.2 219.725725 
" clip-path="url(#pd6dbcbb638)" style="fill: none; stroke: #b0b0b0; stroke-width: 0.8; stroke-linecap: square"/>
     </g>
     <g id="line2d_28">
      <g>
       <use xlink:href="#m70467af23e" x="81" y="219.725725" style="stroke: #000000; stroke-width: 0.8"/>
      </g>
     </g>
     <g id="text_5">
      <!-- 40 -->
      <g transform="translate(61.275 223.524944) scale(0.1 -0.1)">
       <use xlink:href="#DejaVuSans-34"/>
       <use xlink:href="#DejaVuSans-30" x="63.623047"/>
      </g>
     </g>
    </g>
    <g id="ytick_6">
     <g id="line2d_29">
      <path d="M 81 186.966582 
L 583.2 186.966582 
" clip-path="url(#pd6dbcbb638)" style="fill: none; stroke: #b0b0b0; stroke-width: 0.8; stroke-linecap: square"/>
     </g>
     <g id="line2d_30">
      <g>
       <use xlink:href="#m70467af23e" x="81" y="186.966582" style="stroke: #000000; stroke-width: 0.8"/>
      </g>
     </g>
     <g id="text_6">
      <!-- 60 -->
      <g transform="translate(61.275 190.7658) scale(0.1 -0.1)">
       <defs>
        <path id="DejaVuSans-36" d="M 2113 2584 
Q 1688 2584 1439 2293 
Q 1191 2003 1191 1497 
Q 1191 994 1439 701 
Q 1688 409 2113 409 
Q 2538 409 2786 701 
Q 3034 994 3034 1497 
Q 3034 2003 2786 2293 
Q 2538 2584 2113 2584 
z
M 3366 4563 
L 3366 3988 
Q 3128 4100 2886 4159 
Q 2644 4219 2406 4219 
Q 1781 4219 1451 3797 
Q 1122 3375 1075 2522 
Q 1259 2794 1537 2939 
Q 1816 3084 2150 3084 
Q 2853 3084 3261 2657 
Q 3669 2231 3669 1497 
Q 3669 778 3244 343 
Q 2819 -91 2113 -91 
Q 1303 -91 875 529 
Q 447 1150 447 2328 
Q 447 3434 972 4092 
Q 1497 4750 2381 4750 
Q 2619 4750 2861 4703 
Q 3103 4656 3366 4563 
z
" transform="scale(0.015625)"/>
       </defs>
       <use xlink:href="#DejaVuSans-36"/>
       <use xlink:href="#DejaVuSans-30" x="63.623047"/>
      </g>
     </g>
    </g>
    <g id="ytick_7">
     <g id="line2d_31">
      <path d="M 81 154.207438 
L 583.2 154.207438 
" clip-path="url(#pd6dbcbb638)" style="fill: none; stroke: #b0b0b0; stroke-width: 0.8; stroke-linecap: square"/>
     </g>
     <g id="line2d_32">
      <g>
       <use xlink:href="#m70467af23e" x="81" y="154.207438" style="stroke: #000000; stroke-width: 0.8"/>
      </g>
     </g>
     <g id="text_7">
      <!-- 80 -->
      <g transform="translate(61.275 158.006657) scale(0.1 -0.1)">
       <defs>
        <path id="DejaVuSans-38" d="M 2034 2216 
Q 1584 2216 1326 1975 
Q 1069 1734 1069 1313 
Q 1069 891 1326 650 
Q 1584 409 2034 409 
Q 2484 409 2743 651 
Q 3003 894 3003 1313 
Q 3003 1734 2745 1975 
Q 2488 2216 2034 2216 
z
M 1403 2484 
Q 997 2584 770 2862 
Q 544 3141 544 3541 
Q 544 4100 942 4425 
Q 1341 4750 2034 4750 
Q 2731 4750 3128 4425 
Q 3525 4100 3525 3541 
Q 3525 3141 3298 2862 
Q 3072 2584 2669 2484 
Q 3125 2378 3379 2068 
Q 3634 1759 3634 1313 
Q 3634 634 3220 271 
Q 2806 -91 2034 -91 
Q 1263 -91 848 271 
Q 434 634 434 1313 
Q 434 1759 690 2068 
Q 947 2378 1403 2484 
z
M 1172 3481 
Q 1172 3119 1398 2916 
Q 1625 2713 2034 2713 
Q 2441 2713 2670 2916 
Q 2900 3119 2900 3481 
Q 2900 3844 2670 4047 
Q 2441 4250 2034 4250 
Q 1625 4250 1398 4047 
Q 1172 3844 1172 3481 
z
" transform="scale(0.015625)"/>
       </defs>
       <use xlink:href="#DejaVuSans-38"/>
       <use xlink:href="#DejaVuSans-30" x="63.623047"/>
      </g>
     </g>
    </g>
    <g id="ytick_8">
     <g id="line2d_33">
      <path d="M 81 121.448295 
L 583.2 121.448295 
" clip-path="url(#pd6dbcbb638)" style="fill: none; stroke: #b0b0b0; stroke-width: 0.8; stroke-linecap: square"/>
     </g>
     <g id="line2d_34">
      <g>
       <use xlink:href="#m70467af23e" x="81" y="121.448295" style="stroke: #000000; stroke-width: 0.8"/>
      </g>
     </g>
     <g id="text_8">
      <!-- 100 -->
      <g transform="translate(54.9125 125.247513) scale(0.1 -0.1)">
       <defs>
        <path id="DejaVuSans-31" d="M 794 531 
L 1825 531 
L 1825 4091 
L 703 3866 
L 703 4441 
L 1819 4666 
L 2450 4666 
L 2450 531 
L 3481 531 
L 3481 0 
L 794 0 
L 794 531 
z
" transform="scale(0.015625)"/>
       </defs>
       <use xlink:href="#DejaVuSans-31"/>
       <use xlink:href="#DejaVuSans-30" x="63.623047"/>
       <use xlink:href="#DejaVuSans-30" x="127.246094"/>
      </g>
     </g>
    </g>
    <g id="text_9">
     <!-- $Re\{\sigma^{(2)}_{yxx}\} \: 10^{17} [m. A/(Vs)^2]$  -->
     <g transform="translate(43.065712 323.7212) rotate(-90) scale(0.1388 -0.1388)">
      <defs>
       <path id="DejaVuSans-Oblique-52" d="M 1613 4147 
L 1294 2491 
L 2106 2491 
Q 2584 2491 2879 2755 
Q 3175 3019 3175 3444 
Q 3175 3784 2976 3965 
Q 2778 4147 2406 4147 
L 1613 4147 
z
M 2772 2241 
Q 2972 2194 3105 2009 
Q 3238 1825 3413 1275 
L 3809 0 
L 3144 0 
L 2778 1197 
Q 2638 1659 2453 1815 
Q 2269 1972 1888 1972 
L 1191 1972 
L 806 0 
L 172 0 
L 1081 4666 
L 2503 4666 
Q 3150 4666 3495 4373 
Q 3841 4081 3841 3531 
Q 3841 3044 3547 2687 
Q 3253 2331 2772 2241 
z
" transform="scale(0.015625)"/>
       <path id="DejaVuSans-Oblique-65" d="M 3078 2063 
Q 3088 2113 3092 2166 
Q 3097 2219 3097 2272 
Q 3097 2653 2873 2875 
Q 2650 3097 2266 3097 
Q 1838 3097 1509 2826 
Q 1181 2556 1013 2059 
L 3078 2063 
z
M 3578 1613 
L 903 1613 
Q 884 1494 878 1425 
Q 872 1356 872 1306 
Q 872 872 1139 634 
Q 1406 397 1894 397 
Q 2269 397 2603 481 
Q 2938 566 3225 728 
L 3116 159 
Q 2806 34 2476 -28 
Q 2147 -91 1806 -91 
Q 1078 -91 686 257 
Q 294 606 294 1247 
Q 294 1794 489 2264 
Q 684 2734 1063 3103 
Q 1306 3334 1642 3459 
Q 1978 3584 2356 3584 
Q 2950 3584 3301 3228 
Q 3653 2872 3653 2272 
Q 3653 2128 3634 1964 
Q 3616 1800 3578 1613 
z
" transform="scale(0.015625)"/>
       <path id="DejaVuSans-7b" d="M 3272 -594 
L 3272 -1044 
L 3078 -1044 
Q 2300 -1044 2036 -812 
Q 1772 -581 1772 109 
L 1772 856 
Q 1772 1328 1603 1509 
Q 1434 1691 991 1691 
L 800 1691 
L 800 2138 
L 991 2138 
Q 1438 2138 1605 2317 
Q 1772 2497 1772 2963 
L 1772 3713 
Q 1772 4403 2036 4633 
Q 2300 4863 3078 4863 
L 3272 4863 
L 3272 4416 
L 3059 4416 
Q 2619 4416 2484 4278 
Q 2350 4141 2350 3700 
L 2350 2925 
Q 2350 2434 2208 2212 
Q 2066 1991 1722 1913 
Q 2069 1828 2209 1606 
Q 2350 1384 2350 897 
L 2350 122 
Q 2350 -319 2484 -456 
Q 2619 -594 3059 -594 
L 3272 -594 
z
" transform="scale(0.015625)"/>
       <path id="DejaVuSans-Oblique-3c3" d="M 2219 3044 
Q 1744 3044 1422 2700 
Q 1081 2341 969 1747 
Q 844 1119 1044 756 
Q 1241 397 1706 397 
Q 2166 397 2503 759 
Q 2844 1122 2966 1747 
Q 3075 2319 2881 2700 
Q 2700 3044 2219 3044 
z
M 2309 3503 
L 4219 3500 
L 4106 2925 
L 3463 2925 
Q 3706 2438 3575 1747 
Q 3406 888 2884 400 
Q 2359 -91 1609 -91 
Q 856 -91 525 400 
Q 194 888 363 1747 
Q 528 2609 1050 3097 
Q 1484 3503 2309 3503 
z
" transform="scale(0.015625)"/>
       <path id="DejaVuSans-28" d="M 1984 4856 
Q 1566 4138 1362 3434 
Q 1159 2731 1159 2009 
Q 1159 1288 1364 580 
Q 1569 -128 1984 -844 
L 1484 -844 
Q 1016 -109 783 600 
Q 550 1309 550 2009 
Q 550 2706 781 3412 
Q 1013 4119 1484 4856 
L 1984 4856 
z
" transform="scale(0.015625)"/>
       <path id="DejaVuSans-29" d="M 513 4856 
L 1013 4856 
Q 1481 4119 1714 3412 
Q 1947 2706 1947 2009 
Q 1947 1309 1714 600 
Q 1481 -109 1013 -844 
L 513 -844 
Q 928 -128 1133 580 
Q 1338 1288 1338 2009 
Q 1338 2731 1133 3434 
Q 928 4138 513 4856 
z
" transform="scale(0.015625)"/>
       <path id="DejaVuSans-Oblique-79" d="M 1588 -325 
Q 1188 -997 936 -1164 
Q 684 -1331 294 -1331 
L -159 -1331 
L -63 -850 
L 269 -850 
Q 509 -850 678 -719 
Q 847 -588 1056 -206 
L 1234 128 
L 459 3500 
L 1069 3500 
L 1650 819 
L 3256 3500 
L 3859 3500 
L 1588 -325 
z
" transform="scale(0.015625)"/>
       <path id="DejaVuSans-Oblique-78" d="M 3841 3500 
L 2234 1784 
L 3219 0 
L 2559 0 
L 1819 1388 
L 531 0 
L -166 0 
L 1556 1844 
L 641 3500 
L 1300 3500 
L 1972 2234 
L 3144 3500 
L 3841 3500 
z
" transform="scale(0.015625)"/>
       <path id="DejaVuSans-7d" d="M 800 -594 
L 1019 -594 
Q 1456 -594 1589 -459 
Q 1722 -325 1722 122 
L 1722 897 
Q 1722 1384 1862 1606 
Q 2003 1828 2350 1913 
Q 2003 1991 1862 2212 
Q 1722 2434 1722 2925 
L 1722 3700 
Q 1722 4144 1589 4280 
Q 1456 4416 1019 4416 
L 800 4416 
L 800 4863 
L 997 4863 
Q 1775 4863 2036 4633 
Q 2297 4403 2297 3713 
L 2297 2963 
Q 2297 2497 2465 2317 
Q 2634 2138 3078 2138 
L 3272 2138 
L 3272 1691 
L 3078 1691 
Q 2634 1691 2465 1509 
Q 2297 1328 2297 856 
L 2297 109 
Q 2297 -581 2036 -812 
Q 1775 -1044 997 -1044 
L 800 -1044 
L 800 -594 
z
" transform="scale(0.015625)"/>
       <path id="DejaVuSans-37" d="M 525 4666 
L 3525 4666 
L 3525 4397 
L 1831 0 
L 1172 0 
L 2766 4134 
L 525 4134 
L 525 4666 
z
" transform="scale(0.015625)"/>
       <path id="DejaVuSans-5b" d="M 550 4863 
L 1875 4863 
L 1875 4416 
L 1125 4416 
L 1125 -397 
L 1875 -397 
L 1875 -844 
L 550 -844 
L 550 4863 
z
" transform="scale(0.015625)"/>
       <path id="DejaVuSans-Oblique-6d" d="M 5747 2113 
L 5338 0 
L 4763 0 
L 5166 2094 
Q 5191 2228 5203 2325 
Q 5216 2422 5216 2491 
Q 5216 2772 5059 2928 
Q 4903 3084 4622 3084 
Q 4203 3084 3875 2770 
Q 3547 2456 3450 1953 
L 3066 0 
L 2491 0 
L 2900 2094 
Q 2925 2209 2937 2307 
Q 2950 2406 2950 2484 
Q 2950 2769 2794 2926 
Q 2638 3084 2363 3084 
Q 1938 3084 1609 2770 
Q 1281 2456 1184 1953 
L 800 0 
L 225 0 
L 909 3500 
L 1484 3500 
L 1375 2956 
Q 1609 3263 1923 3423 
Q 2238 3584 2597 3584 
Q 2978 3584 3223 3384 
Q 3469 3184 3519 2828 
Q 3781 3197 4126 3390 
Q 4472 3584 4856 3584 
Q 5306 3584 5551 3325 
Q 5797 3066 5797 2591 
Q 5797 2488 5784 2364 
Q 5772 2241 5747 2113 
z
" transform="scale(0.015625)"/>
       <path id="DejaVuSans-2e" d="M 684 794 
L 1344 794 
L 1344 0 
L 684 0 
L 684 794 
z
" transform="scale(0.015625)"/>
       <path id="DejaVuSans-Oblique-41" d="M 2356 4666 
L 3072 4666 
L 3938 0 
L 3278 0 
L 3084 1197 
L 984 1197 
L 325 0 
L -341 0 
L 2356 4666 
z
M 2584 4044 
L 1275 1722 
L 2988 1722 
L 2584 4044 
z
" transform="scale(0.015625)"/>
       <path id="DejaVuSans-2f" d="M 1625 4666 
L 2156 4666 
L 531 -594 
L 0 -594 
L 1625 4666 
z
" transform="scale(0.015625)"/>
       <path id="DejaVuSans-Oblique-56" d="M 1319 0 
L 500 4666 
L 1119 4666 
L 1797 653 
L 4063 4666 
L 4750 4666 
L 2053 0 
L 1319 0 
z
" transform="scale(0.015625)"/>
       <path id="DejaVuSans-Oblique-73" d="M 3200 3397 
L 3091 2853 
Q 2863 2978 2609 3040 
Q 2356 3103 2088 3103 
Q 1634 3103 1373 2948 
Q 1113 2794 1113 2528 
Q 1113 2219 1719 2053 
Q 1766 2041 1788 2034 
L 1972 1978 
Q 2547 1819 2739 1644 
Q 2931 1469 2931 1166 
Q 2931 609 2489 259 
Q 2047 -91 1331 -91 
Q 1053 -91 747 -37 
Q 441 16 72 128 
L 184 722 
Q 500 559 806 475 
Q 1113 391 1394 391 
Q 1816 391 2080 572 
Q 2344 753 2344 1031 
Q 2344 1331 1650 1516 
L 1591 1531 
L 1394 1581 
Q 956 1697 753 1886 
Q 550 2075 550 2369 
Q 550 2928 970 3256 
Q 1391 3584 2113 3584 
Q 2397 3584 2667 3537 
Q 2938 3491 3200 3397 
z
" transform="scale(0.015625)"/>
       <path id="DejaVuSans-5d" d="M 1947 4863 
L 1947 -844 
L 622 -844 
L 622 -397 
L 1369 -397 
L 1369 4416 
L 622 4416 
L 622 4863 
L 1947 4863 
z
" transform="scale(0.015625)"/>
       <path id="DejaVuSans-20" transform="scale(0.015625)"/>
      </defs>
      <use xlink:href="#DejaVuSans-Oblique-52" transform="translate(0 0.60625)"/>
      <use xlink:href="#DejaVuSans-Oblique-65" transform="translate(69.482422 0.60625)"/>
      <use xlink:href="#DejaVuSans-7b" transform="translate(131.005859 0.60625)"/>
      <use xlink:href="#DejaVuSans-Oblique-3c3" transform="translate(194.628906 0.60625)"/>
      <use xlink:href="#DejaVuSans-28" transform="translate(262.480521 38.8875) scale(0.7)"/>
      <use xlink:href="#DejaVuSans-32" transform="translate(289.790091 38.8875) scale(0.7)"/>
      <use xlink:href="#DejaVuSans-29" transform="translate(334.326224 38.8875) scale(0.7)"/>
      <use xlink:href="#DejaVuSans-Oblique-79" transform="translate(258.007812 -26.7375) scale(0.7)"/>
      <use xlink:href="#DejaVuSans-Oblique-78" transform="translate(299.433594 -26.7375) scale(0.7)"/>
      <use xlink:href="#DejaVuSans-Oblique-78" transform="translate(340.859375 -26.7375) scale(0.7)"/>
      <use xlink:href="#DejaVuSans-7d" transform="translate(385.019531 0.60625)"/>
      <use xlink:href="#DejaVuSans-31" transform="translate(470.289497 0.60625)"/>
      <use xlink:href="#DejaVuSans-30" transform="translate(533.912544 0.60625)"/>
      <use xlink:href="#DejaVuSans-31" transform="translate(598.492622 38.8875) scale(0.7)"/>
      <use xlink:href="#DejaVuSans-37" transform="translate(643.028755 38.8875) scale(0.7)"/>
      <use xlink:href="#DejaVuSans-5b" transform="translate(690.299263 0.60625)"/>
      <use xlink:href="#DejaVuSans-Oblique-6d" transform="translate(729.312935 0.60625)"/>
      <use xlink:href="#DejaVuSans-2e" transform="translate(826.725044 0.60625)"/>
      <use xlink:href="#DejaVuSans-Oblique-41" transform="translate(877.994575 0.60625)"/>
      <use xlink:href="#DejaVuSans-2f" transform="translate(946.402778 0.60625)"/>
      <use xlink:href="#DejaVuSans-28" transform="translate(980.094185 0.60625)"/>
      <use xlink:href="#DejaVuSans-Oblique-56" transform="translate(1019.107856 0.60625)"/>
      <use xlink:href="#DejaVuSans-Oblique-73" transform="translate(1087.51606 0.60625)"/>
      <use xlink:href="#DejaVuSans-29" transform="translate(1139.615669 0.60625)"/>
      <use xlink:href="#DejaVuSans-32" transform="translate(1179.586372 38.8875) scale(0.7)"/>
      <use xlink:href="#DejaVuSans-5d" transform="translate(1226.85688 0.60625)"/>
      <use xlink:href="#DejaVuSans-20" transform="translate(1265.870552 0.60625)"/>
     </g>
    </g>
   </g>
   <g id="line2d_35">
    <path d="M 103.827273 285.219368 
L 211.654591 285.339594 
L 239.18497 285.555486 
L 252.95016 285.840948 
L 262.126953 286.232022 
L 269.009548 286.789203 
L 273.597944 287.441249 
L 275.892143 287.923661 
L 278.186341 288.569848 
L 280.480539 289.442236 
L 282.774737 290.595103 
L 291.95153 296.197445 
L 296.539927 298.517212 
L 298.834125 299.814243 
L 305.71672 304.151443 
L 308.010918 305.179444 
L 310.305116 305.885489 
L 312.599315 306.333833 
L 314.893513 306.590645 
L 319.48191 306.711206 
L 324.070306 306.48166 
L 328.658703 306.007002 
L 333.247099 305.332413 
L 337.835496 304.473067 
L 342.423892 303.425916 
L 347.012289 302.173634 
L 351.600685 300.684207 
L 356.189082 298.906768 
L 360.777478 296.761846 
L 363.071677 295.51619 
L 365.365875 294.121845 
L 367.660073 292.555988 
L 369.954271 290.77086 
L 372.24847 288.719514 
L 374.542668 286.316677 
L 376.836866 283.460638 
L 379.131064 279.980132 
L 381.425263 275.638691 
L 383.719461 270.051892 
L 386.013659 262.649063 
L 388.307857 252.584841 
L 390.602056 238.83617 
L 392.896254 220.735938 
L 399.778849 156.512502 
L 402.073047 144.027303 
L 404.367245 141.83452 
L 406.661444 149.004463 
L 408.955642 162.131672 
L 415.838237 209.156021 
L 418.132435 222.118756 
L 420.426633 231.810979 
L 422.720831 237.455769 
L 425.01503 239.12186 
L 427.309228 236.516537 
L 429.603426 228.063041 
L 431.897624 213.151572 
L 434.191823 194.68319 
L 436.486021 178.026255 
L 438.780219 167.812765 
L 441.074418 166.478983 
L 443.368616 174.438884 
L 445.662814 189.74264 
L 447.957012 209.070657 
L 457.133805 292.802971 
L 459.428004 311.107776 
L 461.722202 326.185396 
L 464.0164 337.047415 
L 466.310598 343.084877 
L 468.604797 344.068652 
L 470.898995 340.373653 
L 473.193193 333.238803 
L 475.487392 324.886906 
L 477.78159 318.568582 
L 480.075788 316.759396 
L 482.369986 317.899575 
L 484.664185 317.750434 
L 486.958383 314.063782 
L 491.546779 301.24366 
L 493.840978 296.306073 
L 496.135176 293.345693 
L 498.429374 291.805534 
L 500.723572 291.050189 
L 503.017771 290.686928 
L 512.194564 289.969046 
L 514.488762 289.583106 
L 516.78296 289.040912 
L 523.665555 287.046022 
L 525.959753 286.590219 
L 530.54815 286.051363 
L 537.430745 285.666959 
L 546.607538 285.43977 
L 560.372727 285.304467 
L 560.372727 285.304467 
" clip-path="url(#pd6dbcbb638)" style="fill: none; stroke: #1f77b4; stroke-width: 1.5; stroke-linecap: square"/>
   </g>
   <g id="line2d_36">
    <path d="M 103.827273 285.242118 
L 227.713979 285.368726 
L 252.95016 285.591968 
L 264.421151 285.889848 
L 271.303746 286.276768 
L 275.892143 286.75594 
L 278.186341 287.123853 
L 280.480539 287.627089 
L 282.774737 288.310287 
L 287.363134 290.184347 
L 289.657332 291.127507 
L 291.95153 291.882575 
L 294.245729 292.424821 
L 296.539927 292.792783 
L 301.128323 293.185499 
L 305.71672 293.319476 
L 324.070306 293.452489 
L 326.364504 293.664135 
L 328.658703 294.008027 
L 330.952901 294.567764 
L 333.247099 295.348387 
L 337.835496 297.129765 
L 340.129694 297.720762 
L 342.423892 298.028701 
L 344.71809 298.100007 
L 347.012289 297.939841 
L 349.306487 297.667427 
L 351.600685 297.267628 
L 356.189082 296.184646 
L 360.777478 294.770568 
L 365.365875 293.085496 
L 369.954271 291.080165 
L 374.542668 288.646866 
L 376.836866 287.257648 
L 379.131064 285.676316 
L 381.425263 283.931649 
L 383.719461 281.910859 
L 386.013659 279.544492 
L 388.307857 276.745839 
L 390.602056 273.26758 
L 392.896254 268.877665 
L 395.190452 263.134678 
L 397.484651 255.480356 
L 399.778849 245.539166 
L 404.367245 221.959815 
L 406.661444 213.435427 
L 408.955642 210.337232 
L 411.24984 212.327179 
L 413.544038 217.338144 
L 418.132435 229.685711 
L 420.426633 235.418175 
L 422.720831 240.412798 
L 425.01503 244.472207 
L 427.309228 247.41723 
L 429.603426 249.095621 
L 431.897624 249.57072 
L 434.191823 249.347065 
L 436.486021 249.284728 
L 438.780219 250.097892 
L 441.074418 252.329211 
L 443.368616 256.744669 
L 445.662814 263.720026 
L 447.957012 271.900795 
L 450.251211 278.682315 
L 452.545409 282.487968 
L 454.839607 283.681208 
L 457.133805 283.391373 
L 459.428004 282.204081 
L 461.722202 280.304481 
L 464.0164 278.135616 
L 466.310598 276.719583 
L 468.604797 277.698436 
L 470.898995 282.579791 
L 473.193193 291.144278 
L 475.487392 301.175804 
L 477.78159 310.511657 
L 480.075788 318.351832 
L 482.369986 324.782247 
L 484.664185 330.118081 
L 486.958383 334.631988 
L 489.252581 338.501201 
L 491.546779 341.816943 
L 493.840978 344.594864 
L 496.135176 346.783959 
L 498.429374 348.261877 
L 500.723572 348.828955 
L 503.017771 348.212221 
L 505.311969 346.098802 
L 507.606167 342.232124 
L 509.900365 336.555903 
L 512.194564 329.316327 
L 514.488762 320.957931 
L 516.78296 311.806881 
L 523.665555 282.692884 
L 525.959753 274.932878 
L 528.253952 269.298799 
L 530.54815 265.68378 
L 532.842348 263.580366 
L 535.136546 262.748866 
L 537.430745 263.371576 
L 539.724943 265.346698 
L 542.019141 268.084833 
L 551.195934 279.918561 
L 553.490132 282.709712 
L 555.784331 285.257528 
L 558.078529 287.330406 
L 560.372727 288.694859 
L 560.372727 288.694859 
" clip-path="url(#pd6dbcbb638)" style="fill: none; stroke: #ff7f0e; stroke-width: 1.5; stroke-linecap: square"/>
   </g>
   <g id="line2d_37">
    <path d="M 103.827273 285.144181 
L 200.1836 285.220852 
L 220.831384 285.421399 
L 232.302376 285.72795 
L 239.18497 286.11 
L 243.773367 286.556799 
L 248.361763 287.325558 
L 250.655962 287.922492 
L 252.95016 288.731918 
L 255.244358 289.786151 
L 259.832755 292.270367 
L 262.126953 293.3632 
L 264.421151 294.269383 
L 273.597944 297.497012 
L 275.892143 298.623639 
L 280.480539 301.137086 
L 282.774737 302.129953 
L 285.068936 302.81317 
L 287.363134 303.223691 
L 289.657332 303.422966 
L 291.95153 303.461673 
L 296.539927 303.187882 
L 301.128323 302.56071 
L 305.71672 301.638591 
L 310.305116 300.428864 
L 314.893513 298.902686 
L 319.48191 296.990218 
L 321.776108 295.852086 
L 324.070306 294.564899 
L 326.364504 293.10517 
L 328.658703 291.451317 
L 330.952901 289.585331 
L 333.247099 287.49385 
L 335.541297 285.161804 
L 337.835496 282.570957 
L 340.129694 279.719866 
L 344.71809 273.495727 
L 351.600685 263.777556 
L 353.894884 260.878184 
L 356.189082 258.609019 
L 358.48328 257.24206 
L 360.777478 256.977087 
L 363.071677 257.816013 
L 367.660073 261.035756 
L 369.954271 260.430233 
L 372.24847 255.570154 
L 374.542668 246.082992 
L 376.836866 232.956918 
L 379.131064 217.365197 
L 386.013659 165.804997 
L 388.307857 153.891537 
L 390.602056 149.212881 
L 392.896254 151.148559 
L 395.190452 156.852505 
L 399.778849 170.794862 
L 402.073047 177.093513 
L 404.367245 182.440453 
L 406.661444 186.609434 
L 408.955642 189.579403 
L 411.24984 191.890345 
L 413.544038 195.003353 
L 415.838237 201.061856 
L 418.132435 210.601066 
L 420.426633 221.118726 
L 422.720831 229.086987 
L 425.01503 231.968554 
L 427.309228 229.159606 
L 429.603426 222.030416 
L 434.191823 203.555417 
L 438.780219 184.809745 
L 441.074418 174.972919 
L 445.662814 153.703953 
L 447.957012 143.158906 
L 450.251211 135.599715 
L 452.545409 135.466424 
L 454.839607 145.35969 
L 457.133805 162.173068 
L 459.428004 180.299031 
L 461.722202 196.516795 
L 464.0164 210.162683 
L 466.310598 221.586108 
L 468.604797 231.2958 
L 470.898995 239.686396 
L 473.193193 246.999973 
L 475.487392 253.378607 
L 477.78159 258.912426 
L 480.075788 263.660099 
L 482.369986 267.664224 
L 484.664185 270.967297 
L 486.958383 273.624552 
L 489.252581 275.710542 
L 491.546779 277.317381 
L 493.840978 278.545719 
L 496.135176 279.490647 
L 498.429374 280.229858 
L 503.017771 281.301182 
L 507.606167 282.035398 
L 514.488762 282.781205 
L 521.371357 283.280573 
L 530.54815 283.730863 
L 544.313339 284.154588 
L 560.372727 284.452205 
L 560.372727 284.452205 
" clip-path="url(#pd6dbcbb638)" style="fill: none; stroke: #2ca02c; stroke-width: 1.5; stroke-linecap: square"/>
   </g>
   <g id="line2d_38">
    <path d="M 103.827273 285.161054 
L 213.948789 285.224105 
L 230.008177 285.434685 
L 236.890772 285.673743 
L 241.479169 285.971319 
L 246.067565 286.510678 
L 248.361763 286.942162 
L 250.655962 287.531198 
L 259.832755 290.508529 
L 262.126953 290.926222 
L 266.715349 291.347046 
L 271.303746 291.43684 
L 278.186341 291.258362 
L 296.539927 290.420968 
L 298.834125 290.488239 
L 301.128323 290.700737 
L 303.422522 291.087569 
L 310.305116 292.71416 
L 312.599315 292.877113 
L 314.893513 292.747933 
L 317.187711 292.389356 
L 319.48191 291.824928 
L 321.776108 291.110453 
L 324.070306 290.249495 
L 328.658703 288.147935 
L 333.247099 285.536726 
L 335.541297 284.024621 
L 337.835496 282.374469 
L 340.129694 280.561061 
L 342.423892 278.577848 
L 344.71809 276.405359 
L 347.012289 274.024214 
L 349.306487 271.415463 
L 351.600685 268.553302 
L 353.894884 265.415699 
L 356.189082 261.976816 
L 358.48328 258.214586 
L 360.777478 254.111379 
L 363.071677 249.657039 
L 365.365875 244.859031 
L 374.542668 224.644764 
L 376.836866 220.5431 
L 379.131064 217.444132 
L 381.425263 216.016202 
L 383.719461 216.356788 
L 386.013659 216.565665 
L 388.307857 213.200529 
L 390.602056 204.479452 
L 392.896254 191.899822 
L 395.190452 178.541026 
L 397.484651 167.508232 
L 399.778849 161.763507 
L 402.073047 162.79858 
L 404.367245 169.324304 
L 406.661444 178.703819 
L 408.955642 189.268762 
L 411.24984 201.038125 
L 413.544038 214.494322 
L 415.838237 228.743306 
L 418.132435 241.879805 
L 420.426633 252.835899 
L 422.720831 261.648426 
L 425.01503 268.768241 
L 427.309228 274.651094 
L 429.603426 279.661918 
L 431.897624 284.080113 
L 434.191823 288.106661 
L 436.486021 291.790405 
L 438.780219 294.832967 
L 441.074418 296.484718 
L 443.368616 295.970157 
L 445.662814 293.000265 
L 447.957012 287.803712 
L 454.839607 267.886033 
L 457.133805 262.646952 
L 466.310598 244.487691 
L 468.604797 238.851982 
L 470.898995 232.114162 
L 473.193193 224.05144 
L 477.78159 205.05083 
L 480.075788 196.600012 
L 482.369986 191.084215 
L 484.664185 190.035965 
L 486.958383 194.003087 
L 489.252581 201.89587 
L 491.546779 212.114238 
L 493.840978 223.636976 
L 498.429374 247.570249 
L 500.723572 258.168682 
L 503.017771 266.925969 
L 505.311969 273.828904 
L 507.606167 279.24504 
L 509.900365 283.420484 
L 512.194564 286.285915 
L 514.488762 287.585473 
L 516.78296 287.339917 
L 519.077159 286.295405 
L 521.371357 285.381354 
L 523.665555 284.910016 
L 525.959753 284.753686 
L 537.430745 284.728239 
L 548.901736 284.03606 
L 560.372727 284.425615 
L 560.372727 284.425615 
" clip-path="url(#pd6dbcbb638)" style="fill: none; stroke: #d62728; stroke-width: 1.5; stroke-linecap: square"/>
   </g>
   <g id="line2d_39">
    <path d="M 103.827273 284.960128 
L 145.122841 284.692765 
L 168.064824 284.350476 
L 181.830014 283.951222 
L 191.006807 283.483158 
L 197.889402 282.887954 
L 202.477798 282.243572 
L 204.771996 281.78657 
L 207.066195 281.189967 
L 209.360393 280.401542 
L 211.654591 279.375427 
L 220.831384 274.399412 
L 225.419781 272.478699 
L 230.008177 270.564167 
L 232.302376 269.443081 
L 234.596574 268.116439 
L 236.890772 266.53725 
L 243.773367 261.279338 
L 246.067565 259.803637 
L 250.655962 257.256548 
L 259.832755 252.459006 
L 262.126953 251.118208 
L 264.421151 249.645867 
L 266.715349 247.982304 
L 269.009548 246.037923 
L 271.303746 243.674298 
L 273.597944 240.679014 
L 275.892143 236.742231 
L 278.186341 231.473343 
L 280.480539 224.564511 
L 285.068936 208.096212 
L 287.363134 202.978358 
L 289.657332 203.128038 
L 294.245729 211.168391 
L 296.539927 212.986679 
L 298.834125 211.611064 
L 301.128323 206.759637 
L 303.422522 198.62368 
L 308.010918 178.225729 
L 310.305116 171.294526 
L 312.599315 168.134227 
L 314.893513 166.265463 
L 317.187711 163.046175 
L 319.48191 157.311589 
L 321.776108 148.954392 
L 324.070306 138.471993 
L 326.364504 126.996308 
L 328.658703 116.409038 
L 330.952901 109.044243 
L 333.247099 107.64 
L 335.541297 114.738607 
L 337.835496 129.661161 
L 342.423892 167.224558 
L 344.71809 184.279847 
L 347.012289 199.406359 
L 349.306487 212.944951 
L 351.600685 224.975398 
L 353.894884 235.454228 
L 356.189082 244.514448 
L 358.48328 252.375859 
L 360.777478 259.183718 
L 363.071677 264.962058 
L 365.365875 269.739308 
L 367.660073 273.701543 
L 369.954271 277.101425 
L 372.24847 280.116676 
L 374.542668 282.848905 
L 376.836866 285.363819 
L 381.425263 289.929446 
L 386.013659 294.113313 
L 402.073047 308.335508 
L 408.955642 314.704846 
L 413.544038 318.557692 
L 420.426633 324.012101 
L 427.309228 329.891187 
L 434.191823 335.848716 
L 438.780219 339.52932 
L 441.074418 341.178468 
L 443.368616 342.647776 
L 445.662814 343.89224 
L 447.957012 344.872235 
L 450.251211 345.544696 
L 452.545409 345.875813 
L 454.839607 345.831676 
L 457.133805 345.389606 
L 459.428004 344.529977 
L 461.722202 343.24503 
L 464.0164 341.53299 
L 466.310598 339.404791 
L 468.604797 336.880767 
L 470.898995 333.996148 
L 473.193193 330.799112 
L 477.78159 323.742465 
L 484.664185 312.852445 
L 486.958383 309.527845 
L 489.252581 306.489625 
L 491.546779 303.785118 
L 493.840978 301.434578 
L 496.135176 299.433266 
L 498.429374 297.756437 
L 500.723572 296.366214 
L 503.017771 295.218158 
L 505.311969 294.266427 
L 509.900365 292.783687 
L 514.488762 291.633836 
L 523.665555 289.669022 
L 532.842348 287.880723 
L 537.430745 287.134478 
L 542.019141 286.557206 
L 546.607538 286.16807 
L 553.490132 285.843988 
L 560.372727 285.670271 
L 560.372727 285.670271 
" clip-path="url(#pd6dbcbb638)" style="fill: none; stroke: #9467bd; stroke-width: 1.5; stroke-linecap: square"/>
   </g>
   <g id="line2d_40">
    <path d="M 103.827273 285.201294 
L 163.476428 285.316152 
L 179.535815 285.531552 
L 186.41841 285.786783 
L 191.006807 286.126956 
L 195.595203 286.759261 
L 204.771996 288.492078 
L 209.360393 288.887332 
L 213.948789 289.040695 
L 220.831384 289.050668 
L 243.773367 288.749993 
L 248.361763 289.07482 
L 252.95016 289.848455 
L 255.244358 290.283207 
L 257.538556 290.600333 
L 259.832755 290.740418 
L 262.126953 290.714986 
L 266.715349 290.29406 
L 271.303746 289.521149 
L 275.892143 288.488023 
L 282.774737 286.606894 
L 287.363134 285.36981 
L 289.657332 284.900396 
L 291.95153 284.632706 
L 296.539927 284.584246 
L 298.834125 283.823922 
L 301.128323 281.042206 
L 303.422522 275.388665 
L 305.71672 267.338767 
L 308.010918 258.683708 
L 310.305116 252.039097 
L 312.599315 249.818791 
L 314.893513 253.277401 
L 317.187711 262.124537 
L 321.776108 286.272891 
L 324.070306 296.928507 
L 326.364504 306.045196 
L 330.952901 322.068097 
L 333.247099 330.119387 
L 337.835496 347.389504 
L 340.129694 355.215061 
L 342.423892 359.64 
L 344.71809 358.445187 
L 347.012289 352.240708 
L 349.306487 344.142995 
L 351.600685 336.925962 
L 356.189082 325.486116 
L 358.48328 318.233665 
L 360.777478 308.260651 
L 363.071677 295.236022 
L 367.660073 265.150862 
L 369.954271 252.600372 
L 372.24847 241.607857 
L 374.542668 229.467556 
L 376.836866 214.357942 
L 379.131064 196.882859 
L 381.425263 180.380959 
L 383.719461 169.355832 
L 386.013659 167.25214 
L 388.307857 174.260132 
L 390.602056 187.043014 
L 392.896254 201.34179 
L 395.190452 214.277487 
L 397.484651 224.868801 
L 399.778849 233.295941 
L 402.073047 239.881052 
L 404.367245 244.739125 
L 406.661444 247.954144 
L 408.955642 249.773574 
L 411.24984 250.539649 
L 413.544038 250.561514 
L 415.838237 250.074294 
L 418.132435 249.229512 
L 420.426633 248.132077 
L 422.720831 246.84371 
L 427.309228 243.856135 
L 431.897624 240.453977 
L 436.486021 236.711044 
L 441.074418 232.666683 
L 447.957012 226.181163 
L 454.839607 219.658098 
L 457.133805 217.636528 
L 459.428004 215.777107 
L 461.722202 214.153575 
L 464.0164 212.853036 
L 466.310598 211.987432 
L 468.604797 211.687635 
L 470.898995 212.103092 
L 473.193193 213.378691 
L 475.487392 215.62217 
L 477.78159 218.849262 
L 480.075788 222.916269 
L 489.252581 241.104955 
L 491.546779 245.083511 
L 493.840978 248.721632 
L 496.135176 252.031865 
L 498.429374 255.038038 
L 500.723572 257.76711 
L 503.017771 260.246732 
L 505.311969 262.50278 
L 507.606167 264.557838 
L 509.900365 266.432916 
L 512.194564 268.145753 
L 516.78296 271.148512 
L 521.371357 273.678821 
L 525.959753 275.822451 
L 530.54815 277.638533 
L 535.136546 279.168307 
L 539.724943 280.442842 
L 544.313339 281.487863 
L 548.901736 282.326846 
L 553.490132 282.983128 
L 560.372727 283.677929 
L 560.372727 283.677929 
" clip-path="url(#pd6dbcbb638)" style="fill: none; stroke: #8c564b; stroke-width: 1.5; stroke-linecap: square"/>
   </g>
   <g id="patch_3">
    <path d="M 81 372.24 
L 81 95.04 
" style="fill: none; stroke: #000000; stroke-width: 0.8; stroke-linejoin: miter; stroke-linecap: square"/>
   </g>
   <g id="patch_4">
    <path d="M 583.2 372.24 
L 583.2 95.04 
" style="fill: none; stroke: #000000; stroke-width: 0.8; stroke-linejoin: miter; stroke-linecap: square"/>
   </g>
   <g id="patch_5">
    <path d="M 81 372.24 
L 583.2 372.24 
" style="fill: none; stroke: #000000; stroke-width: 0.8; stroke-linejoin: miter; stroke-linecap: square"/>
   </g>
   <g id="patch_6">
    <path d="M 81 95.04 
L 583.2 95.04 
" style="fill: none; stroke: #000000; stroke-width: 0.8; stroke-linejoin: miter; stroke-linecap: square"/>
   </g>
   <g id="text_10">
    <!-- (a) -->
    <g transform="translate(81 89.04) scale(0.2 -0.2)">
     <defs>
      <path id="DejaVuSans-61" d="M 2194 1759 
Q 1497 1759 1228 1600 
Q 959 1441 959 1056 
Q 959 750 1161 570 
Q 1363 391 1709 391 
Q 2188 391 2477 730 
Q 2766 1069 2766 1631 
L 2766 1759 
L 2194 1759 
z
M 3341 1997 
L 3341 0 
L 2766 0 
L 2766 531 
Q 2569 213 2275 61 
Q 1981 -91 1556 -91 
Q 1019 -91 701 211 
Q 384 513 384 1019 
Q 384 1609 779 1909 
Q 1175 2209 1959 2209 
L 2766 2209 
L 2766 2266 
Q 2766 2663 2505 2880 
Q 2244 3097 1772 3097 
Q 1472 3097 1187 3025 
Q 903 2953 641 2809 
L 641 3341 
Q 956 3463 1253 3523 
Q 1550 3584 1831 3584 
Q 2591 3584 2966 3190 
Q 3341 2797 3341 1997 
z
" transform="scale(0.015625)"/>
     </defs>
     <use xlink:href="#DejaVuSans-28"/>
     <use xlink:href="#DejaVuSans-61" x="39.013672"/>
     <use xlink:href="#DejaVuSans-29" x="100.292969"/>
    </g>
   </g>
   <g id="legend_1">
    <g id="patch_7">
     <path d="M 90.716 228.383425 
L 181.783981 228.383425 
Q 184.559981 228.383425 184.559981 225.607425 
L 184.559981 104.756 
Q 184.559981 101.98 181.783981 101.98 
L 90.716 101.98 
Q 87.94 101.98 87.94 104.756 
L 87.94 225.607425 
Q 87.94 228.383425 90.716 228.383425 
z
" style="fill: #ffffff; opacity: 0.8; stroke: #cccccc; stroke-linejoin: miter"/>
    </g>
    <g id="line2d_41">
     <path d="M 93.492 113.220631 
L 107.372 113.220631 
L 121.252 113.220631 
" style="fill: none; stroke: #1f77b4; stroke-width: 1.5; stroke-linecap: square"/>
    </g>
    <g id="text_11">
     <!-- MoS2 -->
     <g transform="translate(132.356 118.078631) scale(0.1388 -0.1388)">
      <defs>
       <path id="DejaVuSans-4d" d="M 628 4666 
L 1569 4666 
L 2759 1491 
L 3956 4666 
L 4897 4666 
L 4897 0 
L 4281 0 
L 4281 4097 
L 3078 897 
L 2444 897 
L 1241 4097 
L 1241 0 
L 628 0 
L 628 4666 
z
" transform="scale(0.015625)"/>
       <path id="DejaVuSans-6f" d="M 1959 3097 
Q 1497 3097 1228 2736 
Q 959 2375 959 1747 
Q 959 1119 1226 758 
Q 1494 397 1959 397 
Q 2419 397 2687 759 
Q 2956 1122 2956 1747 
Q 2956 2369 2687 2733 
Q 2419 3097 1959 3097 
z
M 1959 3584 
Q 2709 3584 3137 3096 
Q 3566 2609 3566 1747 
Q 3566 888 3137 398 
Q 2709 -91 1959 -91 
Q 1206 -91 779 398 
Q 353 888 353 1747 
Q 353 2609 779 3096 
Q 1206 3584 1959 3584 
z
" transform="scale(0.015625)"/>
       <path id="DejaVuSans-53" d="M 3425 4513 
L 3425 3897 
Q 3066 4069 2747 4153 
Q 2428 4238 2131 4238 
Q 1616 4238 1336 4038 
Q 1056 3838 1056 3469 
Q 1056 3159 1242 3001 
Q 1428 2844 1947 2747 
L 2328 2669 
Q 3034 2534 3370 2195 
Q 3706 1856 3706 1288 
Q 3706 609 3251 259 
Q 2797 -91 1919 -91 
Q 1588 -91 1214 -16 
Q 841 59 441 206 
L 441 856 
Q 825 641 1194 531 
Q 1563 422 1919 422 
Q 2459 422 2753 634 
Q 3047 847 3047 1241 
Q 3047 1584 2836 1778 
Q 2625 1972 2144 2069 
L 1759 2144 
Q 1053 2284 737 2584 
Q 422 2884 422 3419 
Q 422 4038 858 4394 
Q 1294 4750 2059 4750 
Q 2388 4750 2728 4690 
Q 3069 4631 3425 4513 
z
" transform="scale(0.015625)"/>
      </defs>
      <use xlink:href="#DejaVuSans-4d"/>
      <use xlink:href="#DejaVuSans-6f" x="86.279297"/>
      <use xlink:href="#DejaVuSans-53" x="147.460938"/>
      <use xlink:href="#DejaVuSans-32" x="210.9375"/>
     </g>
    </g>
    <g id="line2d_42">
     <path d="M 93.492 133.593869 
L 107.372 133.593869 
L 121.252 133.593869 
" style="fill: none; stroke: #ff7f0e; stroke-width: 1.5; stroke-linecap: square"/>
    </g>
    <g id="text_12">
     <!-- WS2 -->
     <g transform="translate(132.356 138.451869) scale(0.1388 -0.1388)">
      <defs>
       <path id="DejaVuSans-57" d="M 213 4666 
L 850 4666 
L 1831 722 
L 2809 4666 
L 3519 4666 
L 4500 722 
L 5478 4666 
L 6119 4666 
L 4947 0 
L 4153 0 
L 3169 4050 
L 2175 0 
L 1381 0 
L 213 4666 
z
" transform="scale(0.015625)"/>
      </defs>
      <use xlink:href="#DejaVuSans-57"/>
      <use xlink:href="#DejaVuSans-53" x="98.876953"/>
      <use xlink:href="#DejaVuSans-32" x="162.353516"/>
     </g>
    </g>
    <g id="line2d_43">
     <path d="M 93.492 153.967106 
L 107.372 153.967106 
L 121.252 153.967106 
" style="fill: none; stroke: #2ca02c; stroke-width: 1.5; stroke-linecap: square"/>
    </g>
    <g id="text_13">
     <!-- MoSe2 -->
     <g transform="translate(132.356 158.825106) scale(0.1388 -0.1388)">
      <defs>
       <path id="DejaVuSans-65" d="M 3597 1894 
L 3597 1613 
L 953 1613 
Q 991 1019 1311 708 
Q 1631 397 2203 397 
Q 2534 397 2845 478 
Q 3156 559 3463 722 
L 3463 178 
Q 3153 47 2828 -22 
Q 2503 -91 2169 -91 
Q 1331 -91 842 396 
Q 353 884 353 1716 
Q 353 2575 817 3079 
Q 1281 3584 2069 3584 
Q 2775 3584 3186 3129 
Q 3597 2675 3597 1894 
z
M 3022 2063 
Q 3016 2534 2758 2815 
Q 2500 3097 2075 3097 
Q 1594 3097 1305 2825 
Q 1016 2553 972 2059 
L 3022 2063 
z
" transform="scale(0.015625)"/>
      </defs>
      <use xlink:href="#DejaVuSans-4d"/>
      <use xlink:href="#DejaVuSans-6f" x="86.279297"/>
      <use xlink:href="#DejaVuSans-53" x="147.460938"/>
      <use xlink:href="#DejaVuSans-65" x="210.9375"/>
      <use xlink:href="#DejaVuSans-32" x="272.460938"/>
     </g>
    </g>
    <g id="line2d_44">
     <path d="M 93.492 174.340344 
L 107.372 174.340344 
L 121.252 174.340344 
" style="fill: none; stroke: #d62728; stroke-width: 1.5; stroke-linecap: square"/>
    </g>
    <g id="text_14">
     <!-- WSe2 -->
     <g transform="translate(132.356 179.198344) scale(0.1388 -0.1388)">
      <use xlink:href="#DejaVuSans-57"/>
      <use xlink:href="#DejaVuSans-53" x="98.876953"/>
      <use xlink:href="#DejaVuSans-65" x="162.353516"/>
      <use xlink:href="#DejaVuSans-32" x="223.876953"/>
     </g>
    </g>
    <g id="line2d_45">
     <path d="M 93.492 194.713581 
L 107.372 194.713581 
L 121.252 194.713581 
" style="fill: none; stroke: #9467bd; stroke-width: 1.5; stroke-linecap: square"/>
    </g>
    <g id="text_15">
     <!-- MoTe2 -->
     <g transform="translate(132.356 199.571581) scale(0.1388 -0.1388)">
      <defs>
       <path id="DejaVuSans-54" d="M -19 4666 
L 3928 4666 
L 3928 4134 
L 2272 4134 
L 2272 0 
L 1638 0 
L 1638 4134 
L -19 4134 
L -19 4666 
z
" transform="scale(0.015625)"/>
      </defs>
      <use xlink:href="#DejaVuSans-4d"/>
      <use xlink:href="#DejaVuSans-6f" x="86.279297"/>
      <use xlink:href="#DejaVuSans-54" x="147.460938"/>
      <use xlink:href="#DejaVuSans-65" x="191.544922"/>
      <use xlink:href="#DejaVuSans-32" x="253.068359"/>
     </g>
    </g>
    <g id="line2d_46">
     <path d="M 93.492 215.086819 
L 107.372 215.086819 
L 121.252 215.086819 
" style="fill: none; stroke: #8c564b; stroke-width: 1.5; stroke-linecap: square"/>
    </g>
    <g id="text_16">
     <!-- WTe2 -->
     <g transform="translate(132.356 219.944819) scale(0.1388 -0.1388)">
      <use xlink:href="#DejaVuSans-57"/>
      <use xlink:href="#DejaVuSans-54" x="98.876953"/>
      <use xlink:href="#DejaVuSans-65" x="142.960938"/>
      <use xlink:href="#DejaVuSans-32" x="204.484375"/>
     </g>
    </g>
   </g>
  </g>
  <g id="axes_2">
   <g id="patch_8">
    <path d="M 81 704.88 
L 583.2 704.88 
L 583.2 427.68 
L 81 427.68 
z
" style="fill: #ffffff"/>
   </g>
   <g id="matplotlib.axis_3">
    <g id="xtick_10">
     <g id="line2d_47">
      <path d="M 103.827273 704.88 
L 103.827273 427.68 
" clip-path="url(#p44f0fcf41a)" style="fill: none; stroke: #b0b0b0; stroke-width: 0.8; stroke-linecap: square"/>
     </g>
     <g id="line2d_48">
      <g>
       <use xlink:href="#m8b6a3638ee" x="103.827273" y="704.88" style="stroke: #000000; stroke-width: 0.8"/>
      </g>
     </g>
     <g id="text_17">
      <!-- 0.0 -->
      <g transform="translate(95.87571 719.478438) scale(0.1 -0.1)">
       <use xlink:href="#DejaVuSans-30"/>
       <use xlink:href="#DejaVuSans-2e" x="63.623047"/>
       <use xlink:href="#DejaVuSans-30" x="95.410156"/>
      </g>
     </g>
    </g>
    <g id="xtick_11">
     <g id="line2d_49">
      <path d="M 161.182229 704.88 
L 161.182229 427.68 
" clip-path="url(#p44f0fcf41a)" style="fill: none; stroke: #b0b0b0; stroke-width: 0.8; stroke-linecap: square"/>
     </g>
     <g id="line2d_50">
      <g>
       <use xlink:href="#m8b6a3638ee" x="161.182229" y="704.88" style="stroke: #000000; stroke-width: 0.8"/>
      </g>
     </g>
     <g id="text_18">
      <!-- 0.5 -->
      <g transform="translate(153.230667 719.478438) scale(0.1 -0.1)">
       <defs>
        <path id="DejaVuSans-35" d="M 691 4666 
L 3169 4666 
L 3169 4134 
L 1269 4134 
L 1269 2991 
Q 1406 3038 1543 3061 
Q 1681 3084 1819 3084 
Q 2600 3084 3056 2656 
Q 3513 2228 3513 1497 
Q 3513 744 3044 326 
Q 2575 -91 1722 -91 
Q 1428 -91 1123 -41 
Q 819 9 494 109 
L 494 744 
Q 775 591 1075 516 
Q 1375 441 1709 441 
Q 2250 441 2565 725 
Q 2881 1009 2881 1497 
Q 2881 1984 2565 2268 
Q 2250 2553 1709 2553 
Q 1456 2553 1204 2497 
Q 953 2441 691 2322 
L 691 4666 
z
" transform="scale(0.015625)"/>
       </defs>
       <use xlink:href="#DejaVuSans-30"/>
       <use xlink:href="#DejaVuSans-2e" x="63.623047"/>
       <use xlink:href="#DejaVuSans-35" x="95.410156"/>
      </g>
     </g>
    </g>
    <g id="xtick_12">
     <g id="line2d_51">
      <path d="M 218.537186 704.88 
L 218.537186 427.68 
" clip-path="url(#p44f0fcf41a)" style="fill: none; stroke: #b0b0b0; stroke-width: 0.8; stroke-linecap: square"/>
     </g>
     <g id="line2d_52">
      <g>
       <use xlink:href="#m8b6a3638ee" x="218.537186" y="704.88" style="stroke: #000000; stroke-width: 0.8"/>
      </g>
     </g>
     <g id="text_19">
      <!-- 1.0 -->
      <g transform="translate(210.585623 719.478438) scale(0.1 -0.1)">
       <use xlink:href="#DejaVuSans-31"/>
       <use xlink:href="#DejaVuSans-2e" x="63.623047"/>
       <use xlink:href="#DejaVuSans-30" x="95.410156"/>
      </g>
     </g>
    </g>
    <g id="xtick_13">
     <g id="line2d_53">
      <path d="M 275.892143 704.88 
L 275.892143 427.68 
" clip-path="url(#p44f0fcf41a)" style="fill: none; stroke: #b0b0b0; stroke-width: 0.8; stroke-linecap: square"/>
     </g>
     <g id="line2d_54">
      <g>
       <use xlink:href="#m8b6a3638ee" x="275.892143" y="704.88" style="stroke: #000000; stroke-width: 0.8"/>
      </g>
     </g>
     <g id="text_20">
      <!-- 1.5 -->
      <g transform="translate(267.94058 719.478438) scale(0.1 -0.1)">
       <use xlink:href="#DejaVuSans-31"/>
       <use xlink:href="#DejaVuSans-2e" x="63.623047"/>
       <use xlink:href="#DejaVuSans-35" x="95.410156"/>
      </g>
     </g>
    </g>
    <g id="xtick_14">
     <g id="line2d_55">
      <path d="M 333.247099 704.88 
L 333.247099 427.68 
" clip-path="url(#p44f0fcf41a)" style="fill: none; stroke: #b0b0b0; stroke-width: 0.8; stroke-linecap: square"/>
     </g>
     <g id="line2d_56">
      <g>
       <use xlink:href="#m8b6a3638ee" x="333.247099" y="704.88" style="stroke: #000000; stroke-width: 0.8"/>
      </g>
     </g>
     <g id="text_21">
      <!-- 2.0 -->
      <g transform="translate(325.295537 719.478438) scale(0.1 -0.1)">
       <use xlink:href="#DejaVuSans-32"/>
       <use xlink:href="#DejaVuSans-2e" x="63.623047"/>
       <use xlink:href="#DejaVuSans-30" x="95.410156"/>
      </g>
     </g>
    </g>
    <g id="xtick_15">
     <g id="line2d_57">
      <path d="M 390.602056 704.88 
L 390.602056 427.68 
" clip-path="url(#p44f0fcf41a)" style="fill: none; stroke: #b0b0b0; stroke-width: 0.8; stroke-linecap: square"/>
     </g>
     <g id="line2d_58">
      <g>
       <use xlink:href="#m8b6a3638ee" x="390.602056" y="704.88" style="stroke: #000000; stroke-width: 0.8"/>
      </g>
     </g>
     <g id="text_22">
      <!-- 2.5 -->
      <g transform="translate(382.650493 719.478438) scale(0.1 -0.1)">
       <use xlink:href="#DejaVuSans-32"/>
       <use xlink:href="#DejaVuSans-2e" x="63.623047"/>
       <use xlink:href="#DejaVuSans-35" x="95.410156"/>
      </g>
     </g>
    </g>
    <g id="xtick_16">
     <g id="line2d_59">
      <path d="M 447.957012 704.88 
L 447.957012 427.68 
" clip-path="url(#p44f0fcf41a)" style="fill: none; stroke: #b0b0b0; stroke-width: 0.8; stroke-linecap: square"/>
     </g>
     <g id="line2d_60">
      <g>
       <use xlink:href="#m8b6a3638ee" x="447.957012" y="704.88" style="stroke: #000000; stroke-width: 0.8"/>
      </g>
     </g>
     <g id="text_23">
      <!-- 3.0 -->
      <g transform="translate(440.00545 719.478438) scale(0.1 -0.1)">
       <defs>
        <path id="DejaVuSans-33" d="M 2597 2516 
Q 3050 2419 3304 2112 
Q 3559 1806 3559 1356 
Q 3559 666 3084 287 
Q 2609 -91 1734 -91 
Q 1441 -91 1130 -33 
Q 819 25 488 141 
L 488 750 
Q 750 597 1062 519 
Q 1375 441 1716 441 
Q 2309 441 2620 675 
Q 2931 909 2931 1356 
Q 2931 1769 2642 2001 
Q 2353 2234 1838 2234 
L 1294 2234 
L 1294 2753 
L 1863 2753 
Q 2328 2753 2575 2939 
Q 2822 3125 2822 3475 
Q 2822 3834 2567 4026 
Q 2313 4219 1838 4219 
Q 1578 4219 1281 4162 
Q 984 4106 628 3988 
L 628 4550 
Q 988 4650 1302 4700 
Q 1616 4750 1894 4750 
Q 2613 4750 3031 4423 
Q 3450 4097 3450 3541 
Q 3450 3153 3228 2886 
Q 3006 2619 2597 2516 
z
" transform="scale(0.015625)"/>
       </defs>
       <use xlink:href="#DejaVuSans-33"/>
       <use xlink:href="#DejaVuSans-2e" x="63.623047"/>
       <use xlink:href="#DejaVuSans-30" x="95.410156"/>
      </g>
     </g>
    </g>
    <g id="xtick_17">
     <g id="line2d_61">
      <path d="M 505.311969 704.88 
L 505.311969 427.68 
" clip-path="url(#p44f0fcf41a)" style="fill: none; stroke: #b0b0b0; stroke-width: 0.8; stroke-linecap: square"/>
     </g>
     <g id="line2d_62">
      <g>
       <use xlink:href="#m8b6a3638ee" x="505.311969" y="704.88" style="stroke: #000000; stroke-width: 0.8"/>
      </g>
     </g>
     <g id="text_24">
      <!-- 3.5 -->
      <g transform="translate(497.360406 719.478438) scale(0.1 -0.1)">
       <use xlink:href="#DejaVuSans-33"/>
       <use xlink:href="#DejaVuSans-2e" x="63.623047"/>
       <use xlink:href="#DejaVuSans-35" x="95.410156"/>
      </g>
     </g>
    </g>
    <g id="xtick_18">
     <g id="line2d_63">
      <path d="M 562.666926 704.88 
L 562.666926 427.68 
" clip-path="url(#p44f0fcf41a)" style="fill: none; stroke: #b0b0b0; stroke-width: 0.8; stroke-linecap: square"/>
     </g>
     <g id="line2d_64">
      <g>
       <use xlink:href="#m8b6a3638ee" x="562.666926" y="704.88" style="stroke: #000000; stroke-width: 0.8"/>
      </g>
     </g>
     <g id="text_25">
      <!-- 4.0 -->
      <g transform="translate(554.715363 719.478438) scale(0.1 -0.1)">
       <use xlink:href="#DejaVuSans-34"/>
       <use xlink:href="#DejaVuSans-2e" x="63.623047"/>
       <use xlink:href="#DejaVuSans-30" x="95.410156"/>
      </g>
     </g>
    </g>
    <g id="text_26">
     <!-- Energy of Photon [eV] -->
     <g transform="translate(222.254688 740.755) scale(0.2 -0.2)">
      <defs>
       <path id="DejaVuSans-45" d="M 628 4666 
L 3578 4666 
L 3578 4134 
L 1259 4134 
L 1259 2753 
L 3481 2753 
L 3481 2222 
L 1259 2222 
L 1259 531 
L 3634 531 
L 3634 0 
L 628 0 
L 628 4666 
z
" transform="scale(0.015625)"/>
       <path id="DejaVuSans-6e" d="M 3513 2113 
L 3513 0 
L 2938 0 
L 2938 2094 
Q 2938 2591 2744 2837 
Q 2550 3084 2163 3084 
Q 1697 3084 1428 2787 
Q 1159 2491 1159 1978 
L 1159 0 
L 581 0 
L 581 3500 
L 1159 3500 
L 1159 2956 
Q 1366 3272 1645 3428 
Q 1925 3584 2291 3584 
Q 2894 3584 3203 3211 
Q 3513 2838 3513 2113 
z
" transform="scale(0.015625)"/>
       <path id="DejaVuSans-72" d="M 2631 2963 
Q 2534 3019 2420 3045 
Q 2306 3072 2169 3072 
Q 1681 3072 1420 2755 
Q 1159 2438 1159 1844 
L 1159 0 
L 581 0 
L 581 3500 
L 1159 3500 
L 1159 2956 
Q 1341 3275 1631 3429 
Q 1922 3584 2338 3584 
Q 2397 3584 2469 3576 
Q 2541 3569 2628 3553 
L 2631 2963 
z
" transform="scale(0.015625)"/>
       <path id="DejaVuSans-67" d="M 2906 1791 
Q 2906 2416 2648 2759 
Q 2391 3103 1925 3103 
Q 1463 3103 1205 2759 
Q 947 2416 947 1791 
Q 947 1169 1205 825 
Q 1463 481 1925 481 
Q 2391 481 2648 825 
Q 2906 1169 2906 1791 
z
M 3481 434 
Q 3481 -459 3084 -895 
Q 2688 -1331 1869 -1331 
Q 1566 -1331 1297 -1286 
Q 1028 -1241 775 -1147 
L 775 -588 
Q 1028 -725 1275 -790 
Q 1522 -856 1778 -856 
Q 2344 -856 2625 -561 
Q 2906 -266 2906 331 
L 2906 616 
Q 2728 306 2450 153 
Q 2172 0 1784 0 
Q 1141 0 747 490 
Q 353 981 353 1791 
Q 353 2603 747 3093 
Q 1141 3584 1784 3584 
Q 2172 3584 2450 3431 
Q 2728 3278 2906 2969 
L 2906 3500 
L 3481 3500 
L 3481 434 
z
" transform="scale(0.015625)"/>
       <path id="DejaVuSans-79" d="M 2059 -325 
Q 1816 -950 1584 -1140 
Q 1353 -1331 966 -1331 
L 506 -1331 
L 506 -850 
L 844 -850 
Q 1081 -850 1212 -737 
Q 1344 -625 1503 -206 
L 1606 56 
L 191 3500 
L 800 3500 
L 1894 763 
L 2988 3500 
L 3597 3500 
L 2059 -325 
z
" transform="scale(0.015625)"/>
       <path id="DejaVuSans-66" d="M 2375 4863 
L 2375 4384 
L 1825 4384 
Q 1516 4384 1395 4259 
Q 1275 4134 1275 3809 
L 1275 3500 
L 2222 3500 
L 2222 3053 
L 1275 3053 
L 1275 0 
L 697 0 
L 697 3053 
L 147 3053 
L 147 3500 
L 697 3500 
L 697 3744 
Q 697 4328 969 4595 
Q 1241 4863 1831 4863 
L 2375 4863 
z
" transform="scale(0.015625)"/>
       <path id="DejaVuSans-50" d="M 1259 4147 
L 1259 2394 
L 2053 2394 
Q 2494 2394 2734 2622 
Q 2975 2850 2975 3272 
Q 2975 3691 2734 3919 
Q 2494 4147 2053 4147 
L 1259 4147 
z
M 628 4666 
L 2053 4666 
Q 2838 4666 3239 4311 
Q 3641 3956 3641 3272 
Q 3641 2581 3239 2228 
Q 2838 1875 2053 1875 
L 1259 1875 
L 1259 0 
L 628 0 
L 628 4666 
z
" transform="scale(0.015625)"/>
       <path id="DejaVuSans-68" d="M 3513 2113 
L 3513 0 
L 2938 0 
L 2938 2094 
Q 2938 2591 2744 2837 
Q 2550 3084 2163 3084 
Q 1697 3084 1428 2787 
Q 1159 2491 1159 1978 
L 1159 0 
L 581 0 
L 581 4863 
L 1159 4863 
L 1159 2956 
Q 1366 3272 1645 3428 
Q 1925 3584 2291 3584 
Q 2894 3584 3203 3211 
Q 3513 2838 3513 2113 
z
" transform="scale(0.015625)"/>
       <path id="DejaVuSans-74" d="M 1172 4494 
L 1172 3500 
L 2356 3500 
L 2356 3053 
L 1172 3053 
L 1172 1153 
Q 1172 725 1289 603 
Q 1406 481 1766 481 
L 2356 481 
L 2356 0 
L 1766 0 
Q 1100 0 847 248 
Q 594 497 594 1153 
L 594 3053 
L 172 3053 
L 172 3500 
L 594 3500 
L 594 4494 
L 1172 4494 
z
" transform="scale(0.015625)"/>
       <path id="DejaVuSans-56" d="M 1831 0 
L 50 4666 
L 709 4666 
L 2188 738 
L 3669 4666 
L 4325 4666 
L 2547 0 
L 1831 0 
z
" transform="scale(0.015625)"/>
      </defs>
      <use xlink:href="#DejaVuSans-45"/>
      <use xlink:href="#DejaVuSans-6e" x="63.183594"/>
      <use xlink:href="#DejaVuSans-65" x="126.5625"/>
      <use xlink:href="#DejaVuSans-72" x="188.085938"/>
      <use xlink:href="#DejaVuSans-67" x="227.449219"/>
      <use xlink:href="#DejaVuSans-79" x="290.925781"/>
      <use xlink:href="#DejaVuSans-20" x="350.105469"/>
      <use xlink:href="#DejaVuSans-6f" x="381.892578"/>
      <use xlink:href="#DejaVuSans-66" x="443.074219"/>
      <use xlink:href="#DejaVuSans-20" x="478.279297"/>
      <use xlink:href="#DejaVuSans-50" x="510.066406"/>
      <use xlink:href="#DejaVuSans-68" x="570.369141"/>
      <use xlink:href="#DejaVuSans-6f" x="633.748047"/>
      <use xlink:href="#DejaVuSans-74" x="694.929688"/>
      <use xlink:href="#DejaVuSans-6f" x="734.138672"/>
      <use xlink:href="#DejaVuSans-6e" x="795.320312"/>
      <use xlink:href="#DejaVuSans-20" x="858.699219"/>
      <use xlink:href="#DejaVuSans-5b" x="890.486328"/>
      <use xlink:href="#DejaVuSans-65" x="929.5"/>
      <use xlink:href="#DejaVuSans-56" x="991.023438"/>
      <use xlink:href="#DejaVuSans-5d" x="1059.431641"/>
     </g>
    </g>
   </g>
   <g id="matplotlib.axis_4">
    <g id="ytick_9">
     <g id="line2d_65">
      <path d="M 81 704.319555 
L 583.2 704.319555 
" clip-path="url(#p44f0fcf41a)" style="fill: none; stroke: #b0b0b0; stroke-width: 0.8; stroke-linecap: square"/>
     </g>
     <g id="line2d_66">
      <g>
       <use xlink:href="#m70467af23e" x="81" y="704.319555" style="stroke: #000000; stroke-width: 0.8"/>
      </g>
     </g>
     <g id="text_27">
      <!-- −80 -->
      <g transform="translate(52.895313 708.118774) scale(0.1 -0.1)">
       <use xlink:href="#DejaVuSans-2212"/>
       <use xlink:href="#DejaVuSans-38" x="83.789062"/>
       <use xlink:href="#DejaVuSans-30" x="147.412109"/>
      </g>
     </g>
    </g>
    <g id="ytick_10">
     <g id="line2d_67">
      <path d="M 81 671.921546 
L 583.2 671.921546 
" clip-path="url(#p44f0fcf41a)" style="fill: none; stroke: #b0b0b0; stroke-width: 0.8; stroke-linecap: square"/>
     </g>
     <g id="line2d_68">
      <g>
       <use xlink:href="#m70467af23e" x="81" y="671.921546" style="stroke: #000000; stroke-width: 0.8"/>
      </g>
     </g>
     <g id="text_28">
      <!-- −60 -->
      <g transform="translate(52.895313 675.720765) scale(0.1 -0.1)">
       <use xlink:href="#DejaVuSans-2212"/>
       <use xlink:href="#DejaVuSans-36" x="83.789062"/>
       <use xlink:href="#DejaVuSans-30" x="147.412109"/>
      </g>
     </g>
    </g>
    <g id="ytick_11">
     <g id="line2d_69">
      <path d="M 81 639.523538 
L 583.2 639.523538 
" clip-path="url(#p44f0fcf41a)" style="fill: none; stroke: #b0b0b0; stroke-width: 0.8; stroke-linecap: square"/>
     </g>
     <g id="line2d_70">
      <g>
       <use xlink:href="#m70467af23e" x="81" y="639.523538" style="stroke: #000000; stroke-width: 0.8"/>
      </g>
     </g>
     <g id="text_29">
      <!-- −40 -->
      <g transform="translate(52.895313 643.322756) scale(0.1 -0.1)">
       <use xlink:href="#DejaVuSans-2212"/>
       <use xlink:href="#DejaVuSans-34" x="83.789062"/>
       <use xlink:href="#DejaVuSans-30" x="147.412109"/>
      </g>
     </g>
    </g>
    <g id="ytick_12">
     <g id="line2d_71">
      <path d="M 81 607.125529 
L 583.2 607.125529 
" clip-path="url(#p44f0fcf41a)" style="fill: none; stroke: #b0b0b0; stroke-width: 0.8; stroke-linecap: square"/>
     </g>
     <g id="line2d_72">
      <g>
       <use xlink:href="#m70467af23e" x="81" y="607.125529" style="stroke: #000000; stroke-width: 0.8"/>
      </g>
     </g>
     <g id="text_30">
      <!-- −20 -->
      <g transform="translate(52.895313 610.924748) scale(0.1 -0.1)">
       <use xlink:href="#DejaVuSans-2212"/>
       <use xlink:href="#DejaVuSans-32" x="83.789062"/>
       <use xlink:href="#DejaVuSans-30" x="147.412109"/>
      </g>
     </g>
    </g>
    <g id="ytick_13">
     <g id="line2d_73">
      <path d="M 81 574.72752 
L 583.2 574.72752 
" clip-path="url(#p44f0fcf41a)" style="fill: none; stroke: #b0b0b0; stroke-width: 0.8; stroke-linecap: square"/>
     </g>
     <g id="line2d_74">
      <g>
       <use xlink:href="#m70467af23e" x="81" y="574.72752" style="stroke: #000000; stroke-width: 0.8"/>
      </g>
     </g>
     <g id="text_31">
      <!-- 0 -->
      <g transform="translate(67.6375 578.526739) scale(0.1 -0.1)">
       <use xlink:href="#DejaVuSans-30"/>
      </g>
     </g>
    </g>
    <g id="ytick_14">
     <g id="line2d_75">
      <path d="M 81 542.329512 
L 583.2 542.329512 
" clip-path="url(#p44f0fcf41a)" style="fill: none; stroke: #b0b0b0; stroke-width: 0.8; stroke-linecap: square"/>
     </g>
     <g id="line2d_76">
      <g>
       <use xlink:href="#m70467af23e" x="81" y="542.329512" style="stroke: #000000; stroke-width: 0.8"/>
      </g>
     </g>
     <g id="text_32">
      <!-- 20 -->
      <g transform="translate(61.275 546.12873) scale(0.1 -0.1)">
       <use xlink:href="#DejaVuSans-32"/>
       <use xlink:href="#DejaVuSans-30" x="63.623047"/>
      </g>
     </g>
    </g>
    <g id="ytick_15">
     <g id="line2d_77">
      <path d="M 81 509.931503 
L 583.2 509.931503 
" clip-path="url(#p44f0fcf41a)" style="fill: none; stroke: #b0b0b0; stroke-width: 0.8; stroke-linecap: square"/>
     </g>
     <g id="line2d_78">
      <g>
       <use xlink:href="#m70467af23e" x="81" y="509.931503" style="stroke: #000000; stroke-width: 0.8"/>
      </g>
     </g>
     <g id="text_33">
      <!-- 40 -->
      <g transform="translate(61.275 513.730722) scale(0.1 -0.1)">
       <use xlink:href="#DejaVuSans-34"/>
       <use xlink:href="#DejaVuSans-30" x="63.623047"/>
      </g>
     </g>
    </g>
    <g id="ytick_16">
     <g id="line2d_79">
      <path d="M 81 477.533494 
L 583.2 477.533494 
" clip-path="url(#p44f0fcf41a)" style="fill: none; stroke: #b0b0b0; stroke-width: 0.8; stroke-linecap: square"/>
     </g>
     <g id="line2d_80">
      <g>
       <use xlink:href="#m70467af23e" x="81" y="477.533494" style="stroke: #000000; stroke-width: 0.8"/>
      </g>
     </g>
     <g id="text_34">
      <!-- 60 -->
      <g transform="translate(61.275 481.332713) scale(0.1 -0.1)">
       <use xlink:href="#DejaVuSans-36"/>
       <use xlink:href="#DejaVuSans-30" x="63.623047"/>
      </g>
     </g>
    </g>
    <g id="ytick_17">
     <g id="line2d_81">
      <path d="M 81 445.135486 
L 583.2 445.135486 
" clip-path="url(#p44f0fcf41a)" style="fill: none; stroke: #b0b0b0; stroke-width: 0.8; stroke-linecap: square"/>
     </g>
     <g id="line2d_82">
      <g>
       <use xlink:href="#m70467af23e" x="81" y="445.135486" style="stroke: #000000; stroke-width: 0.8"/>
      </g>
     </g>
     <g id="text_35">
      <!-- 80 -->
      <g transform="translate(61.275 448.934704) scale(0.1 -0.1)">
       <use xlink:href="#DejaVuSans-38"/>
       <use xlink:href="#DejaVuSans-30" x="63.623047"/>
      </g>
     </g>
    </g>
    <g id="text_36">
     <!-- $Im\{\sigma^{(2)}_{yxx}\} \: 10^{17} [m. A/(Vs)^2]$  -->
     <g transform="translate(43.065712 656.0836) rotate(-90) scale(0.1388 -0.1388)">
      <defs>
       <path id="DejaVuSans-Oblique-49" d="M 1081 4666 
L 1716 4666 
L 806 0 
L 172 0 
L 1081 4666 
z
" transform="scale(0.015625)"/>
      </defs>
      <use xlink:href="#DejaVuSans-Oblique-49" transform="translate(0 0.60625)"/>
      <use xlink:href="#DejaVuSans-Oblique-6d" transform="translate(29.492188 0.60625)"/>
      <use xlink:href="#DejaVuSans-7b" transform="translate(126.904297 0.60625)"/>
      <use xlink:href="#DejaVuSans-Oblique-3c3" transform="translate(190.527344 0.60625)"/>
      <use xlink:href="#DejaVuSans-28" transform="translate(258.378958 38.8875) scale(0.7)"/>
      <use xlink:href="#DejaVuSans-32" transform="translate(285.688529 38.8875) scale(0.7)"/>
      <use xlink:href="#DejaVuSans-29" transform="translate(330.224661 38.8875) scale(0.7)"/>
      <use xlink:href="#DejaVuSans-Oblique-79" transform="translate(253.90625 -26.7375) scale(0.7)"/>
      <use xlink:href="#DejaVuSans-Oblique-78" transform="translate(295.332031 -26.7375) scale(0.7)"/>
      <use xlink:href="#DejaVuSans-Oblique-78" transform="translate(336.757812 -26.7375) scale(0.7)"/>
      <use xlink:href="#DejaVuSans-7d" transform="translate(380.917969 0.60625)"/>
      <use xlink:href="#DejaVuSans-31" transform="translate(466.187935 0.60625)"/>
      <use xlink:href="#DejaVuSans-30" transform="translate(529.810981 0.60625)"/>
      <use xlink:href="#DejaVuSans-31" transform="translate(594.39106 38.8875) scale(0.7)"/>
      <use xlink:href="#DejaVuSans-37" transform="translate(638.927192 38.8875) scale(0.7)"/>
      <use xlink:href="#DejaVuSans-5b" transform="translate(686.1977 0.60625)"/>
      <use xlink:href="#DejaVuSans-Oblique-6d" transform="translate(725.211372 0.60625)"/>
      <use xlink:href="#DejaVuSans-2e" transform="translate(822.623481 0.60625)"/>
      <use xlink:href="#DejaVuSans-Oblique-41" transform="translate(873.893013 0.60625)"/>
      <use xlink:href="#DejaVuSans-2f" transform="translate(942.301216 0.60625)"/>
      <use xlink:href="#DejaVuSans-28" transform="translate(975.992622 0.60625)"/>
      <use xlink:href="#DejaVuSans-Oblique-56" transform="translate(1015.006294 0.60625)"/>
      <use xlink:href="#DejaVuSans-Oblique-73" transform="translate(1083.414497 0.60625)"/>
      <use xlink:href="#DejaVuSans-29" transform="translate(1135.514106 0.60625)"/>
      <use xlink:href="#DejaVuSans-32" transform="translate(1175.48481 38.8875) scale(0.7)"/>
      <use xlink:href="#DejaVuSans-5d" transform="translate(1222.755317 0.60625)"/>
      <use xlink:href="#DejaVuSans-20" transform="translate(1261.768989 0.60625)"/>
     </g>
    </g>
   </g>
   <g id="line2d_83">
    <path d="M 103.827273 577.137974 
L 193.301005 577.486198 
L 218.537186 577.379991 
L 234.596574 577.116181 
L 246.067565 576.727113 
L 255.244358 576.192702 
L 262.126953 575.571692 
L 266.715349 574.996494 
L 271.303746 574.239418 
L 275.892143 573.254529 
L 282.774737 571.605925 
L 285.068936 571.351373 
L 287.363134 571.453995 
L 289.657332 571.864565 
L 298.834125 574.187157 
L 301.128323 575.009713 
L 303.422522 576.204126 
L 305.71672 577.786809 
L 310.305116 581.509118 
L 314.893513 585.235329 
L 319.48191 588.754204 
L 326.364504 593.750339 
L 340.129694 603.583219 
L 347.012289 608.825002 
L 351.600685 612.588916 
L 356.189082 616.664631 
L 360.777478 621.164588 
L 363.071677 623.620992 
L 365.365875 626.244383 
L 367.660073 629.068384 
L 369.954271 632.128034 
L 372.24847 635.469064 
L 374.542668 639.146093 
L 376.836866 643.224614 
L 379.131064 647.779573 
L 381.425263 652.889467 
L 383.719461 658.604659 
L 390.602056 677.204932 
L 392.896254 680.304701 
L 395.190452 677.948122 
L 397.484651 667.887782 
L 399.778849 649.380174 
L 402.073047 623.990219 
L 404.367245 596.323936 
L 406.661444 571.68846 
L 408.955642 553.001919 
L 411.24984 540.776212 
L 413.544038 534.386929 
L 415.838237 532.982045 
L 418.132435 535.861835 
L 420.426633 542.16603 
L 422.720831 550.495683 
L 425.01503 559.6621 
L 427.309228 569.318799 
L 429.603426 578.2077 
L 431.897624 582.610419 
L 434.191823 578.447197 
L 436.486021 564.568759 
L 438.780219 543.261602 
L 443.368616 494.072975 
L 445.662814 474.225725 
L 447.957012 460.326298 
L 450.251211 451.897518 
L 452.545409 448.135376 
L 454.839607 448.773352 
L 457.133805 453.864767 
L 459.428004 463.259578 
L 461.722202 476.355368 
L 464.0164 492.085181 
L 468.604797 525.830115 
L 470.898995 540.473483 
L 473.193193 551.322757 
L 475.487392 557.188648 
L 477.78159 558.388911 
L 480.075788 558.16261 
L 482.369986 560.697259 
L 484.664185 566.602809 
L 486.958383 573.011278 
L 489.252581 577.081707 
L 491.546779 577.927392 
L 493.840978 576.537353 
L 496.135176 574.455039 
L 498.429374 572.630602 
L 500.723572 571.321221 
L 503.017771 570.486951 
L 505.311969 570.036492 
L 507.606167 569.887656 
L 509.900365 569.968618 
L 514.488762 570.53237 
L 516.78296 570.845099 
L 519.077159 571.045291 
L 521.371357 571.056912 
L 525.959753 570.63972 
L 532.842348 570.007403 
L 539.724943 569.674106 
L 548.901736 569.506069 
L 560.372727 569.521462 
L 560.372727 569.521462 
" clip-path="url(#p44f0fcf41a)" style="fill: none; stroke: #1f77b4; stroke-width: 1.5; stroke-linecap: square"/>
   </g>
   <g id="line2d_84">
    <path d="M 103.827273 574.762356 
L 184.124212 574.586019 
L 218.537186 574.30953 
L 239.18497 573.935115 
L 252.95016 573.468584 
L 262.126953 572.956864 
L 269.009548 572.381818 
L 275.892143 571.546873 
L 282.774737 570.54167 
L 285.068936 570.377743 
L 287.363134 570.484079 
L 289.657332 570.896567 
L 294.245729 572.224506 
L 298.834125 573.600486 
L 303.422522 574.795268 
L 308.010918 575.798507 
L 312.599315 576.625791 
L 317.187711 577.282083 
L 321.776108 577.756754 
L 333.247099 578.634864 
L 335.541297 579.284231 
L 337.835496 580.338341 
L 342.423892 583.148161 
L 347.012289 586.125418 
L 353.894884 590.293935 
L 369.954271 599.602425 
L 374.542668 602.476843 
L 379.131064 605.669576 
L 381.425263 607.409716 
L 386.013659 611.365786 
L 388.307857 613.628305 
L 392.896254 618.742348 
L 395.190452 621.409155 
L 397.484651 623.55541 
L 399.778849 624.118257 
L 402.073047 621.323769 
L 404.367245 613.653563 
L 406.661444 601.415735 
L 408.955642 587.155853 
L 411.24984 574.145101 
L 413.544038 564.053574 
L 415.838237 556.938833 
L 418.132435 552.210127 
L 420.426633 549.293586 
L 422.720831 547.723288 
L 425.01503 547.137494 
L 427.309228 547.160485 
L 429.603426 547.309676 
L 431.897624 546.922938 
L 434.191823 545.347681 
L 436.486021 542.372502 
L 438.780219 538.257166 
L 443.368616 528.233233 
L 445.662814 524.572914 
L 447.957012 524.195251 
L 450.251211 527.169727 
L 452.545409 531.602162 
L 454.839607 535.527973 
L 457.133805 538.230908 
L 459.428004 539.731811 
L 461.722202 539.812368 
L 464.0164 537.943197 
L 466.310598 533.663399 
L 468.604797 527.201031 
L 470.898995 520.217061 
L 473.193193 515.37488 
L 475.487392 514.217024 
L 477.78159 516.196881 
L 480.075788 520.012034 
L 482.369986 524.726953 
L 484.664185 529.890079 
L 489.252581 541.051532 
L 491.546779 547.070652 
L 493.840978 553.463694 
L 496.135176 560.306199 
L 498.429374 567.660742 
L 500.723572 575.551883 
L 509.900365 608.862516 
L 512.194564 615.425016 
L 514.488762 620.431816 
L 516.78296 623.808085 
L 519.077159 625.343264 
L 521.371357 624.617099 
L 523.665555 621.458315 
L 525.959753 616.254751 
L 537.430745 584.482922 
L 539.724943 579.368471 
L 542.019141 575.478595 
L 544.313339 572.688474 
L 546.607538 570.753227 
L 548.901736 569.507643 
L 551.195934 568.891351 
L 553.490132 568.921129 
L 555.784331 569.635733 
L 558.078529 570.99931 
L 560.372727 572.82132 
L 560.372727 572.82132 
" clip-path="url(#p44f0fcf41a)" style="fill: none; stroke: #ff7f0e; stroke-width: 1.5; stroke-linecap: square"/>
   </g>
   <g id="line2d_85">
    <path d="M 103.827273 583.747165 
L 149.711238 584.985296 
L 211.654591 586.722284 
L 223.125582 586.829141 
L 232.302376 586.70454 
L 239.18497 586.38082 
L 243.773367 585.989718 
L 248.361763 585.419853 
L 252.95016 584.771351 
L 255.244358 584.586956 
L 257.538556 584.673911 
L 259.832755 585.096153 
L 264.421151 586.521896 
L 269.009548 587.966657 
L 273.597944 589.259861 
L 275.892143 590.034516 
L 278.186341 591.108867 
L 280.480539 592.582497 
L 282.774737 594.376065 
L 296.539927 606.006276 
L 314.893513 620.984489 
L 321.776108 627.029621 
L 335.541297 639.57331 
L 337.835496 641.449437 
L 340.129694 643.12635 
L 342.423892 644.516871 
L 344.71809 645.590448 
L 347.012289 646.358798 
L 349.306487 646.773578 
L 351.600685 646.722692 
L 353.894884 646.152871 
L 358.48328 644.114012 
L 360.777478 643.392079 
L 363.071677 643.673057 
L 365.365875 645.772915 
L 367.660073 650.689299 
L 369.954271 658.758935 
L 372.24847 668.466111 
L 374.542668 677.324017 
L 376.836866 683.578222 
L 379.131064 686.378662 
L 381.425263 685.191297 
L 383.719461 679.133118 
L 386.013659 667.209537 
L 388.307857 649.867483 
L 390.602056 630.318122 
L 392.896254 612.721744 
L 395.190452 599.122696 
L 397.484651 589.385536 
L 399.778849 582.630196 
L 402.073047 578.024528 
L 404.367245 574.921579 
L 408.955642 570.505463 
L 411.24984 567.416646 
L 413.544038 562.827712 
L 415.838237 557.752935 
L 418.132435 555.311664 
L 420.426633 558.051084 
L 422.720831 565.912083 
L 427.309228 587.337014 
L 429.603426 595.217095 
L 431.897624 599.450881 
L 434.191823 600.764382 
L 436.486021 600.135035 
L 438.780219 597.923497 
L 441.074418 594.030583 
L 443.368616 588.037264 
L 445.662814 579.053515 
L 447.957012 565.624422 
L 450.251211 546.456084 
L 454.839607 500.105332 
L 457.133805 484.189025 
L 459.428004 475.986521 
L 461.722202 473.11096 
L 464.0164 473.170021 
L 466.310598 474.735501 
L 468.604797 477.108246 
L 470.898995 479.986244 
L 473.193193 483.233404 
L 475.487392 486.761632 
L 480.075788 494.374204 
L 486.958383 506.048431 
L 489.252581 509.673988 
L 491.546779 513.050051 
L 493.840978 516.143208 
L 496.135176 518.949918 
L 498.429374 521.488698 
L 500.723572 523.788221 
L 503.017771 525.878472 
L 505.311969 527.786856 
L 509.900365 531.148547 
L 514.488762 534.020975 
L 519.077159 536.509338 
L 523.665555 538.689984 
L 528.253952 540.619592 
L 532.842348 542.341254 
L 539.724943 544.605053 
L 546.607538 546.559627 
L 553.490132 548.266507 
L 560.372727 549.771506 
L 560.372727 549.771506 
" clip-path="url(#p44f0fcf41a)" style="fill: none; stroke: #2ca02c; stroke-width: 1.5; stroke-linecap: square"/>
   </g>
   <g id="line2d_86">
    <path d="M 103.827273 581.717644 
L 147.41704 582.718298 
L 193.301005 584.013727 
L 220.831384 584.743416 
L 232.302376 584.859399 
L 239.18497 584.767336 
L 246.067565 584.47835 
L 250.655962 584.294155 
L 252.95016 584.372103 
L 255.244358 584.700187 
L 257.538556 585.297839 
L 262.126953 586.922017 
L 269.009548 589.398559 
L 275.892143 591.598127 
L 282.774737 593.560742 
L 289.657332 595.310763 
L 296.539927 596.820202 
L 301.128323 597.752119 
L 303.422522 598.321325 
L 305.71672 599.123953 
L 308.010918 600.292346 
L 310.305116 601.804664 
L 314.893513 605.367041 
L 324.070306 612.584805 
L 337.835496 622.915548 
L 347.012289 629.565818 
L 351.600685 632.644661 
L 353.894884 634.050268 
L 356.189082 635.314355 
L 358.48328 636.390806 
L 360.777478 637.211287 
L 363.071677 637.693312 
L 365.365875 637.72611 
L 367.660073 637.162892 
L 369.954271 635.831721 
L 372.24847 633.631392 
L 374.542668 630.630402 
L 376.836866 626.939445 
L 381.425263 618.346438 
L 383.719461 615.666311 
L 386.013659 616.355614 
L 388.307857 619.774193 
L 390.602056 622.373719 
L 392.896254 620.542517 
L 395.190452 612.715782 
L 397.484651 598.970731 
L 399.778849 580.914785 
L 402.073047 561.960156 
L 404.367245 545.424675 
L 406.661444 532.406974 
L 408.955642 522.115566 
L 411.24984 513.727094 
L 413.544038 507.792061 
L 415.838237 505.544546 
L 418.132435 506.911938 
L 420.426633 510.575332 
L 422.720831 515.303518 
L 429.603426 530.834444 
L 434.191823 541.70228 
L 436.486021 547.866844 
L 438.780219 555.051739 
L 441.074418 563.384047 
L 445.662814 580.959926 
L 447.957012 588.289053 
L 450.251211 593.523652 
L 452.545409 596.444232 
L 454.839607 597.579594 
L 464.0164 598.781713 
L 466.310598 599.179997 
L 468.604797 599.45256 
L 470.898995 599.221736 
L 473.193193 597.851591 
L 475.487392 594.358258 
L 477.78159 587.638524 
L 480.075788 577.270222 
L 482.369986 563.681911 
L 486.958383 533.094764 
L 489.252581 520.371882 
L 491.546779 510.679403 
L 493.840978 503.972437 
L 496.135176 500.296296 
L 498.429374 499.635712 
L 500.723572 501.580221 
L 503.017771 505.29674 
L 505.311969 509.876607 
L 507.606167 514.82745 
L 512.194564 525.552676 
L 514.488762 530.985254 
L 516.78296 535.625164 
L 519.077159 538.85354 
L 521.371357 540.87548 
L 523.665555 542.31598 
L 528.253952 544.751026 
L 535.136546 548.099606 
L 539.724943 550.013011 
L 542.019141 550.786615 
L 544.313339 551.40279 
L 548.901736 552.290767 
L 555.784331 553.643094 
L 560.372727 554.560879 
L 560.372727 554.560879 
" clip-path="url(#p44f0fcf41a)" style="fill: none; stroke: #d62728; stroke-width: 1.5; stroke-linecap: square"/>
   </g>
   <g id="line2d_87">
    <path d="M 103.827273 587.013325 
L 119.886661 588.309322 
L 133.65185 589.652403 
L 145.122841 590.98853 
L 154.299635 592.241699 
L 163.476428 593.705911 
L 170.359022 594.979948 
L 177.241617 596.446157 
L 184.124212 598.158602 
L 188.712608 599.475019 
L 193.301005 600.968952 
L 197.889402 602.68483 
L 202.477798 604.676859 
L 207.066195 606.97634 
L 211.654591 609.398785 
L 213.948789 610.431802 
L 216.242988 611.20625 
L 220.831384 612.214631 
L 225.419781 613.245697 
L 230.008177 614.68547 
L 236.890772 617.328204 
L 239.18497 617.958366 
L 241.479169 618.290115 
L 252.95016 618.962224 
L 255.244358 619.361994 
L 257.538556 619.895931 
L 259.832755 620.576549 
L 262.126953 621.420779 
L 264.421151 622.451584 
L 266.715349 623.69788 
L 269.009548 625.191243 
L 271.303746 626.955417 
L 278.186341 633.111814 
L 280.480539 634.1085 
L 282.774737 632.852943 
L 285.068936 628.040046 
L 289.657332 611.3753 
L 291.95153 606.552275 
L 294.245729 606.37567 
L 296.539927 609.436965 
L 301.128323 618.592736 
L 303.422522 621.50743 
L 305.71672 621.062688 
L 308.010918 616.314391 
L 310.305116 608.591781 
L 312.599315 601.343911 
L 314.893513 596.759878 
L 317.187711 594.270041 
L 319.48191 592.183454 
L 321.776108 588.845671 
L 324.070306 582.758271 
L 326.364504 572.561644 
L 328.658703 557.373947 
L 330.952901 537.168255 
L 335.541297 487.878471 
L 337.835496 466.984584 
L 340.129694 452.942063 
L 342.423892 445.102545 
L 344.71809 441.443747 
L 347.012289 440.28 
L 349.306487 440.826728 
L 351.600685 442.761426 
L 353.894884 445.670337 
L 356.189082 449.136907 
L 358.48328 452.923767 
L 367.660073 468.880389 
L 369.954271 472.255225 
L 372.24847 475.296227 
L 374.542668 478.055912 
L 376.836866 480.574976 
L 379.131064 482.883477 
L 381.425263 485.00801 
L 386.013659 488.795814 
L 390.602056 492.111854 
L 395.190452 495.124575 
L 404.367245 501.027772 
L 408.955642 504.400586 
L 418.132435 511.62152 
L 422.720831 515.19982 
L 427.309228 519.161819 
L 429.603426 521.357547 
L 431.897624 523.720941 
L 434.191823 526.276579 
L 436.486021 529.033312 
L 438.780219 532.007219 
L 441.074418 535.197888 
L 443.368616 538.60748 
L 447.957012 546.026671 
L 452.545409 554.084419 
L 464.0164 574.782404 
L 466.310598 578.568244 
L 468.604797 582.088395 
L 470.898995 585.27712 
L 473.193193 588.073044 
L 475.487392 590.42096 
L 477.78159 592.278414 
L 480.075788 593.620436 
L 482.369986 594.44499 
L 484.664185 594.776226 
L 486.958383 594.663948 
L 489.252581 594.179753 
L 491.546779 593.408852 
L 496.135176 591.359892 
L 503.017771 588.085181 
L 507.606167 586.244442 
L 512.194564 584.780664 
L 516.78296 583.639347 
L 523.665555 582.289461 
L 537.430745 579.752382 
L 548.901736 577.60395 
L 555.784331 576.60584 
L 560.372727 576.068288 
L 560.372727 576.068288 
" clip-path="url(#p44f0fcf41a)" style="fill: none; stroke: #9467bd; stroke-width: 1.5; stroke-linecap: square"/>
   </g>
   <g id="line2d_88">
    <path d="M 103.827273 580.139034 
L 154.299635 580.569004 
L 172.653221 580.505016 
L 184.124212 580.226889 
L 197.889402 579.670769 
L 200.1836 579.815905 
L 204.771996 580.484759 
L 213.948789 582.040494 
L 220.831384 582.993895 
L 227.713979 583.772509 
L 234.596574 584.372882 
L 241.479169 584.756108 
L 250.655962 585.075413 
L 252.95016 585.356668 
L 255.244358 585.858381 
L 259.832755 587.322846 
L 266.715349 589.626632 
L 271.303746 590.95546 
L 275.892143 592.069329 
L 280.480539 592.923496 
L 285.068936 593.45968 
L 291.95153 593.914973 
L 294.245729 594.450893 
L 296.539927 595.759815 
L 298.834125 598.213225 
L 301.128323 601.420594 
L 303.422522 603.821365 
L 305.71672 603.38659 
L 308.010918 598.605857 
L 310.305116 589.239551 
L 312.599315 576.69366 
L 314.893513 563.48175 
L 317.187711 552.554906 
L 319.48191 546.19705 
L 321.776108 544.448102 
L 324.070306 545.656042 
L 326.364504 548.299012 
L 328.658703 551.596677 
L 330.952901 555.411076 
L 333.247099 559.996347 
L 335.541297 566.010347 
L 337.835496 574.421923 
L 340.129694 586.307742 
L 342.423892 601.727021 
L 344.71809 618.270599 
L 347.012289 632.351746 
L 349.306487 642.333243 
L 351.600685 649.454288 
L 353.894884 656.12011 
L 356.189082 663.860624 
L 360.777478 681.403639 
L 363.071677 688.545962 
L 365.365875 692.28 
L 367.660073 691.906327 
L 369.954271 689.254927 
L 372.24847 686.993035 
L 374.542668 685.452235 
L 376.836866 682.420081 
L 379.131064 674.586096 
L 381.425263 659.704203 
L 383.719461 638.360526 
L 386.013659 614.173724 
L 388.307857 592.440173 
L 390.602056 576.979062 
L 392.896254 568.397487 
L 395.190452 565.070103 
L 397.484651 564.897695 
L 399.778849 566.473384 
L 402.073047 569.156239 
L 404.367245 572.546284 
L 408.955642 579.688975 
L 411.24984 582.783171 
L 413.544038 585.399114 
L 415.838237 587.552194 
L 418.132435 589.290797 
L 420.426633 590.666799 
L 422.720831 591.728726 
L 425.01503 592.513395 
L 427.309228 593.05203 
L 429.603426 593.365279 
L 431.897624 593.467914 
L 434.191823 593.367173 
L 436.486021 593.063306 
L 438.780219 592.552248 
L 441.074418 591.82191 
L 443.368616 590.859276 
L 445.662814 589.643017 
L 447.957012 588.154172 
L 450.251211 586.366182 
L 452.545409 584.257294 
L 454.839607 581.799655 
L 457.133805 578.971878 
L 459.428004 575.74886 
L 461.722202 572.11524 
L 464.0164 568.058964 
L 466.310598 563.589167 
L 468.604797 558.73996 
L 477.78159 538.302592 
L 480.075788 534.224153 
L 482.369986 531.104442 
L 484.664185 528.957225 
L 486.958383 527.636368 
L 489.252581 526.960461 
L 491.546779 526.769945 
L 493.840978 526.937594 
L 496.135176 527.366518 
L 498.429374 527.983715 
L 503.017771 529.581795 
L 509.900365 532.434695 
L 528.253952 540.324828 
L 537.430745 543.987884 
L 546.607538 547.369248 
L 553.490132 549.670816 
L 560.372727 551.733365 
L 560.372727 551.733365 
" clip-path="url(#p44f0fcf41a)" style="fill: none; stroke: #8c564b; stroke-width: 1.5; stroke-linecap: square"/>
   </g>
   <g id="patch_9">
    <path d="M 81 704.88 
L 81 427.68 
" style="fill: none; stroke: #000000; stroke-width: 0.8; stroke-linejoin: miter; stroke-linecap: square"/>
   </g>
   <g id="patch_10">
    <path d="M 583.2 704.88 
L 583.2 427.68 
" style="fill: none; stroke: #000000; stroke-width: 0.8; stroke-linejoin: miter; stroke-linecap: square"/>
   </g>
   <g id="patch_11">
    <path d="M 81 704.88 
L 583.2 704.88 
" style="fill: none; stroke: #000000; stroke-width: 0.8; stroke-linejoin: miter; stroke-linecap: square"/>
   </g>
   <g id="patch_12">
    <path d="M 81 427.68 
L 583.2 427.68 
" style="fill: none; stroke: #000000; stroke-width: 0.8; stroke-linejoin: miter; stroke-linecap: square"/>
   </g>
   <g id="text_37">
    <!-- (b) -->
    <g transform="translate(81 421.68) scale(0.2 -0.2)">
     <defs>
      <path id="DejaVuSans-62" d="M 3116 1747 
Q 3116 2381 2855 2742 
Q 2594 3103 2138 3103 
Q 1681 3103 1420 2742 
Q 1159 2381 1159 1747 
Q 1159 1113 1420 752 
Q 1681 391 2138 391 
Q 2594 391 2855 752 
Q 3116 1113 3116 1747 
z
M 1159 2969 
Q 1341 3281 1617 3432 
Q 1894 3584 2278 3584 
Q 2916 3584 3314 3078 
Q 3713 2572 3713 1747 
Q 3713 922 3314 415 
Q 2916 -91 2278 -91 
Q 1894 -91 1617 61 
Q 1341 213 1159 525 
L 1159 0 
L 581 0 
L 581 4863 
L 1159 4863 
L 1159 2969 
z
" transform="scale(0.015625)"/>
     </defs>
     <use xlink:href="#DejaVuSans-28"/>
     <use xlink:href="#DejaVuSans-62" x="39.013672"/>
     <use xlink:href="#DejaVuSans-29" x="102.490234"/>
    </g>
   </g>
  </g>
 </g>
 <defs>
  <clipPath id="pd6dbcbb638">
   <rect x="81" y="95.04" width="502.2" height="277.2"/>
  </clipPath>
  <clipPath id="p44f0fcf41a">
   <rect x="81" y="427.68" width="502.2" height="277.2"/>
  </clipPath>
 </defs>
</svg>
